<?xml version="1.0" encoding="UTF-8" standalone="no"?>
<!DOCTYPE svg PUBLIC "-//W3C//DTD SVG 1.1//EN" "http://www.w3.org/Graphics/SVG/1.1/DTD/svg11.dtd">
<svg version="1.1" xmlns:xl="http://www.w3.org/1999/xlink" xmlns:dc="http://purl.org/dc/elements/1.1/" xmlns="http://www.w3.org/2000/svg" viewBox="36 99 660 660" width="660" height="660">
  <defs/>
  <g id="Canvas_1" fill="none" stroke-opacity="1" stroke="none" fill-opacity="1" stroke-dasharray="none">
    <title>Canvas 1</title>
    <g id="Canvas_1_Layer_1">
      <title>Layer 1</title>
      <g id="Group_58">
        <g id="Graphic_57">
          <path d="M 598.81465 196.18535 C 727.3953 324.76538 727.3953 533.2346 598.81465 661.81465 C 470.2346 790.3953 261.76538 790.3953 133.18535 661.81465 C 4.604664 533.2346 4.604664 324.76538 133.18535 196.18535 C 261.76538 67.60466 470.2346 67.60466 598.81465 196.18535" fill="#ccc"/>
        </g>
        <g id="Group_2">
          <g id="Group_30">
            <g id="Graphic_56">
              <path d="M 401.88797 478.21187 L 545.4664 478.21187 C 550.43694 478.21187 554.4664 482.2413 554.4664 487.21187 L 554.4664 648.1558 C 554.4664 653.1263 550.43694 657.1558 545.4664 657.1558 L 401.88797 657.1558 C 396.9174 657.1558 392.88797 653.1263 392.88797 648.1558 L 392.88797 487.21187 C 392.88797 482.2413 396.9174 478.21187 401.88797 478.21187 Z" fill="#999"/>
            </g>
            <g id="Graphic_55">
              <path d="M 401.88797 475.2148 L 545.4664 475.2148 C 550.43694 475.2148 554.4664 479.2442 554.4664 484.2148 L 554.4664 516.1075 C 554.4664 521.0781 550.43694 525.1075 545.4664 525.1075 L 401.88797 525.1075 C 396.9174 525.1075 392.88797 521.0781 392.88797 516.1075 L 392.88797 484.2148 C 392.88797 479.2442 396.9174 475.2148 401.88797 475.2148 Z" fill="#5e5e5e"/>
              <path d="M 401.88797 475.2148 L 545.4664 475.2148 C 550.43694 475.2148 554.4664 479.2442 554.4664 484.2148 L 554.4664 516.1075 C 554.4664 521.0781 550.43694 525.1075 545.4664 525.1075 L 401.88797 525.1075 C 396.9174 525.1075 392.88797 521.0781 392.88797 516.1075 L 392.88797 484.2148 C 392.88797 479.2442 396.9174 475.2148 401.88797 475.2148 Z" stroke="black" stroke-linecap="round" stroke-linejoin="round" stroke-width=".25"/>
            </g>
            <g id="Graphic_54">
              <circle cx="422.58346" cy="497.695" r="17.4679642217863" fill="black"/>
            </g>
            <g id="Graphic_53">
              <rect x="405.1155" y="500.89743" width="5.240381" height="18.632465" fill="black"/>
            </g>
            <g id="Graphic_52">
              <rect x="434.811" y="500.89743" width="5.240381" height="18.632465" fill="black"/>
            </g>
            <g id="Graphic_51">
              <path d="M 442.7779 604.735 L 442.7779 582.2231 C 442.7779 570.9672 437.7126 559.71124 422.51657 559.71124 C 407.32056 559.71124 402.2552 570.9672 402.2552 582.2231 L 402.2552 604.735 Z" fill="white"/>
            </g>
            <g id="Graphic_50">
              <rect x="413.13387" y="545.3531" width="18.765395" height="20.351203" fill="white"/>
            </g>
            <g id="Graphic_49">
              <rect x="402.389" y="594.24884" width="40.522693" height="55.1531" fill="#c0ffc0"/>
            </g>
            <g id="Graphic_48">
              <rect x="413.26765" y="542.9744" width="18.765395" height="9.957572" fill="black"/>
              <rect x="413.26765" y="542.9744" width="18.765395" height="9.957572" stroke="black" stroke-linecap="round" stroke-linejoin="round" stroke-width="1"/>
            </g>
            <g id="Graphic_47">
              <path d="M 494.0054 605.9565 L 494.0054 583.3703 C 494.0054 572.0772 488.92335 560.7841 473.6772 560.7841 C 458.431 560.7841 453.34893 572.0772 453.34893 583.3703 L 453.34893 605.9565 Z" fill="white"/>
            </g>
            <g id="Graphic_46">
              <rect x="464.2635" y="546.37854" width="18.827349" height="20.418392" fill="white"/>
            </g>
            <g id="Graphic_45">
              <rect x="453.34893" y="600.38736" width="40.65648" height="47.99698" fill="#ffffc0"/>
            </g>
            <g id="Graphic_44">
              <rect x="463.8233" y="543.992" width="18.827349" height="9.990446" fill="black"/>
              <rect x="463.8233" y="543.992" width="18.827349" height="9.990446" stroke="black" stroke-linecap="round" stroke-linejoin="round" stroke-width="1"/>
            </g>
            <g id="Graphic_43">
              <path d="M 544.96534 603.7174 L 544.96534 581.2055 C 544.96534 569.9496 539.9 558.69364 524.704 558.69364 C 509.508 558.69364 504.44265 569.9496 504.44265 581.2055 L 504.44265 603.7174 Z" fill="white"/>
            </g>
            <g id="Graphic_42">
              <rect x="515.3213" y="544.3355" width="18.765395" height="20.351203" fill="white"/>
            </g>
            <g id="Graphic_41">
              <rect x="504.44265" y="582.6592" width="40.65648" height="65.72515" fill="#ffd579"/>
            </g>
            <g id="Graphic_40">
              <rect x="515.3213" y="544.3355" width="18.765395" height="9.957572" fill="black"/>
              <rect x="515.3213" y="544.3355" width="18.765395" height="9.957572" stroke="black" stroke-linecap="round" stroke-linejoin="round" stroke-width="1"/>
            </g>
            <g id="Graphic_39">
              <circle cx="473.6772" cy="497.695" r="17.4679642217863" fill="black"/>
            </g>
            <g id="Graphic_38">
              <rect x="456.20924" y="500.89743" width="5.240381" height="18.632465" fill="black"/>
            </g>
            <g id="Graphic_37">
              <rect x="485.9047" y="500.89743" width="5.240381" height="18.632465" fill="black"/>
            </g>
            <g id="Graphic_36">
              <circle cx="473.6772" cy="497.695" r="7.49666797851655" stroke="#a5a5a5" stroke-linecap="round" stroke-linejoin="round" stroke-width="5"/>
            </g>
            <g id="Graphic_35">
              <circle cx="524.7709" cy="497.695" r="17.4679642217862" fill="black"/>
            </g>
            <g id="Graphic_34">
              <rect x="507.30295" y="500.89743" width="5.240381" height="18.632465" fill="black"/>
            </g>
            <g id="Graphic_33">
              <rect x="536.99844" y="500.89743" width="5.240381" height="18.632465" fill="black"/>
            </g>
            <g id="Graphic_32">
              <circle cx="524.7709" cy="497.695" r="7.4966679785165" stroke="#a5a5a5" stroke-linecap="round" stroke-linejoin="round" stroke-width="5"/>
            </g>
            <g id="Graphic_31">
              <circle cx="422.58346" cy="497.695" r="7.49666797851655" stroke="#a5a5a5" stroke-linecap="round" stroke-linejoin="round" stroke-width="5"/>
            </g>
          </g>
          <g id="Group_3">
            <g id="Graphic_29">
              <rect x="262.65623" y="532.1941" width="67.744775" height="124.96164" fill="black"/>
            </g>
            <g id="Graphic_28">
              <path d="M 262.65623 657.1558 L 216.88274 532.1941 L 262.65623 532.1941 Z" fill="black"/>
            </g>
            <g id="Graphic_27">
              <path d="M 330.401 657.1558 L 376.1745 532.1941 L 330.401 532.1941 Z" fill="black"/>
            </g>
            <g id="Group_23">
              <g id="Graphic_26">
                <path d="M 220.47426 419.29427 C 224.73574 432.2978 218.7978 436.937 207.2115 429.65627 C 195.62521 422.3756 182.77812 405.9321 178.5167 392.9286 C 174.25522 379.9251 180.19316 375.2859 191.77947 382.5666 C 203.36575 389.84727 216.21284 406.2908 220.47426 419.29427" fill="#4e8f00"/>
              </g>
              <g id="Graphic_25">
                <path d="M 236.72028 374.30518 C 233.21204 361.07855 225.70536 360.4218 219.95364 372.8383 C 214.2019 385.2547 212.3832 406.04243 215.89147 419.269 C 219.39972 432.4956 226.9064 433.15237 232.65812 420.7359 C 238.40986 408.31947 240.22855 387.53174 236.72028 374.30518" fill="#4e8f00"/>
              </g>
              <g id="Graphic_24">
                <path d="M 211.37137 421.6789 C 223.88634 427.21306 223.3607 434.73006 210.19732 438.4686 C 197.034 442.2072 176.2177 440.75156 163.70278 435.2174 C 151.1878 429.68324 151.71345 422.16624 164.87683 418.4277 C 178.04015 414.68913 198.85646 416.14474 211.37137 421.6789" fill="#4e8f00"/>
              </g>
            </g>
            <g id="Graphic_22">
              <path d="M 241.69516 416.08685 L 298.32507 460.331 L 268.73504 498.2045 L 212.10513 453.96036 Z" fill="black"/>
            </g>
            <g id="Group_18">
              <g id="Graphic_21">
                <path d="M 220.47426 300.16927 C 224.73574 313.17278 218.7978 317.812 207.2115 310.53128 C 195.62521 303.2506 182.77812 286.8071 178.5167 273.80362 C 174.25522 260.8001 180.19316 256.16088 191.77947 263.4416 C 203.36575 270.72227 216.21284 287.1658 220.47426 300.16927" fill="#4e8f00"/>
              </g>
              <g id="Graphic_20">
                <path d="M 236.72028 255.18018 C 233.21204 241.95355 225.70536 241.2968 219.95364 253.7133 C 214.2019 266.1297 212.3832 286.91743 215.89147 300.144 C 219.39972 313.37063 226.9064 314.02738 232.65812 301.6109 C 238.40986 289.19447 240.22855 268.40674 236.72028 255.18018" fill="#4e8f00"/>
              </g>
              <g id="Graphic_19">
                <path d="M 211.37137 302.5539 C 223.88634 308.08807 223.3607 315.60507 210.19732 319.3436 C 197.034 323.0822 176.2177 321.62657 163.70278 316.0924 C 151.1878 310.55825 151.71345 303.04125 164.87683 299.3027 C 178.04015 295.56413 198.85646 297.01975 211.37137 302.5539" fill="#4e8f00"/>
              </g>
            </g>
            <g id="Graphic_17">
              <path d="M 297.60986 344.2237 L 240.97994 299.97957 L 211.38992 337.8531 L 268.01983 382.0972 Z" fill="black"/>
            </g>
            <g id="Group_13">
              <g id="Graphic_16">
                <path d="M 383.19473 277.52363 C 373.71396 287.39107 366.83007 284.32617 367.81913 270.67797 C 368.80814 257.02983 377.29557 237.96676 386.77634 228.09939 C 396.2571 218.23195 403.141 221.29685 402.15194 234.94504 C 401.16293 248.5932 392.6755 267.65626 383.19473 277.52363" fill="#4e8f00"/>
              </g>
              <g id="Graphic_15">
                <path d="M 430.5448 270.74692 C 440.5762 261.4398 437.6319 254.50347 423.9685 255.2542 C 410.3052 256.00485 391.0969 264.1583 381.06556 273.4654 C 371.03416 282.77253 373.97846 289.70886 387.64183 288.95814 C 401.30516 288.20747 420.51346 280.05403 430.5448 270.74692" fill="#4e8f00"/>
              </g>
              <g id="Graphic_14">
                <path d="M 376.81566 270.60578 C 377.80473 284.25397 370.92084 287.31888 361.44006 277.45144 C 351.9593 267.58407 343.47187 248.521 342.48285 234.87285 C 341.4938 221.22465 348.3777 218.15975 357.85846 228.0272 C 367.33922 237.89456 375.82665 256.95763 376.81566 270.60578" fill="#4e8f00"/>
              </g>
            </g>
            <g id="Graphic_12">
              <path d="M 328.39383 353.02032 L 380.9521 304.00893 L 348.1738 268.85848 L 295.6155 317.86987 Z" fill="black"/>
            </g>
            <g id="Group_8">
              <g id="Graphic_11">
                <path d="M 386.78567 397.62065 C 377.3049 407.4881 370.421 404.4232 371.41007 390.775 C 372.3991 377.12685 380.8865 358.06377 390.3673 348.1964 C 399.84806 338.32896 406.73194 341.39387 405.7429 355.04206 C 404.75387 368.6902 396.26644 387.7533 386.78567 397.62065" fill="#4e8f00"/>
              </g>
              <g id="Graphic_10">
                <path d="M 434.13573 390.84393 C 444.16713 381.5368 441.22283 374.6005 427.55945 375.3512 C 413.89613 376.10187 394.68783 384.2553 384.6565 393.56242 C 374.6251 402.86954 377.5694 409.80587 391.23278 409.05516 C 404.8961 408.3045 424.1044 400.15105 434.13573 390.84393" fill="#4e8f00"/>
              </g>
              <g id="Graphic_9">
                <path d="M 380.4066 390.7028 C 381.39567 404.351 374.5118 407.4159 365.031 397.54845 C 355.55023 387.6811 347.0628 368.618 346.0738 354.96986 C 345.08473 341.32167 351.96862 338.25676 361.4494 348.1242 C 370.93017 357.99157 379.4176 377.05465 380.4066 390.7028" fill="#4e8f00"/>
              </g>
            </g>
            <g id="Graphic_7">
              <path d="M 211.38992 336.77478 L 242.26476 299.97957 L 249.97896 306.45255 L 219.10411 343.24776 Z" fill="black"/>
            </g>
            <g id="Line_6"/>
            <g id="Graphic_5">
              <rect x="262.65623" y="208.0664" width="67.744775" height="317.66806" fill="black"/>
            </g>
            <g id="Graphic_4">
              <path d="M 331.1034 471.92036 L 383.66168 422.90896 L 350.88335 387.7585 L 298.32507 436.7699 Z" fill="black"/>
            </g>
          </g>
        </g>
      </g>
    </g>
  </g>
</svg>
