<?xml version="1.0" encoding="UTF-8" standalone="no"?>
<!DOCTYPE svg PUBLIC "-//W3C//DTD SVG 1.1//EN" "http://www.w3.org/Graphics/SVG/1.1/DTD/svg11.dtd">
<svg version="1.1" xmlns:xl="http://www.w3.org/1999/xlink" xmlns:dc="http://purl.org/dc/elements/1.1/" xmlns="http://www.w3.org/2000/svg" viewBox="261 318 221 144" width="221" height="144">
  <defs/>
  <g id="Canvas_1" fill="none" stroke-opacity="1" stroke="none" fill-opacity="1" stroke-dasharray="none">
    <title>Canvas 1</title>
    <g id="Canvas_1_Layer_1">
      <title>Layer 1</title>
      <g id="Graphic_5">
        <path d="M 390.334 427.54404 C 381.75115 452.6767 367.1288 452.93195 357.67406 428.1141 C 348.21928 403.2964 347.51248 362.80377 356.09538 337.6712 C 364.67823 312.53854 379.30057 312.2833 388.7553 337.10113 C 398.2101 361.91884 398.9169 402.4115 390.334 427.54404" fill="#4e8f00"/>
      </g>
      <g id="Graphic_4">
        <path d="M 463.54134 372.43115 C 473.5523 347.8324 462.6841 338.04667 439.2666 350.57406 C 415.8491 363.1013 388.7501 393.1978 378.73925 417.79647 C 368.7283 442.3952 379.59646 452.18095 403.014 439.65356 C 426.4315 427.1263 453.5305 397.0298 463.54134 372.43115" fill="#4e8f00"/>
      </g>
      <g id="Graphic_3">
        <path d="M 369.64 418.95955 C 382.57417 442.1549 372.9796 453.1922 348.2099 443.61207 C 323.44025 434.03206 292.8754 407.46244 279.94136 384.26715 C 267.0072 361.0718 276.60177 350.0345 301.37147 359.61462 C 326.1411 369.19463 356.70595 395.76425 369.64 418.95955" fill="#4e8f00"/>
      </g>
    </g>
  </g>
</svg>
