G04 MADE WITH FRITZING*
G04 WWW.FRITZING.ORG*
G04 DOUBLE SIDED*
G04 HOLES PLATED*
G04 CONTOUR ON CENTER OF CONTOUR VECTOR*
%ASAXBY*%
%FSLAX23Y23*%
%MOIN*%
%OFA0B0*%
%SFA1.0B1.0*%
%ADD10C,0.075000*%
%ADD11C,0.078000*%
%ADD12C,0.080000*%
%ADD13C,0.067559*%
%ADD14R,0.077630X0.077806*%
%ADD15R,0.080000X0.080000*%
%ADD16C,0.024000*%
%ADD17C,0.000100*%
%LNCOPPER0*%
G90*
G70*
G54D10*
X365Y1905D03*
G54D11*
X1044Y1216D03*
X1044Y1576D03*
X444Y1576D03*
X444Y1216D03*
G54D12*
X1714Y1444D03*
X1514Y1444D03*
G54D13*
X335Y2039D03*
X435Y2039D03*
X535Y2039D03*
X635Y2039D03*
X735Y2039D03*
X835Y2039D03*
X935Y2039D03*
X1035Y2039D03*
X1135Y2039D03*
X1235Y2039D03*
X1335Y2039D03*
X1435Y2039D03*
X1535Y2039D03*
X1635Y2039D03*
X1735Y2039D03*
X1835Y2039D03*
X1935Y2039D03*
X2035Y2039D03*
X2135Y2039D03*
X2235Y2039D03*
X335Y2039D03*
X435Y2039D03*
X535Y2039D03*
X635Y2039D03*
X735Y2039D03*
X835Y2039D03*
X935Y2039D03*
X1035Y2039D03*
X1135Y2039D03*
X1235Y2039D03*
X1335Y2039D03*
X1435Y2039D03*
X1535Y2039D03*
X1635Y2039D03*
X1735Y2039D03*
X1835Y2039D03*
X1935Y2039D03*
X2035Y2039D03*
X2135Y2039D03*
X2235Y2039D03*
X2235Y2139D03*
X2135Y2139D03*
X2035Y2139D03*
X1935Y2139D03*
X1835Y2139D03*
X1735Y2139D03*
X1635Y2139D03*
X1535Y2139D03*
X1435Y2139D03*
X1335Y2139D03*
X1235Y2139D03*
X1135Y2139D03*
X1035Y2139D03*
X935Y2139D03*
X835Y2139D03*
X735Y2139D03*
X635Y2139D03*
X535Y2139D03*
X435Y2139D03*
X335Y2139D03*
G54D14*
X444Y1576D03*
X444Y1217D03*
X1045Y1216D03*
X1044Y1576D03*
G54D15*
X1714Y1444D03*
G54D16*
X261Y1948D02*
X436Y1593D01*
D02*
X261Y2080D02*
X261Y1948D01*
D02*
X324Y2130D02*
X261Y2080D01*
D02*
X1496Y1436D02*
X1061Y1224D01*
D02*
X1702Y1614D02*
X1063Y1577D01*
D02*
X1712Y1464D02*
X1702Y1614D01*
G54D17*
G36*
X220Y2167D02*
X220Y2147D01*
X222Y2147D01*
X222Y2145D01*
X224Y2145D01*
X224Y2143D01*
X226Y2143D01*
X226Y2139D01*
X228Y2139D01*
X228Y2135D01*
X230Y2135D01*
X230Y2131D01*
X232Y2131D01*
X232Y2125D01*
X234Y2125D01*
X234Y2101D01*
X254Y2101D01*
X254Y2103D01*
X256Y2103D01*
X256Y2105D01*
X258Y2105D01*
X258Y2107D01*
X260Y2107D01*
X260Y2109D01*
X264Y2109D01*
X264Y2111D01*
X266Y2111D01*
X266Y2113D01*
X268Y2113D01*
X268Y2115D01*
X270Y2115D01*
X270Y2117D01*
X274Y2117D01*
X274Y2119D01*
X276Y2119D01*
X276Y2121D01*
X278Y2121D01*
X278Y2123D01*
X280Y2123D01*
X280Y2125D01*
X284Y2125D01*
X284Y2127D01*
X286Y2127D01*
X286Y2129D01*
X288Y2129D01*
X288Y2131D01*
X290Y2131D01*
X290Y2133D01*
X292Y2133D01*
X292Y2167D01*
X220Y2167D01*
G37*
D02*
G36*
X374Y2121D02*
X374Y2117D01*
X372Y2117D01*
X372Y2115D01*
X370Y2115D01*
X370Y2111D01*
X368Y2111D01*
X368Y2109D01*
X366Y2109D01*
X366Y2107D01*
X364Y2107D01*
X364Y2105D01*
X362Y2105D01*
X362Y2103D01*
X358Y2103D01*
X358Y2101D01*
X354Y2101D01*
X354Y2099D01*
X350Y2099D01*
X350Y2079D01*
X354Y2079D01*
X354Y2077D01*
X358Y2077D01*
X358Y2075D01*
X360Y2075D01*
X360Y2073D01*
X362Y2073D01*
X362Y2071D01*
X366Y2071D01*
X366Y2069D01*
X368Y2069D01*
X368Y2065D01*
X370Y2065D01*
X370Y2063D01*
X372Y2063D01*
X372Y2059D01*
X374Y2059D01*
X374Y2055D01*
X394Y2055D01*
X394Y2057D01*
X396Y2057D01*
X396Y2061D01*
X398Y2061D01*
X398Y2063D01*
X400Y2063D01*
X400Y2067D01*
X402Y2067D01*
X402Y2069D01*
X404Y2069D01*
X404Y2071D01*
X406Y2071D01*
X406Y2073D01*
X410Y2073D01*
X410Y2075D01*
X412Y2075D01*
X412Y2077D01*
X416Y2077D01*
X416Y2079D01*
X418Y2079D01*
X418Y2099D01*
X414Y2099D01*
X414Y2101D01*
X412Y2101D01*
X412Y2103D01*
X408Y2103D01*
X408Y2105D01*
X406Y2105D01*
X406Y2107D01*
X404Y2107D01*
X404Y2109D01*
X402Y2109D01*
X402Y2111D01*
X400Y2111D01*
X400Y2113D01*
X398Y2113D01*
X398Y2117D01*
X396Y2117D01*
X396Y2121D01*
X374Y2121D01*
G37*
D02*
G36*
X474Y2121D02*
X474Y2117D01*
X472Y2117D01*
X472Y2115D01*
X470Y2115D01*
X470Y2111D01*
X468Y2111D01*
X468Y2109D01*
X466Y2109D01*
X466Y2107D01*
X464Y2107D01*
X464Y2105D01*
X462Y2105D01*
X462Y2103D01*
X458Y2103D01*
X458Y2101D01*
X454Y2101D01*
X454Y2099D01*
X450Y2099D01*
X450Y2079D01*
X454Y2079D01*
X454Y2077D01*
X458Y2077D01*
X458Y2075D01*
X460Y2075D01*
X460Y2073D01*
X462Y2073D01*
X462Y2071D01*
X466Y2071D01*
X466Y2069D01*
X468Y2069D01*
X468Y2065D01*
X470Y2065D01*
X470Y2063D01*
X472Y2063D01*
X472Y2059D01*
X474Y2059D01*
X474Y2055D01*
X494Y2055D01*
X494Y2057D01*
X496Y2057D01*
X496Y2061D01*
X498Y2061D01*
X498Y2063D01*
X500Y2063D01*
X500Y2067D01*
X502Y2067D01*
X502Y2069D01*
X504Y2069D01*
X504Y2071D01*
X506Y2071D01*
X506Y2073D01*
X510Y2073D01*
X510Y2075D01*
X512Y2075D01*
X512Y2077D01*
X516Y2077D01*
X516Y2079D01*
X518Y2079D01*
X518Y2099D01*
X514Y2099D01*
X514Y2101D01*
X512Y2101D01*
X512Y2103D01*
X508Y2103D01*
X508Y2105D01*
X506Y2105D01*
X506Y2107D01*
X504Y2107D01*
X504Y2109D01*
X502Y2109D01*
X502Y2111D01*
X500Y2111D01*
X500Y2113D01*
X498Y2113D01*
X498Y2117D01*
X496Y2117D01*
X496Y2121D01*
X474Y2121D01*
G37*
D02*
G36*
X574Y2121D02*
X574Y2117D01*
X572Y2117D01*
X572Y2115D01*
X570Y2115D01*
X570Y2111D01*
X568Y2111D01*
X568Y2109D01*
X566Y2109D01*
X566Y2107D01*
X564Y2107D01*
X564Y2105D01*
X562Y2105D01*
X562Y2103D01*
X558Y2103D01*
X558Y2101D01*
X554Y2101D01*
X554Y2099D01*
X550Y2099D01*
X550Y2079D01*
X554Y2079D01*
X554Y2077D01*
X558Y2077D01*
X558Y2075D01*
X560Y2075D01*
X560Y2073D01*
X562Y2073D01*
X562Y2071D01*
X566Y2071D01*
X566Y2069D01*
X568Y2069D01*
X568Y2065D01*
X570Y2065D01*
X570Y2063D01*
X572Y2063D01*
X572Y2059D01*
X574Y2059D01*
X574Y2055D01*
X594Y2055D01*
X594Y2057D01*
X596Y2057D01*
X596Y2061D01*
X598Y2061D01*
X598Y2063D01*
X600Y2063D01*
X600Y2067D01*
X602Y2067D01*
X602Y2069D01*
X604Y2069D01*
X604Y2071D01*
X606Y2071D01*
X606Y2073D01*
X610Y2073D01*
X610Y2075D01*
X612Y2075D01*
X612Y2077D01*
X616Y2077D01*
X616Y2079D01*
X618Y2079D01*
X618Y2099D01*
X614Y2099D01*
X614Y2101D01*
X612Y2101D01*
X612Y2103D01*
X608Y2103D01*
X608Y2105D01*
X606Y2105D01*
X606Y2107D01*
X604Y2107D01*
X604Y2109D01*
X602Y2109D01*
X602Y2111D01*
X600Y2111D01*
X600Y2113D01*
X598Y2113D01*
X598Y2117D01*
X596Y2117D01*
X596Y2121D01*
X574Y2121D01*
G37*
D02*
G36*
X674Y2121D02*
X674Y2117D01*
X672Y2117D01*
X672Y2115D01*
X670Y2115D01*
X670Y2111D01*
X668Y2111D01*
X668Y2109D01*
X666Y2109D01*
X666Y2107D01*
X664Y2107D01*
X664Y2105D01*
X662Y2105D01*
X662Y2103D01*
X658Y2103D01*
X658Y2101D01*
X654Y2101D01*
X654Y2099D01*
X650Y2099D01*
X650Y2079D01*
X654Y2079D01*
X654Y2077D01*
X658Y2077D01*
X658Y2075D01*
X660Y2075D01*
X660Y2073D01*
X662Y2073D01*
X662Y2071D01*
X666Y2071D01*
X666Y2069D01*
X668Y2069D01*
X668Y2065D01*
X670Y2065D01*
X670Y2063D01*
X672Y2063D01*
X672Y2059D01*
X674Y2059D01*
X674Y2055D01*
X694Y2055D01*
X694Y2057D01*
X696Y2057D01*
X696Y2061D01*
X698Y2061D01*
X698Y2063D01*
X700Y2063D01*
X700Y2067D01*
X702Y2067D01*
X702Y2069D01*
X704Y2069D01*
X704Y2071D01*
X706Y2071D01*
X706Y2073D01*
X710Y2073D01*
X710Y2075D01*
X712Y2075D01*
X712Y2077D01*
X716Y2077D01*
X716Y2079D01*
X718Y2079D01*
X718Y2099D01*
X714Y2099D01*
X714Y2101D01*
X712Y2101D01*
X712Y2103D01*
X708Y2103D01*
X708Y2105D01*
X706Y2105D01*
X706Y2107D01*
X704Y2107D01*
X704Y2109D01*
X702Y2109D01*
X702Y2111D01*
X700Y2111D01*
X700Y2113D01*
X698Y2113D01*
X698Y2117D01*
X696Y2117D01*
X696Y2121D01*
X674Y2121D01*
G37*
D02*
G36*
X774Y2121D02*
X774Y2117D01*
X772Y2117D01*
X772Y2115D01*
X770Y2115D01*
X770Y2111D01*
X768Y2111D01*
X768Y2109D01*
X766Y2109D01*
X766Y2107D01*
X764Y2107D01*
X764Y2105D01*
X762Y2105D01*
X762Y2103D01*
X758Y2103D01*
X758Y2101D01*
X754Y2101D01*
X754Y2099D01*
X750Y2099D01*
X750Y2079D01*
X754Y2079D01*
X754Y2077D01*
X758Y2077D01*
X758Y2075D01*
X760Y2075D01*
X760Y2073D01*
X762Y2073D01*
X762Y2071D01*
X766Y2071D01*
X766Y2069D01*
X768Y2069D01*
X768Y2065D01*
X770Y2065D01*
X770Y2063D01*
X772Y2063D01*
X772Y2059D01*
X774Y2059D01*
X774Y2055D01*
X794Y2055D01*
X794Y2057D01*
X796Y2057D01*
X796Y2061D01*
X798Y2061D01*
X798Y2063D01*
X800Y2063D01*
X800Y2067D01*
X802Y2067D01*
X802Y2069D01*
X804Y2069D01*
X804Y2071D01*
X806Y2071D01*
X806Y2073D01*
X810Y2073D01*
X810Y2075D01*
X812Y2075D01*
X812Y2077D01*
X816Y2077D01*
X816Y2079D01*
X818Y2079D01*
X818Y2099D01*
X814Y2099D01*
X814Y2101D01*
X812Y2101D01*
X812Y2103D01*
X808Y2103D01*
X808Y2105D01*
X806Y2105D01*
X806Y2107D01*
X804Y2107D01*
X804Y2109D01*
X802Y2109D01*
X802Y2111D01*
X800Y2111D01*
X800Y2113D01*
X798Y2113D01*
X798Y2117D01*
X796Y2117D01*
X796Y2121D01*
X774Y2121D01*
G37*
D02*
G36*
X874Y2121D02*
X874Y2117D01*
X872Y2117D01*
X872Y2115D01*
X870Y2115D01*
X870Y2111D01*
X868Y2111D01*
X868Y2109D01*
X866Y2109D01*
X866Y2107D01*
X864Y2107D01*
X864Y2105D01*
X862Y2105D01*
X862Y2103D01*
X858Y2103D01*
X858Y2101D01*
X854Y2101D01*
X854Y2099D01*
X850Y2099D01*
X850Y2079D01*
X854Y2079D01*
X854Y2077D01*
X858Y2077D01*
X858Y2075D01*
X860Y2075D01*
X860Y2073D01*
X862Y2073D01*
X862Y2071D01*
X866Y2071D01*
X866Y2069D01*
X868Y2069D01*
X868Y2065D01*
X870Y2065D01*
X870Y2063D01*
X872Y2063D01*
X872Y2059D01*
X874Y2059D01*
X874Y2055D01*
X894Y2055D01*
X894Y2057D01*
X896Y2057D01*
X896Y2061D01*
X898Y2061D01*
X898Y2063D01*
X900Y2063D01*
X900Y2067D01*
X902Y2067D01*
X902Y2069D01*
X904Y2069D01*
X904Y2071D01*
X906Y2071D01*
X906Y2073D01*
X910Y2073D01*
X910Y2075D01*
X912Y2075D01*
X912Y2077D01*
X916Y2077D01*
X916Y2079D01*
X918Y2079D01*
X918Y2099D01*
X914Y2099D01*
X914Y2101D01*
X912Y2101D01*
X912Y2103D01*
X908Y2103D01*
X908Y2105D01*
X906Y2105D01*
X906Y2107D01*
X904Y2107D01*
X904Y2109D01*
X902Y2109D01*
X902Y2111D01*
X900Y2111D01*
X900Y2113D01*
X898Y2113D01*
X898Y2117D01*
X896Y2117D01*
X896Y2121D01*
X874Y2121D01*
G37*
D02*
G36*
X974Y2121D02*
X974Y2117D01*
X972Y2117D01*
X972Y2115D01*
X970Y2115D01*
X970Y2111D01*
X968Y2111D01*
X968Y2109D01*
X966Y2109D01*
X966Y2107D01*
X964Y2107D01*
X964Y2105D01*
X962Y2105D01*
X962Y2103D01*
X958Y2103D01*
X958Y2101D01*
X954Y2101D01*
X954Y2099D01*
X950Y2099D01*
X950Y2079D01*
X954Y2079D01*
X954Y2077D01*
X958Y2077D01*
X958Y2075D01*
X960Y2075D01*
X960Y2073D01*
X962Y2073D01*
X962Y2071D01*
X966Y2071D01*
X966Y2069D01*
X968Y2069D01*
X968Y2065D01*
X970Y2065D01*
X970Y2063D01*
X972Y2063D01*
X972Y2059D01*
X974Y2059D01*
X974Y2055D01*
X994Y2055D01*
X994Y2057D01*
X996Y2057D01*
X996Y2061D01*
X998Y2061D01*
X998Y2063D01*
X1000Y2063D01*
X1000Y2067D01*
X1002Y2067D01*
X1002Y2069D01*
X1004Y2069D01*
X1004Y2071D01*
X1006Y2071D01*
X1006Y2073D01*
X1010Y2073D01*
X1010Y2075D01*
X1012Y2075D01*
X1012Y2077D01*
X1016Y2077D01*
X1016Y2079D01*
X1018Y2079D01*
X1018Y2099D01*
X1014Y2099D01*
X1014Y2101D01*
X1012Y2101D01*
X1012Y2103D01*
X1008Y2103D01*
X1008Y2105D01*
X1006Y2105D01*
X1006Y2107D01*
X1004Y2107D01*
X1004Y2109D01*
X1002Y2109D01*
X1002Y2111D01*
X1000Y2111D01*
X1000Y2113D01*
X998Y2113D01*
X998Y2117D01*
X996Y2117D01*
X996Y2121D01*
X974Y2121D01*
G37*
D02*
G36*
X1074Y2121D02*
X1074Y2117D01*
X1072Y2117D01*
X1072Y2115D01*
X1070Y2115D01*
X1070Y2111D01*
X1068Y2111D01*
X1068Y2109D01*
X1066Y2109D01*
X1066Y2107D01*
X1064Y2107D01*
X1064Y2105D01*
X1062Y2105D01*
X1062Y2103D01*
X1058Y2103D01*
X1058Y2101D01*
X1054Y2101D01*
X1054Y2099D01*
X1050Y2099D01*
X1050Y2079D01*
X1054Y2079D01*
X1054Y2077D01*
X1058Y2077D01*
X1058Y2075D01*
X1060Y2075D01*
X1060Y2073D01*
X1062Y2073D01*
X1062Y2071D01*
X1066Y2071D01*
X1066Y2069D01*
X1068Y2069D01*
X1068Y2065D01*
X1070Y2065D01*
X1070Y2063D01*
X1072Y2063D01*
X1072Y2059D01*
X1074Y2059D01*
X1074Y2055D01*
X1094Y2055D01*
X1094Y2057D01*
X1096Y2057D01*
X1096Y2061D01*
X1098Y2061D01*
X1098Y2063D01*
X1100Y2063D01*
X1100Y2067D01*
X1102Y2067D01*
X1102Y2069D01*
X1104Y2069D01*
X1104Y2071D01*
X1106Y2071D01*
X1106Y2073D01*
X1110Y2073D01*
X1110Y2075D01*
X1112Y2075D01*
X1112Y2077D01*
X1116Y2077D01*
X1116Y2079D01*
X1118Y2079D01*
X1118Y2099D01*
X1114Y2099D01*
X1114Y2101D01*
X1112Y2101D01*
X1112Y2103D01*
X1108Y2103D01*
X1108Y2105D01*
X1106Y2105D01*
X1106Y2107D01*
X1104Y2107D01*
X1104Y2109D01*
X1102Y2109D01*
X1102Y2111D01*
X1100Y2111D01*
X1100Y2113D01*
X1098Y2113D01*
X1098Y2117D01*
X1096Y2117D01*
X1096Y2121D01*
X1074Y2121D01*
G37*
D02*
G36*
X1174Y2121D02*
X1174Y2117D01*
X1172Y2117D01*
X1172Y2115D01*
X1170Y2115D01*
X1170Y2111D01*
X1168Y2111D01*
X1168Y2109D01*
X1166Y2109D01*
X1166Y2107D01*
X1164Y2107D01*
X1164Y2105D01*
X1162Y2105D01*
X1162Y2103D01*
X1158Y2103D01*
X1158Y2101D01*
X1154Y2101D01*
X1154Y2099D01*
X1150Y2099D01*
X1150Y2079D01*
X1154Y2079D01*
X1154Y2077D01*
X1158Y2077D01*
X1158Y2075D01*
X1160Y2075D01*
X1160Y2073D01*
X1162Y2073D01*
X1162Y2071D01*
X1166Y2071D01*
X1166Y2069D01*
X1168Y2069D01*
X1168Y2065D01*
X1170Y2065D01*
X1170Y2063D01*
X1172Y2063D01*
X1172Y2059D01*
X1174Y2059D01*
X1174Y2055D01*
X1194Y2055D01*
X1194Y2057D01*
X1196Y2057D01*
X1196Y2061D01*
X1198Y2061D01*
X1198Y2063D01*
X1200Y2063D01*
X1200Y2067D01*
X1202Y2067D01*
X1202Y2069D01*
X1204Y2069D01*
X1204Y2071D01*
X1206Y2071D01*
X1206Y2073D01*
X1210Y2073D01*
X1210Y2075D01*
X1212Y2075D01*
X1212Y2077D01*
X1216Y2077D01*
X1216Y2079D01*
X1218Y2079D01*
X1218Y2099D01*
X1214Y2099D01*
X1214Y2101D01*
X1212Y2101D01*
X1212Y2103D01*
X1208Y2103D01*
X1208Y2105D01*
X1206Y2105D01*
X1206Y2107D01*
X1204Y2107D01*
X1204Y2109D01*
X1202Y2109D01*
X1202Y2111D01*
X1200Y2111D01*
X1200Y2113D01*
X1198Y2113D01*
X1198Y2117D01*
X1196Y2117D01*
X1196Y2121D01*
X1174Y2121D01*
G37*
D02*
G36*
X1274Y2121D02*
X1274Y2117D01*
X1272Y2117D01*
X1272Y2115D01*
X1270Y2115D01*
X1270Y2111D01*
X1268Y2111D01*
X1268Y2109D01*
X1266Y2109D01*
X1266Y2107D01*
X1264Y2107D01*
X1264Y2105D01*
X1262Y2105D01*
X1262Y2103D01*
X1258Y2103D01*
X1258Y2101D01*
X1254Y2101D01*
X1254Y2099D01*
X1250Y2099D01*
X1250Y2079D01*
X1254Y2079D01*
X1254Y2077D01*
X1258Y2077D01*
X1258Y2075D01*
X1260Y2075D01*
X1260Y2073D01*
X1262Y2073D01*
X1262Y2071D01*
X1266Y2071D01*
X1266Y2069D01*
X1268Y2069D01*
X1268Y2065D01*
X1270Y2065D01*
X1270Y2063D01*
X1272Y2063D01*
X1272Y2059D01*
X1274Y2059D01*
X1274Y2055D01*
X1294Y2055D01*
X1294Y2057D01*
X1296Y2057D01*
X1296Y2061D01*
X1298Y2061D01*
X1298Y2063D01*
X1300Y2063D01*
X1300Y2067D01*
X1302Y2067D01*
X1302Y2069D01*
X1304Y2069D01*
X1304Y2071D01*
X1306Y2071D01*
X1306Y2073D01*
X1310Y2073D01*
X1310Y2075D01*
X1312Y2075D01*
X1312Y2077D01*
X1316Y2077D01*
X1316Y2079D01*
X1318Y2079D01*
X1318Y2099D01*
X1314Y2099D01*
X1314Y2101D01*
X1312Y2101D01*
X1312Y2103D01*
X1308Y2103D01*
X1308Y2105D01*
X1306Y2105D01*
X1306Y2107D01*
X1304Y2107D01*
X1304Y2109D01*
X1302Y2109D01*
X1302Y2111D01*
X1300Y2111D01*
X1300Y2113D01*
X1298Y2113D01*
X1298Y2117D01*
X1296Y2117D01*
X1296Y2121D01*
X1274Y2121D01*
G37*
D02*
G36*
X1374Y2121D02*
X1374Y2117D01*
X1372Y2117D01*
X1372Y2115D01*
X1370Y2115D01*
X1370Y2111D01*
X1368Y2111D01*
X1368Y2109D01*
X1366Y2109D01*
X1366Y2107D01*
X1364Y2107D01*
X1364Y2105D01*
X1362Y2105D01*
X1362Y2103D01*
X1358Y2103D01*
X1358Y2101D01*
X1354Y2101D01*
X1354Y2099D01*
X1350Y2099D01*
X1350Y2079D01*
X1354Y2079D01*
X1354Y2077D01*
X1358Y2077D01*
X1358Y2075D01*
X1360Y2075D01*
X1360Y2073D01*
X1362Y2073D01*
X1362Y2071D01*
X1366Y2071D01*
X1366Y2069D01*
X1368Y2069D01*
X1368Y2065D01*
X1370Y2065D01*
X1370Y2063D01*
X1372Y2063D01*
X1372Y2059D01*
X1374Y2059D01*
X1374Y2055D01*
X1394Y2055D01*
X1394Y2057D01*
X1396Y2057D01*
X1396Y2061D01*
X1398Y2061D01*
X1398Y2063D01*
X1400Y2063D01*
X1400Y2067D01*
X1402Y2067D01*
X1402Y2069D01*
X1404Y2069D01*
X1404Y2071D01*
X1406Y2071D01*
X1406Y2073D01*
X1410Y2073D01*
X1410Y2075D01*
X1412Y2075D01*
X1412Y2077D01*
X1416Y2077D01*
X1416Y2079D01*
X1418Y2079D01*
X1418Y2099D01*
X1414Y2099D01*
X1414Y2101D01*
X1412Y2101D01*
X1412Y2103D01*
X1408Y2103D01*
X1408Y2105D01*
X1406Y2105D01*
X1406Y2107D01*
X1404Y2107D01*
X1404Y2109D01*
X1402Y2109D01*
X1402Y2111D01*
X1400Y2111D01*
X1400Y2113D01*
X1398Y2113D01*
X1398Y2117D01*
X1396Y2117D01*
X1396Y2121D01*
X1374Y2121D01*
G37*
D02*
G36*
X1474Y2121D02*
X1474Y2117D01*
X1472Y2117D01*
X1472Y2115D01*
X1470Y2115D01*
X1470Y2111D01*
X1468Y2111D01*
X1468Y2109D01*
X1466Y2109D01*
X1466Y2107D01*
X1464Y2107D01*
X1464Y2105D01*
X1462Y2105D01*
X1462Y2103D01*
X1458Y2103D01*
X1458Y2101D01*
X1454Y2101D01*
X1454Y2099D01*
X1450Y2099D01*
X1450Y2079D01*
X1454Y2079D01*
X1454Y2077D01*
X1458Y2077D01*
X1458Y2075D01*
X1460Y2075D01*
X1460Y2073D01*
X1462Y2073D01*
X1462Y2071D01*
X1466Y2071D01*
X1466Y2069D01*
X1468Y2069D01*
X1468Y2065D01*
X1470Y2065D01*
X1470Y2063D01*
X1472Y2063D01*
X1472Y2059D01*
X1474Y2059D01*
X1474Y2055D01*
X1494Y2055D01*
X1494Y2057D01*
X1496Y2057D01*
X1496Y2061D01*
X1498Y2061D01*
X1498Y2063D01*
X1500Y2063D01*
X1500Y2067D01*
X1502Y2067D01*
X1502Y2069D01*
X1504Y2069D01*
X1504Y2071D01*
X1506Y2071D01*
X1506Y2073D01*
X1510Y2073D01*
X1510Y2075D01*
X1512Y2075D01*
X1512Y2077D01*
X1516Y2077D01*
X1516Y2079D01*
X1518Y2079D01*
X1518Y2099D01*
X1514Y2099D01*
X1514Y2101D01*
X1512Y2101D01*
X1512Y2103D01*
X1508Y2103D01*
X1508Y2105D01*
X1506Y2105D01*
X1506Y2107D01*
X1504Y2107D01*
X1504Y2109D01*
X1502Y2109D01*
X1502Y2111D01*
X1500Y2111D01*
X1500Y2113D01*
X1498Y2113D01*
X1498Y2117D01*
X1496Y2117D01*
X1496Y2121D01*
X1474Y2121D01*
G37*
D02*
G36*
X1574Y2121D02*
X1574Y2117D01*
X1572Y2117D01*
X1572Y2115D01*
X1570Y2115D01*
X1570Y2111D01*
X1568Y2111D01*
X1568Y2109D01*
X1566Y2109D01*
X1566Y2107D01*
X1564Y2107D01*
X1564Y2105D01*
X1562Y2105D01*
X1562Y2103D01*
X1558Y2103D01*
X1558Y2101D01*
X1554Y2101D01*
X1554Y2099D01*
X1550Y2099D01*
X1550Y2079D01*
X1554Y2079D01*
X1554Y2077D01*
X1558Y2077D01*
X1558Y2075D01*
X1560Y2075D01*
X1560Y2073D01*
X1562Y2073D01*
X1562Y2071D01*
X1566Y2071D01*
X1566Y2069D01*
X1568Y2069D01*
X1568Y2065D01*
X1570Y2065D01*
X1570Y2063D01*
X1572Y2063D01*
X1572Y2059D01*
X1574Y2059D01*
X1574Y2055D01*
X1594Y2055D01*
X1594Y2057D01*
X1596Y2057D01*
X1596Y2061D01*
X1598Y2061D01*
X1598Y2063D01*
X1600Y2063D01*
X1600Y2067D01*
X1602Y2067D01*
X1602Y2069D01*
X1604Y2069D01*
X1604Y2071D01*
X1606Y2071D01*
X1606Y2073D01*
X1610Y2073D01*
X1610Y2075D01*
X1612Y2075D01*
X1612Y2077D01*
X1616Y2077D01*
X1616Y2079D01*
X1618Y2079D01*
X1618Y2099D01*
X1614Y2099D01*
X1614Y2101D01*
X1612Y2101D01*
X1612Y2103D01*
X1608Y2103D01*
X1608Y2105D01*
X1606Y2105D01*
X1606Y2107D01*
X1604Y2107D01*
X1604Y2109D01*
X1602Y2109D01*
X1602Y2111D01*
X1600Y2111D01*
X1600Y2113D01*
X1598Y2113D01*
X1598Y2117D01*
X1596Y2117D01*
X1596Y2121D01*
X1574Y2121D01*
G37*
D02*
G36*
X1674Y2121D02*
X1674Y2117D01*
X1672Y2117D01*
X1672Y2115D01*
X1670Y2115D01*
X1670Y2111D01*
X1668Y2111D01*
X1668Y2109D01*
X1666Y2109D01*
X1666Y2107D01*
X1664Y2107D01*
X1664Y2105D01*
X1662Y2105D01*
X1662Y2103D01*
X1658Y2103D01*
X1658Y2101D01*
X1654Y2101D01*
X1654Y2099D01*
X1650Y2099D01*
X1650Y2079D01*
X1654Y2079D01*
X1654Y2077D01*
X1658Y2077D01*
X1658Y2075D01*
X1660Y2075D01*
X1660Y2073D01*
X1662Y2073D01*
X1662Y2071D01*
X1666Y2071D01*
X1666Y2069D01*
X1668Y2069D01*
X1668Y2065D01*
X1670Y2065D01*
X1670Y2063D01*
X1672Y2063D01*
X1672Y2059D01*
X1674Y2059D01*
X1674Y2055D01*
X1694Y2055D01*
X1694Y2057D01*
X1696Y2057D01*
X1696Y2061D01*
X1698Y2061D01*
X1698Y2063D01*
X1700Y2063D01*
X1700Y2067D01*
X1702Y2067D01*
X1702Y2069D01*
X1704Y2069D01*
X1704Y2071D01*
X1706Y2071D01*
X1706Y2073D01*
X1710Y2073D01*
X1710Y2075D01*
X1712Y2075D01*
X1712Y2077D01*
X1716Y2077D01*
X1716Y2079D01*
X1718Y2079D01*
X1718Y2099D01*
X1714Y2099D01*
X1714Y2101D01*
X1712Y2101D01*
X1712Y2103D01*
X1708Y2103D01*
X1708Y2105D01*
X1706Y2105D01*
X1706Y2107D01*
X1704Y2107D01*
X1704Y2109D01*
X1702Y2109D01*
X1702Y2111D01*
X1700Y2111D01*
X1700Y2113D01*
X1698Y2113D01*
X1698Y2117D01*
X1696Y2117D01*
X1696Y2121D01*
X1674Y2121D01*
G37*
D02*
G36*
X1774Y2121D02*
X1774Y2117D01*
X1772Y2117D01*
X1772Y2115D01*
X1770Y2115D01*
X1770Y2111D01*
X1768Y2111D01*
X1768Y2109D01*
X1766Y2109D01*
X1766Y2107D01*
X1764Y2107D01*
X1764Y2105D01*
X1762Y2105D01*
X1762Y2103D01*
X1758Y2103D01*
X1758Y2101D01*
X1754Y2101D01*
X1754Y2099D01*
X1750Y2099D01*
X1750Y2079D01*
X1754Y2079D01*
X1754Y2077D01*
X1758Y2077D01*
X1758Y2075D01*
X1760Y2075D01*
X1760Y2073D01*
X1762Y2073D01*
X1762Y2071D01*
X1766Y2071D01*
X1766Y2069D01*
X1768Y2069D01*
X1768Y2065D01*
X1770Y2065D01*
X1770Y2063D01*
X1772Y2063D01*
X1772Y2059D01*
X1774Y2059D01*
X1774Y2055D01*
X1794Y2055D01*
X1794Y2057D01*
X1796Y2057D01*
X1796Y2061D01*
X1798Y2061D01*
X1798Y2063D01*
X1800Y2063D01*
X1800Y2067D01*
X1802Y2067D01*
X1802Y2069D01*
X1804Y2069D01*
X1804Y2071D01*
X1806Y2071D01*
X1806Y2073D01*
X1810Y2073D01*
X1810Y2075D01*
X1812Y2075D01*
X1812Y2077D01*
X1816Y2077D01*
X1816Y2079D01*
X1818Y2079D01*
X1818Y2099D01*
X1814Y2099D01*
X1814Y2101D01*
X1812Y2101D01*
X1812Y2103D01*
X1808Y2103D01*
X1808Y2105D01*
X1806Y2105D01*
X1806Y2107D01*
X1804Y2107D01*
X1804Y2109D01*
X1802Y2109D01*
X1802Y2111D01*
X1800Y2111D01*
X1800Y2113D01*
X1798Y2113D01*
X1798Y2117D01*
X1796Y2117D01*
X1796Y2121D01*
X1774Y2121D01*
G37*
D02*
G36*
X1874Y2121D02*
X1874Y2117D01*
X1872Y2117D01*
X1872Y2115D01*
X1870Y2115D01*
X1870Y2111D01*
X1868Y2111D01*
X1868Y2109D01*
X1866Y2109D01*
X1866Y2107D01*
X1864Y2107D01*
X1864Y2105D01*
X1862Y2105D01*
X1862Y2103D01*
X1858Y2103D01*
X1858Y2101D01*
X1854Y2101D01*
X1854Y2099D01*
X1850Y2099D01*
X1850Y2079D01*
X1854Y2079D01*
X1854Y2077D01*
X1858Y2077D01*
X1858Y2075D01*
X1860Y2075D01*
X1860Y2073D01*
X1862Y2073D01*
X1862Y2071D01*
X1866Y2071D01*
X1866Y2069D01*
X1868Y2069D01*
X1868Y2065D01*
X1870Y2065D01*
X1870Y2063D01*
X1872Y2063D01*
X1872Y2059D01*
X1874Y2059D01*
X1874Y2055D01*
X1894Y2055D01*
X1894Y2057D01*
X1896Y2057D01*
X1896Y2061D01*
X1898Y2061D01*
X1898Y2063D01*
X1900Y2063D01*
X1900Y2067D01*
X1902Y2067D01*
X1902Y2069D01*
X1904Y2069D01*
X1904Y2071D01*
X1906Y2071D01*
X1906Y2073D01*
X1910Y2073D01*
X1910Y2075D01*
X1912Y2075D01*
X1912Y2077D01*
X1916Y2077D01*
X1916Y2079D01*
X1918Y2079D01*
X1918Y2099D01*
X1914Y2099D01*
X1914Y2101D01*
X1912Y2101D01*
X1912Y2103D01*
X1908Y2103D01*
X1908Y2105D01*
X1906Y2105D01*
X1906Y2107D01*
X1904Y2107D01*
X1904Y2109D01*
X1902Y2109D01*
X1902Y2111D01*
X1900Y2111D01*
X1900Y2113D01*
X1898Y2113D01*
X1898Y2117D01*
X1896Y2117D01*
X1896Y2121D01*
X1874Y2121D01*
G37*
D02*
G36*
X1974Y2121D02*
X1974Y2117D01*
X1972Y2117D01*
X1972Y2115D01*
X1970Y2115D01*
X1970Y2111D01*
X1968Y2111D01*
X1968Y2109D01*
X1966Y2109D01*
X1966Y2107D01*
X1964Y2107D01*
X1964Y2105D01*
X1962Y2105D01*
X1962Y2103D01*
X1958Y2103D01*
X1958Y2101D01*
X1954Y2101D01*
X1954Y2099D01*
X1950Y2099D01*
X1950Y2079D01*
X1954Y2079D01*
X1954Y2077D01*
X1958Y2077D01*
X1958Y2075D01*
X1960Y2075D01*
X1960Y2073D01*
X1962Y2073D01*
X1962Y2071D01*
X1966Y2071D01*
X1966Y2069D01*
X1968Y2069D01*
X1968Y2065D01*
X1970Y2065D01*
X1970Y2063D01*
X1972Y2063D01*
X1972Y2059D01*
X1974Y2059D01*
X1974Y2055D01*
X1994Y2055D01*
X1994Y2057D01*
X1996Y2057D01*
X1996Y2061D01*
X1998Y2061D01*
X1998Y2063D01*
X2000Y2063D01*
X2000Y2067D01*
X2002Y2067D01*
X2002Y2069D01*
X2004Y2069D01*
X2004Y2071D01*
X2006Y2071D01*
X2006Y2073D01*
X2010Y2073D01*
X2010Y2075D01*
X2012Y2075D01*
X2012Y2077D01*
X2016Y2077D01*
X2016Y2079D01*
X2018Y2079D01*
X2018Y2099D01*
X2014Y2099D01*
X2014Y2101D01*
X2012Y2101D01*
X2012Y2103D01*
X2008Y2103D01*
X2008Y2105D01*
X2006Y2105D01*
X2006Y2107D01*
X2004Y2107D01*
X2004Y2109D01*
X2002Y2109D01*
X2002Y2111D01*
X2000Y2111D01*
X2000Y2113D01*
X1998Y2113D01*
X1998Y2117D01*
X1996Y2117D01*
X1996Y2121D01*
X1974Y2121D01*
G37*
D02*
G36*
X2074Y2121D02*
X2074Y2117D01*
X2072Y2117D01*
X2072Y2115D01*
X2070Y2115D01*
X2070Y2111D01*
X2068Y2111D01*
X2068Y2109D01*
X2066Y2109D01*
X2066Y2107D01*
X2064Y2107D01*
X2064Y2105D01*
X2062Y2105D01*
X2062Y2103D01*
X2058Y2103D01*
X2058Y2101D01*
X2054Y2101D01*
X2054Y2099D01*
X2050Y2099D01*
X2050Y2079D01*
X2054Y2079D01*
X2054Y2077D01*
X2058Y2077D01*
X2058Y2075D01*
X2060Y2075D01*
X2060Y2073D01*
X2062Y2073D01*
X2062Y2071D01*
X2066Y2071D01*
X2066Y2069D01*
X2068Y2069D01*
X2068Y2065D01*
X2070Y2065D01*
X2070Y2063D01*
X2072Y2063D01*
X2072Y2059D01*
X2074Y2059D01*
X2074Y2055D01*
X2094Y2055D01*
X2094Y2057D01*
X2096Y2057D01*
X2096Y2061D01*
X2098Y2061D01*
X2098Y2063D01*
X2100Y2063D01*
X2100Y2067D01*
X2102Y2067D01*
X2102Y2069D01*
X2104Y2069D01*
X2104Y2071D01*
X2106Y2071D01*
X2106Y2073D01*
X2110Y2073D01*
X2110Y2075D01*
X2112Y2075D01*
X2112Y2077D01*
X2116Y2077D01*
X2116Y2079D01*
X2118Y2079D01*
X2118Y2099D01*
X2114Y2099D01*
X2114Y2101D01*
X2112Y2101D01*
X2112Y2103D01*
X2108Y2103D01*
X2108Y2105D01*
X2106Y2105D01*
X2106Y2107D01*
X2104Y2107D01*
X2104Y2109D01*
X2102Y2109D01*
X2102Y2111D01*
X2100Y2111D01*
X2100Y2113D01*
X2098Y2113D01*
X2098Y2117D01*
X2096Y2117D01*
X2096Y2121D01*
X2074Y2121D01*
G37*
D02*
G36*
X2174Y2121D02*
X2174Y2117D01*
X2172Y2117D01*
X2172Y2115D01*
X2170Y2115D01*
X2170Y2111D01*
X2168Y2111D01*
X2168Y2109D01*
X2166Y2109D01*
X2166Y2107D01*
X2164Y2107D01*
X2164Y2105D01*
X2162Y2105D01*
X2162Y2103D01*
X2158Y2103D01*
X2158Y2101D01*
X2154Y2101D01*
X2154Y2099D01*
X2150Y2099D01*
X2150Y2079D01*
X2154Y2079D01*
X2154Y2077D01*
X2158Y2077D01*
X2158Y2075D01*
X2160Y2075D01*
X2160Y2073D01*
X2162Y2073D01*
X2162Y2071D01*
X2166Y2071D01*
X2166Y2069D01*
X2168Y2069D01*
X2168Y2065D01*
X2170Y2065D01*
X2170Y2063D01*
X2172Y2063D01*
X2172Y2059D01*
X2174Y2059D01*
X2174Y2055D01*
X2194Y2055D01*
X2194Y2057D01*
X2196Y2057D01*
X2196Y2061D01*
X2198Y2061D01*
X2198Y2063D01*
X2200Y2063D01*
X2200Y2067D01*
X2202Y2067D01*
X2202Y2069D01*
X2204Y2069D01*
X2204Y2071D01*
X2206Y2071D01*
X2206Y2073D01*
X2210Y2073D01*
X2210Y2075D01*
X2212Y2075D01*
X2212Y2077D01*
X2216Y2077D01*
X2216Y2079D01*
X2218Y2079D01*
X2218Y2099D01*
X2214Y2099D01*
X2214Y2101D01*
X2212Y2101D01*
X2212Y2103D01*
X2208Y2103D01*
X2208Y2105D01*
X2206Y2105D01*
X2206Y2107D01*
X2204Y2107D01*
X2204Y2109D01*
X2202Y2109D01*
X2202Y2111D01*
X2200Y2111D01*
X2200Y2113D01*
X2198Y2113D01*
X2198Y2117D01*
X2196Y2117D01*
X2196Y2121D01*
X2174Y2121D01*
G37*
D02*
G36*
X2278Y2167D02*
X2278Y2129D01*
X2276Y2129D01*
X2276Y2121D01*
X2274Y2121D01*
X2274Y2117D01*
X2272Y2117D01*
X2272Y2115D01*
X2270Y2115D01*
X2270Y2111D01*
X2268Y2111D01*
X2268Y2109D01*
X2266Y2109D01*
X2266Y2107D01*
X2264Y2107D01*
X2264Y2105D01*
X2262Y2105D01*
X2262Y2103D01*
X2258Y2103D01*
X2258Y2101D01*
X2254Y2101D01*
X2254Y2099D01*
X2250Y2099D01*
X2250Y2079D01*
X2254Y2079D01*
X2254Y2077D01*
X2258Y2077D01*
X2258Y2075D01*
X2260Y2075D01*
X2260Y2073D01*
X2262Y2073D01*
X2262Y2071D01*
X2266Y2071D01*
X2266Y2069D01*
X2268Y2069D01*
X2268Y2065D01*
X2270Y2065D01*
X2270Y2063D01*
X2272Y2063D01*
X2272Y2059D01*
X2274Y2059D01*
X2274Y2055D01*
X2276Y2055D01*
X2276Y2049D01*
X2278Y2049D01*
X2278Y2029D01*
X2276Y2029D01*
X2276Y2021D01*
X2274Y2021D01*
X2274Y2017D01*
X2272Y2017D01*
X2272Y2015D01*
X2270Y2015D01*
X2270Y2011D01*
X2268Y2011D01*
X2268Y2009D01*
X2266Y2009D01*
X2266Y2007D01*
X2264Y2007D01*
X2264Y2005D01*
X2262Y2005D01*
X2262Y2003D01*
X2258Y2003D01*
X2258Y2001D01*
X2254Y2001D01*
X2254Y1999D01*
X2250Y1999D01*
X2250Y1997D01*
X2244Y1997D01*
X2244Y1995D01*
X2356Y1995D01*
X2356Y1997D01*
X2352Y1997D01*
X2352Y1999D01*
X2350Y1999D01*
X2350Y2001D01*
X2348Y2001D01*
X2348Y2005D01*
X2346Y2005D01*
X2346Y2007D01*
X2344Y2007D01*
X2344Y2011D01*
X2342Y2011D01*
X2342Y2015D01*
X2340Y2015D01*
X2340Y2019D01*
X2338Y2019D01*
X2338Y2029D01*
X2336Y2029D01*
X2336Y2117D01*
X2338Y2117D01*
X2338Y2127D01*
X2340Y2127D01*
X2340Y2133D01*
X2342Y2133D01*
X2342Y2137D01*
X2344Y2137D01*
X2344Y2139D01*
X2346Y2139D01*
X2346Y2143D01*
X2348Y2143D01*
X2348Y2145D01*
X2350Y2145D01*
X2350Y2147D01*
X2352Y2147D01*
X2352Y2167D01*
X2278Y2167D01*
G37*
D02*
G36*
X374Y2021D02*
X374Y2017D01*
X372Y2017D01*
X372Y2015D01*
X370Y2015D01*
X370Y2011D01*
X368Y2011D01*
X368Y2009D01*
X366Y2009D01*
X366Y2007D01*
X364Y2007D01*
X364Y2005D01*
X362Y2005D01*
X362Y2003D01*
X358Y2003D01*
X358Y2001D01*
X354Y2001D01*
X354Y1999D01*
X350Y1999D01*
X350Y1997D01*
X344Y1997D01*
X344Y1995D01*
X426Y1995D01*
X426Y1997D01*
X418Y1997D01*
X418Y1999D01*
X414Y1999D01*
X414Y2001D01*
X412Y2001D01*
X412Y2003D01*
X408Y2003D01*
X408Y2005D01*
X406Y2005D01*
X406Y2007D01*
X404Y2007D01*
X404Y2009D01*
X402Y2009D01*
X402Y2011D01*
X400Y2011D01*
X400Y2013D01*
X398Y2013D01*
X398Y2017D01*
X396Y2017D01*
X396Y2021D01*
X374Y2021D01*
G37*
D02*
G36*
X474Y2021D02*
X474Y2017D01*
X472Y2017D01*
X472Y2015D01*
X470Y2015D01*
X470Y2011D01*
X468Y2011D01*
X468Y2009D01*
X466Y2009D01*
X466Y2007D01*
X464Y2007D01*
X464Y2005D01*
X462Y2005D01*
X462Y2003D01*
X458Y2003D01*
X458Y2001D01*
X454Y2001D01*
X454Y1999D01*
X450Y1999D01*
X450Y1997D01*
X444Y1997D01*
X444Y1995D01*
X526Y1995D01*
X526Y1997D01*
X518Y1997D01*
X518Y1999D01*
X514Y1999D01*
X514Y2001D01*
X512Y2001D01*
X512Y2003D01*
X508Y2003D01*
X508Y2005D01*
X506Y2005D01*
X506Y2007D01*
X504Y2007D01*
X504Y2009D01*
X502Y2009D01*
X502Y2011D01*
X500Y2011D01*
X500Y2013D01*
X498Y2013D01*
X498Y2017D01*
X496Y2017D01*
X496Y2021D01*
X474Y2021D01*
G37*
D02*
G36*
X574Y2021D02*
X574Y2017D01*
X572Y2017D01*
X572Y2015D01*
X570Y2015D01*
X570Y2011D01*
X568Y2011D01*
X568Y2009D01*
X566Y2009D01*
X566Y2007D01*
X564Y2007D01*
X564Y2005D01*
X562Y2005D01*
X562Y2003D01*
X558Y2003D01*
X558Y2001D01*
X554Y2001D01*
X554Y1999D01*
X550Y1999D01*
X550Y1997D01*
X544Y1997D01*
X544Y1995D01*
X626Y1995D01*
X626Y1997D01*
X618Y1997D01*
X618Y1999D01*
X614Y1999D01*
X614Y2001D01*
X612Y2001D01*
X612Y2003D01*
X608Y2003D01*
X608Y2005D01*
X606Y2005D01*
X606Y2007D01*
X604Y2007D01*
X604Y2009D01*
X602Y2009D01*
X602Y2011D01*
X600Y2011D01*
X600Y2013D01*
X598Y2013D01*
X598Y2017D01*
X596Y2017D01*
X596Y2021D01*
X574Y2021D01*
G37*
D02*
G36*
X674Y2021D02*
X674Y2017D01*
X672Y2017D01*
X672Y2015D01*
X670Y2015D01*
X670Y2011D01*
X668Y2011D01*
X668Y2009D01*
X666Y2009D01*
X666Y2007D01*
X664Y2007D01*
X664Y2005D01*
X662Y2005D01*
X662Y2003D01*
X658Y2003D01*
X658Y2001D01*
X654Y2001D01*
X654Y1999D01*
X650Y1999D01*
X650Y1997D01*
X644Y1997D01*
X644Y1995D01*
X726Y1995D01*
X726Y1997D01*
X718Y1997D01*
X718Y1999D01*
X714Y1999D01*
X714Y2001D01*
X712Y2001D01*
X712Y2003D01*
X708Y2003D01*
X708Y2005D01*
X706Y2005D01*
X706Y2007D01*
X704Y2007D01*
X704Y2009D01*
X702Y2009D01*
X702Y2011D01*
X700Y2011D01*
X700Y2013D01*
X698Y2013D01*
X698Y2017D01*
X696Y2017D01*
X696Y2021D01*
X674Y2021D01*
G37*
D02*
G36*
X774Y2021D02*
X774Y2017D01*
X772Y2017D01*
X772Y2015D01*
X770Y2015D01*
X770Y2011D01*
X768Y2011D01*
X768Y2009D01*
X766Y2009D01*
X766Y2007D01*
X764Y2007D01*
X764Y2005D01*
X762Y2005D01*
X762Y2003D01*
X758Y2003D01*
X758Y2001D01*
X754Y2001D01*
X754Y1999D01*
X750Y1999D01*
X750Y1997D01*
X744Y1997D01*
X744Y1995D01*
X826Y1995D01*
X826Y1997D01*
X818Y1997D01*
X818Y1999D01*
X814Y1999D01*
X814Y2001D01*
X812Y2001D01*
X812Y2003D01*
X808Y2003D01*
X808Y2005D01*
X806Y2005D01*
X806Y2007D01*
X804Y2007D01*
X804Y2009D01*
X802Y2009D01*
X802Y2011D01*
X800Y2011D01*
X800Y2013D01*
X798Y2013D01*
X798Y2017D01*
X796Y2017D01*
X796Y2021D01*
X774Y2021D01*
G37*
D02*
G36*
X874Y2021D02*
X874Y2017D01*
X872Y2017D01*
X872Y2015D01*
X870Y2015D01*
X870Y2011D01*
X868Y2011D01*
X868Y2009D01*
X866Y2009D01*
X866Y2007D01*
X864Y2007D01*
X864Y2005D01*
X862Y2005D01*
X862Y2003D01*
X858Y2003D01*
X858Y2001D01*
X854Y2001D01*
X854Y1999D01*
X850Y1999D01*
X850Y1997D01*
X844Y1997D01*
X844Y1995D01*
X926Y1995D01*
X926Y1997D01*
X918Y1997D01*
X918Y1999D01*
X914Y1999D01*
X914Y2001D01*
X912Y2001D01*
X912Y2003D01*
X908Y2003D01*
X908Y2005D01*
X906Y2005D01*
X906Y2007D01*
X904Y2007D01*
X904Y2009D01*
X902Y2009D01*
X902Y2011D01*
X900Y2011D01*
X900Y2013D01*
X898Y2013D01*
X898Y2017D01*
X896Y2017D01*
X896Y2021D01*
X874Y2021D01*
G37*
D02*
G36*
X974Y2021D02*
X974Y2017D01*
X972Y2017D01*
X972Y2015D01*
X970Y2015D01*
X970Y2011D01*
X968Y2011D01*
X968Y2009D01*
X966Y2009D01*
X966Y2007D01*
X964Y2007D01*
X964Y2005D01*
X962Y2005D01*
X962Y2003D01*
X958Y2003D01*
X958Y2001D01*
X954Y2001D01*
X954Y1999D01*
X950Y1999D01*
X950Y1997D01*
X944Y1997D01*
X944Y1995D01*
X1026Y1995D01*
X1026Y1997D01*
X1018Y1997D01*
X1018Y1999D01*
X1014Y1999D01*
X1014Y2001D01*
X1012Y2001D01*
X1012Y2003D01*
X1008Y2003D01*
X1008Y2005D01*
X1006Y2005D01*
X1006Y2007D01*
X1004Y2007D01*
X1004Y2009D01*
X1002Y2009D01*
X1002Y2011D01*
X1000Y2011D01*
X1000Y2013D01*
X998Y2013D01*
X998Y2017D01*
X996Y2017D01*
X996Y2021D01*
X974Y2021D01*
G37*
D02*
G36*
X1074Y2021D02*
X1074Y2017D01*
X1072Y2017D01*
X1072Y2015D01*
X1070Y2015D01*
X1070Y2011D01*
X1068Y2011D01*
X1068Y2009D01*
X1066Y2009D01*
X1066Y2007D01*
X1064Y2007D01*
X1064Y2005D01*
X1062Y2005D01*
X1062Y2003D01*
X1058Y2003D01*
X1058Y2001D01*
X1054Y2001D01*
X1054Y1999D01*
X1050Y1999D01*
X1050Y1997D01*
X1044Y1997D01*
X1044Y1995D01*
X1126Y1995D01*
X1126Y1997D01*
X1118Y1997D01*
X1118Y1999D01*
X1114Y1999D01*
X1114Y2001D01*
X1112Y2001D01*
X1112Y2003D01*
X1108Y2003D01*
X1108Y2005D01*
X1106Y2005D01*
X1106Y2007D01*
X1104Y2007D01*
X1104Y2009D01*
X1102Y2009D01*
X1102Y2011D01*
X1100Y2011D01*
X1100Y2013D01*
X1098Y2013D01*
X1098Y2017D01*
X1096Y2017D01*
X1096Y2021D01*
X1074Y2021D01*
G37*
D02*
G36*
X1174Y2021D02*
X1174Y2017D01*
X1172Y2017D01*
X1172Y2015D01*
X1170Y2015D01*
X1170Y2011D01*
X1168Y2011D01*
X1168Y2009D01*
X1166Y2009D01*
X1166Y2007D01*
X1164Y2007D01*
X1164Y2005D01*
X1162Y2005D01*
X1162Y2003D01*
X1158Y2003D01*
X1158Y2001D01*
X1154Y2001D01*
X1154Y1999D01*
X1150Y1999D01*
X1150Y1997D01*
X1144Y1997D01*
X1144Y1995D01*
X1226Y1995D01*
X1226Y1997D01*
X1218Y1997D01*
X1218Y1999D01*
X1214Y1999D01*
X1214Y2001D01*
X1212Y2001D01*
X1212Y2003D01*
X1208Y2003D01*
X1208Y2005D01*
X1206Y2005D01*
X1206Y2007D01*
X1204Y2007D01*
X1204Y2009D01*
X1202Y2009D01*
X1202Y2011D01*
X1200Y2011D01*
X1200Y2013D01*
X1198Y2013D01*
X1198Y2017D01*
X1196Y2017D01*
X1196Y2021D01*
X1174Y2021D01*
G37*
D02*
G36*
X1274Y2021D02*
X1274Y2017D01*
X1272Y2017D01*
X1272Y2015D01*
X1270Y2015D01*
X1270Y2011D01*
X1268Y2011D01*
X1268Y2009D01*
X1266Y2009D01*
X1266Y2007D01*
X1264Y2007D01*
X1264Y2005D01*
X1262Y2005D01*
X1262Y2003D01*
X1258Y2003D01*
X1258Y2001D01*
X1254Y2001D01*
X1254Y1999D01*
X1250Y1999D01*
X1250Y1997D01*
X1244Y1997D01*
X1244Y1995D01*
X1326Y1995D01*
X1326Y1997D01*
X1318Y1997D01*
X1318Y1999D01*
X1314Y1999D01*
X1314Y2001D01*
X1312Y2001D01*
X1312Y2003D01*
X1308Y2003D01*
X1308Y2005D01*
X1306Y2005D01*
X1306Y2007D01*
X1304Y2007D01*
X1304Y2009D01*
X1302Y2009D01*
X1302Y2011D01*
X1300Y2011D01*
X1300Y2013D01*
X1298Y2013D01*
X1298Y2017D01*
X1296Y2017D01*
X1296Y2021D01*
X1274Y2021D01*
G37*
D02*
G36*
X1374Y2021D02*
X1374Y2017D01*
X1372Y2017D01*
X1372Y2015D01*
X1370Y2015D01*
X1370Y2011D01*
X1368Y2011D01*
X1368Y2009D01*
X1366Y2009D01*
X1366Y2007D01*
X1364Y2007D01*
X1364Y2005D01*
X1362Y2005D01*
X1362Y2003D01*
X1358Y2003D01*
X1358Y2001D01*
X1354Y2001D01*
X1354Y1999D01*
X1350Y1999D01*
X1350Y1997D01*
X1344Y1997D01*
X1344Y1995D01*
X1426Y1995D01*
X1426Y1997D01*
X1418Y1997D01*
X1418Y1999D01*
X1414Y1999D01*
X1414Y2001D01*
X1412Y2001D01*
X1412Y2003D01*
X1408Y2003D01*
X1408Y2005D01*
X1406Y2005D01*
X1406Y2007D01*
X1404Y2007D01*
X1404Y2009D01*
X1402Y2009D01*
X1402Y2011D01*
X1400Y2011D01*
X1400Y2013D01*
X1398Y2013D01*
X1398Y2017D01*
X1396Y2017D01*
X1396Y2021D01*
X1374Y2021D01*
G37*
D02*
G36*
X1474Y2021D02*
X1474Y2017D01*
X1472Y2017D01*
X1472Y2015D01*
X1470Y2015D01*
X1470Y2011D01*
X1468Y2011D01*
X1468Y2009D01*
X1466Y2009D01*
X1466Y2007D01*
X1464Y2007D01*
X1464Y2005D01*
X1462Y2005D01*
X1462Y2003D01*
X1458Y2003D01*
X1458Y2001D01*
X1454Y2001D01*
X1454Y1999D01*
X1450Y1999D01*
X1450Y1997D01*
X1444Y1997D01*
X1444Y1995D01*
X1526Y1995D01*
X1526Y1997D01*
X1518Y1997D01*
X1518Y1999D01*
X1514Y1999D01*
X1514Y2001D01*
X1512Y2001D01*
X1512Y2003D01*
X1508Y2003D01*
X1508Y2005D01*
X1506Y2005D01*
X1506Y2007D01*
X1504Y2007D01*
X1504Y2009D01*
X1502Y2009D01*
X1502Y2011D01*
X1500Y2011D01*
X1500Y2013D01*
X1498Y2013D01*
X1498Y2017D01*
X1496Y2017D01*
X1496Y2021D01*
X1474Y2021D01*
G37*
D02*
G36*
X1574Y2021D02*
X1574Y2017D01*
X1572Y2017D01*
X1572Y2015D01*
X1570Y2015D01*
X1570Y2011D01*
X1568Y2011D01*
X1568Y2009D01*
X1566Y2009D01*
X1566Y2007D01*
X1564Y2007D01*
X1564Y2005D01*
X1562Y2005D01*
X1562Y2003D01*
X1558Y2003D01*
X1558Y2001D01*
X1554Y2001D01*
X1554Y1999D01*
X1550Y1999D01*
X1550Y1997D01*
X1544Y1997D01*
X1544Y1995D01*
X1626Y1995D01*
X1626Y1997D01*
X1618Y1997D01*
X1618Y1999D01*
X1614Y1999D01*
X1614Y2001D01*
X1612Y2001D01*
X1612Y2003D01*
X1608Y2003D01*
X1608Y2005D01*
X1606Y2005D01*
X1606Y2007D01*
X1604Y2007D01*
X1604Y2009D01*
X1602Y2009D01*
X1602Y2011D01*
X1600Y2011D01*
X1600Y2013D01*
X1598Y2013D01*
X1598Y2017D01*
X1596Y2017D01*
X1596Y2021D01*
X1574Y2021D01*
G37*
D02*
G36*
X1674Y2021D02*
X1674Y2017D01*
X1672Y2017D01*
X1672Y2015D01*
X1670Y2015D01*
X1670Y2011D01*
X1668Y2011D01*
X1668Y2009D01*
X1666Y2009D01*
X1666Y2007D01*
X1664Y2007D01*
X1664Y2005D01*
X1662Y2005D01*
X1662Y2003D01*
X1658Y2003D01*
X1658Y2001D01*
X1654Y2001D01*
X1654Y1999D01*
X1650Y1999D01*
X1650Y1997D01*
X1644Y1997D01*
X1644Y1995D01*
X1726Y1995D01*
X1726Y1997D01*
X1718Y1997D01*
X1718Y1999D01*
X1714Y1999D01*
X1714Y2001D01*
X1712Y2001D01*
X1712Y2003D01*
X1708Y2003D01*
X1708Y2005D01*
X1706Y2005D01*
X1706Y2007D01*
X1704Y2007D01*
X1704Y2009D01*
X1702Y2009D01*
X1702Y2011D01*
X1700Y2011D01*
X1700Y2013D01*
X1698Y2013D01*
X1698Y2017D01*
X1696Y2017D01*
X1696Y2021D01*
X1674Y2021D01*
G37*
D02*
G36*
X1774Y2021D02*
X1774Y2017D01*
X1772Y2017D01*
X1772Y2015D01*
X1770Y2015D01*
X1770Y2011D01*
X1768Y2011D01*
X1768Y2009D01*
X1766Y2009D01*
X1766Y2007D01*
X1764Y2007D01*
X1764Y2005D01*
X1762Y2005D01*
X1762Y2003D01*
X1758Y2003D01*
X1758Y2001D01*
X1754Y2001D01*
X1754Y1999D01*
X1750Y1999D01*
X1750Y1997D01*
X1744Y1997D01*
X1744Y1995D01*
X1826Y1995D01*
X1826Y1997D01*
X1818Y1997D01*
X1818Y1999D01*
X1814Y1999D01*
X1814Y2001D01*
X1812Y2001D01*
X1812Y2003D01*
X1808Y2003D01*
X1808Y2005D01*
X1806Y2005D01*
X1806Y2007D01*
X1804Y2007D01*
X1804Y2009D01*
X1802Y2009D01*
X1802Y2011D01*
X1800Y2011D01*
X1800Y2013D01*
X1798Y2013D01*
X1798Y2017D01*
X1796Y2017D01*
X1796Y2021D01*
X1774Y2021D01*
G37*
D02*
G36*
X1874Y2021D02*
X1874Y2017D01*
X1872Y2017D01*
X1872Y2015D01*
X1870Y2015D01*
X1870Y2011D01*
X1868Y2011D01*
X1868Y2009D01*
X1866Y2009D01*
X1866Y2007D01*
X1864Y2007D01*
X1864Y2005D01*
X1862Y2005D01*
X1862Y2003D01*
X1858Y2003D01*
X1858Y2001D01*
X1854Y2001D01*
X1854Y1999D01*
X1850Y1999D01*
X1850Y1997D01*
X1844Y1997D01*
X1844Y1995D01*
X1926Y1995D01*
X1926Y1997D01*
X1918Y1997D01*
X1918Y1999D01*
X1914Y1999D01*
X1914Y2001D01*
X1912Y2001D01*
X1912Y2003D01*
X1908Y2003D01*
X1908Y2005D01*
X1906Y2005D01*
X1906Y2007D01*
X1904Y2007D01*
X1904Y2009D01*
X1902Y2009D01*
X1902Y2011D01*
X1900Y2011D01*
X1900Y2013D01*
X1898Y2013D01*
X1898Y2017D01*
X1896Y2017D01*
X1896Y2021D01*
X1874Y2021D01*
G37*
D02*
G36*
X1974Y2021D02*
X1974Y2017D01*
X1972Y2017D01*
X1972Y2015D01*
X1970Y2015D01*
X1970Y2011D01*
X1968Y2011D01*
X1968Y2009D01*
X1966Y2009D01*
X1966Y2007D01*
X1964Y2007D01*
X1964Y2005D01*
X1962Y2005D01*
X1962Y2003D01*
X1958Y2003D01*
X1958Y2001D01*
X1954Y2001D01*
X1954Y1999D01*
X1950Y1999D01*
X1950Y1997D01*
X1944Y1997D01*
X1944Y1995D01*
X2026Y1995D01*
X2026Y1997D01*
X2018Y1997D01*
X2018Y1999D01*
X2014Y1999D01*
X2014Y2001D01*
X2012Y2001D01*
X2012Y2003D01*
X2008Y2003D01*
X2008Y2005D01*
X2006Y2005D01*
X2006Y2007D01*
X2004Y2007D01*
X2004Y2009D01*
X2002Y2009D01*
X2002Y2011D01*
X2000Y2011D01*
X2000Y2013D01*
X1998Y2013D01*
X1998Y2017D01*
X1996Y2017D01*
X1996Y2021D01*
X1974Y2021D01*
G37*
D02*
G36*
X2074Y2021D02*
X2074Y2017D01*
X2072Y2017D01*
X2072Y2015D01*
X2070Y2015D01*
X2070Y2011D01*
X2068Y2011D01*
X2068Y2009D01*
X2066Y2009D01*
X2066Y2007D01*
X2064Y2007D01*
X2064Y2005D01*
X2062Y2005D01*
X2062Y2003D01*
X2058Y2003D01*
X2058Y2001D01*
X2054Y2001D01*
X2054Y1999D01*
X2050Y1999D01*
X2050Y1997D01*
X2044Y1997D01*
X2044Y1995D01*
X2126Y1995D01*
X2126Y1997D01*
X2118Y1997D01*
X2118Y1999D01*
X2114Y1999D01*
X2114Y2001D01*
X2112Y2001D01*
X2112Y2003D01*
X2108Y2003D01*
X2108Y2005D01*
X2106Y2005D01*
X2106Y2007D01*
X2104Y2007D01*
X2104Y2009D01*
X2102Y2009D01*
X2102Y2011D01*
X2100Y2011D01*
X2100Y2013D01*
X2098Y2013D01*
X2098Y2017D01*
X2096Y2017D01*
X2096Y2021D01*
X2074Y2021D01*
G37*
D02*
G36*
X2174Y2021D02*
X2174Y2017D01*
X2172Y2017D01*
X2172Y2015D01*
X2170Y2015D01*
X2170Y2011D01*
X2168Y2011D01*
X2168Y2009D01*
X2166Y2009D01*
X2166Y2007D01*
X2164Y2007D01*
X2164Y2005D01*
X2162Y2005D01*
X2162Y2003D01*
X2158Y2003D01*
X2158Y2001D01*
X2154Y2001D01*
X2154Y1999D01*
X2150Y1999D01*
X2150Y1997D01*
X2144Y1997D01*
X2144Y1995D01*
X2226Y1995D01*
X2226Y1997D01*
X2218Y1997D01*
X2218Y1999D01*
X2214Y1999D01*
X2214Y2001D01*
X2212Y2001D01*
X2212Y2003D01*
X2208Y2003D01*
X2208Y2005D01*
X2206Y2005D01*
X2206Y2007D01*
X2204Y2007D01*
X2204Y2009D01*
X2202Y2009D01*
X2202Y2011D01*
X2200Y2011D01*
X2200Y2013D01*
X2198Y2013D01*
X2198Y2017D01*
X2196Y2017D01*
X2196Y2021D01*
X2174Y2021D01*
G37*
D02*
G36*
X282Y2011D02*
X282Y1995D01*
X326Y1995D01*
X326Y1997D01*
X318Y1997D01*
X318Y1999D01*
X314Y1999D01*
X314Y2001D01*
X312Y2001D01*
X312Y2003D01*
X308Y2003D01*
X308Y2005D01*
X306Y2005D01*
X306Y2007D01*
X304Y2007D01*
X304Y2009D01*
X302Y2009D01*
X302Y2011D01*
X282Y2011D01*
G37*
D02*
G36*
X218Y1997D02*
X218Y1995D01*
X216Y1995D01*
X216Y1993D01*
X214Y1993D01*
X214Y1991D01*
X212Y1991D01*
X212Y1989D01*
X208Y1989D01*
X208Y1987D01*
X204Y1987D01*
X204Y1985D01*
X200Y1985D01*
X200Y1983D01*
X194Y1983D01*
X194Y1981D01*
X238Y1981D01*
X238Y1997D01*
X218Y1997D01*
G37*
D02*
G36*
X282Y1995D02*
X282Y1993D01*
X2358Y1993D01*
X2358Y1995D01*
X282Y1995D01*
G37*
D02*
G36*
X282Y1995D02*
X282Y1993D01*
X2358Y1993D01*
X2358Y1995D01*
X282Y1995D01*
G37*
D02*
G36*
X282Y1995D02*
X282Y1993D01*
X2358Y1993D01*
X2358Y1995D01*
X282Y1995D01*
G37*
D02*
G36*
X282Y1995D02*
X282Y1993D01*
X2358Y1993D01*
X2358Y1995D01*
X282Y1995D01*
G37*
D02*
G36*
X282Y1995D02*
X282Y1993D01*
X2358Y1993D01*
X2358Y1995D01*
X282Y1995D01*
G37*
D02*
G36*
X282Y1995D02*
X282Y1993D01*
X2358Y1993D01*
X2358Y1995D01*
X282Y1995D01*
G37*
D02*
G36*
X282Y1995D02*
X282Y1993D01*
X2358Y1993D01*
X2358Y1995D01*
X282Y1995D01*
G37*
D02*
G36*
X282Y1995D02*
X282Y1993D01*
X2358Y1993D01*
X2358Y1995D01*
X282Y1995D01*
G37*
D02*
G36*
X282Y1995D02*
X282Y1993D01*
X2358Y1993D01*
X2358Y1995D01*
X282Y1995D01*
G37*
D02*
G36*
X282Y1995D02*
X282Y1993D01*
X2358Y1993D01*
X2358Y1995D01*
X282Y1995D01*
G37*
D02*
G36*
X282Y1995D02*
X282Y1993D01*
X2358Y1993D01*
X2358Y1995D01*
X282Y1995D01*
G37*
D02*
G36*
X282Y1995D02*
X282Y1993D01*
X2358Y1993D01*
X2358Y1995D01*
X282Y1995D01*
G37*
D02*
G36*
X282Y1995D02*
X282Y1993D01*
X2358Y1993D01*
X2358Y1995D01*
X282Y1995D01*
G37*
D02*
G36*
X282Y1995D02*
X282Y1993D01*
X2358Y1993D01*
X2358Y1995D01*
X282Y1995D01*
G37*
D02*
G36*
X282Y1995D02*
X282Y1993D01*
X2358Y1993D01*
X2358Y1995D01*
X282Y1995D01*
G37*
D02*
G36*
X282Y1995D02*
X282Y1993D01*
X2358Y1993D01*
X2358Y1995D01*
X282Y1995D01*
G37*
D02*
G36*
X282Y1995D02*
X282Y1993D01*
X2358Y1993D01*
X2358Y1995D01*
X282Y1995D01*
G37*
D02*
G36*
X282Y1995D02*
X282Y1993D01*
X2358Y1993D01*
X2358Y1995D01*
X282Y1995D01*
G37*
D02*
G36*
X282Y1995D02*
X282Y1993D01*
X2358Y1993D01*
X2358Y1995D01*
X282Y1995D01*
G37*
D02*
G36*
X282Y1995D02*
X282Y1993D01*
X2358Y1993D01*
X2358Y1995D01*
X282Y1995D01*
G37*
D02*
G36*
X282Y1995D02*
X282Y1993D01*
X2358Y1993D01*
X2358Y1995D01*
X282Y1995D01*
G37*
D02*
G36*
X48Y1993D02*
X48Y1981D01*
X90Y1981D01*
X90Y1983D01*
X82Y1983D01*
X82Y1985D01*
X78Y1985D01*
X78Y1987D01*
X74Y1987D01*
X74Y1989D01*
X72Y1989D01*
X72Y1991D01*
X70Y1991D01*
X70Y1993D01*
X48Y1993D01*
G37*
D02*
G36*
X282Y1993D02*
X282Y1985D01*
X2376Y1985D01*
X2376Y1987D01*
X2370Y1987D01*
X2370Y1989D01*
X2364Y1989D01*
X2364Y1991D01*
X2360Y1991D01*
X2360Y1993D01*
X282Y1993D01*
G37*
D02*
G36*
X2480Y1989D02*
X2480Y1987D01*
X2474Y1987D01*
X2474Y1985D01*
X2502Y1985D01*
X2502Y1989D01*
X2480Y1989D01*
G37*
D02*
G36*
X282Y1985D02*
X282Y1983D01*
X2502Y1983D01*
X2502Y1985D01*
X282Y1985D01*
G37*
D02*
G36*
X282Y1985D02*
X282Y1983D01*
X2502Y1983D01*
X2502Y1985D01*
X282Y1985D01*
G37*
D02*
G36*
X282Y1983D02*
X282Y1953D01*
X284Y1953D01*
X284Y1949D01*
X286Y1949D01*
X286Y1945D01*
X288Y1945D01*
X288Y1941D01*
X290Y1941D01*
X290Y1937D01*
X292Y1937D01*
X292Y1933D01*
X294Y1933D01*
X294Y1929D01*
X296Y1929D01*
X296Y1925D01*
X298Y1925D01*
X298Y1921D01*
X300Y1921D01*
X300Y1917D01*
X302Y1917D01*
X302Y1913D01*
X304Y1913D01*
X304Y1909D01*
X306Y1909D01*
X306Y1905D01*
X308Y1905D01*
X308Y1901D01*
X310Y1901D01*
X310Y1897D01*
X312Y1897D01*
X312Y1893D01*
X314Y1893D01*
X314Y1889D01*
X316Y1889D01*
X316Y1885D01*
X318Y1885D01*
X318Y1881D01*
X320Y1881D01*
X320Y1877D01*
X322Y1877D01*
X322Y1873D01*
X324Y1873D01*
X324Y1869D01*
X326Y1869D01*
X326Y1865D01*
X328Y1865D01*
X328Y1859D01*
X330Y1859D01*
X330Y1855D01*
X332Y1855D01*
X332Y1851D01*
X334Y1851D01*
X334Y1847D01*
X336Y1847D01*
X336Y1843D01*
X338Y1843D01*
X338Y1839D01*
X340Y1839D01*
X340Y1835D01*
X342Y1835D01*
X342Y1831D01*
X344Y1831D01*
X344Y1827D01*
X346Y1827D01*
X346Y1823D01*
X348Y1823D01*
X348Y1819D01*
X350Y1819D01*
X350Y1815D01*
X352Y1815D01*
X352Y1811D01*
X354Y1811D01*
X354Y1807D01*
X356Y1807D01*
X356Y1803D01*
X358Y1803D01*
X358Y1799D01*
X360Y1799D01*
X360Y1795D01*
X362Y1795D01*
X362Y1791D01*
X364Y1791D01*
X364Y1787D01*
X366Y1787D01*
X366Y1783D01*
X368Y1783D01*
X368Y1779D01*
X370Y1779D01*
X370Y1775D01*
X372Y1775D01*
X372Y1771D01*
X374Y1771D01*
X374Y1767D01*
X376Y1767D01*
X376Y1763D01*
X378Y1763D01*
X378Y1759D01*
X380Y1759D01*
X380Y1755D01*
X382Y1755D01*
X382Y1751D01*
X384Y1751D01*
X384Y1747D01*
X386Y1747D01*
X386Y1743D01*
X388Y1743D01*
X388Y1739D01*
X390Y1739D01*
X390Y1735D01*
X392Y1735D01*
X392Y1729D01*
X394Y1729D01*
X394Y1725D01*
X396Y1725D01*
X396Y1721D01*
X398Y1721D01*
X398Y1717D01*
X400Y1717D01*
X400Y1713D01*
X402Y1713D01*
X402Y1709D01*
X404Y1709D01*
X404Y1705D01*
X406Y1705D01*
X406Y1701D01*
X408Y1701D01*
X408Y1697D01*
X410Y1697D01*
X410Y1693D01*
X412Y1693D01*
X412Y1689D01*
X414Y1689D01*
X414Y1685D01*
X416Y1685D01*
X416Y1681D01*
X418Y1681D01*
X418Y1677D01*
X420Y1677D01*
X420Y1673D01*
X422Y1673D01*
X422Y1669D01*
X424Y1669D01*
X424Y1665D01*
X426Y1665D01*
X426Y1661D01*
X428Y1661D01*
X428Y1657D01*
X430Y1657D01*
X430Y1653D01*
X432Y1653D01*
X432Y1649D01*
X434Y1649D01*
X434Y1645D01*
X436Y1645D01*
X436Y1641D01*
X438Y1641D01*
X438Y1637D01*
X440Y1637D01*
X440Y1635D01*
X1710Y1635D01*
X1710Y1633D01*
X1714Y1633D01*
X1714Y1631D01*
X1716Y1631D01*
X1716Y1629D01*
X1718Y1629D01*
X1718Y1627D01*
X1720Y1627D01*
X1720Y1625D01*
X1722Y1625D01*
X1722Y1621D01*
X1724Y1621D01*
X1724Y1601D01*
X1726Y1601D01*
X1726Y1571D01*
X1728Y1571D01*
X1728Y1543D01*
X1730Y1543D01*
X1730Y1513D01*
X1732Y1513D01*
X1732Y1495D01*
X1764Y1495D01*
X1764Y1395D01*
X2502Y1395D01*
X2502Y1983D01*
X282Y1983D01*
G37*
D02*
G36*
X48Y1981D02*
X48Y1979D01*
X238Y1979D01*
X238Y1981D01*
X48Y1981D01*
G37*
D02*
G36*
X48Y1981D02*
X48Y1979D01*
X238Y1979D01*
X238Y1981D01*
X48Y1981D01*
G37*
D02*
G36*
X48Y1979D02*
X48Y1935D01*
X46Y1935D01*
X46Y1527D01*
X396Y1527D01*
X396Y1627D01*
X394Y1627D01*
X394Y1631D01*
X392Y1631D01*
X392Y1635D01*
X390Y1635D01*
X390Y1639D01*
X388Y1639D01*
X388Y1643D01*
X386Y1643D01*
X386Y1647D01*
X384Y1647D01*
X384Y1651D01*
X382Y1651D01*
X382Y1655D01*
X380Y1655D01*
X380Y1659D01*
X378Y1659D01*
X378Y1663D01*
X376Y1663D01*
X376Y1667D01*
X374Y1667D01*
X374Y1671D01*
X372Y1671D01*
X372Y1675D01*
X370Y1675D01*
X370Y1679D01*
X368Y1679D01*
X368Y1683D01*
X366Y1683D01*
X366Y1687D01*
X364Y1687D01*
X364Y1691D01*
X362Y1691D01*
X362Y1695D01*
X360Y1695D01*
X360Y1699D01*
X358Y1699D01*
X358Y1703D01*
X356Y1703D01*
X356Y1707D01*
X354Y1707D01*
X354Y1711D01*
X352Y1711D01*
X352Y1715D01*
X350Y1715D01*
X350Y1719D01*
X348Y1719D01*
X348Y1723D01*
X346Y1723D01*
X346Y1727D01*
X344Y1727D01*
X344Y1731D01*
X342Y1731D01*
X342Y1735D01*
X340Y1735D01*
X340Y1741D01*
X338Y1741D01*
X338Y1745D01*
X336Y1745D01*
X336Y1749D01*
X334Y1749D01*
X334Y1753D01*
X332Y1753D01*
X332Y1757D01*
X330Y1757D01*
X330Y1761D01*
X328Y1761D01*
X328Y1765D01*
X326Y1765D01*
X326Y1769D01*
X324Y1769D01*
X324Y1773D01*
X322Y1773D01*
X322Y1777D01*
X320Y1777D01*
X320Y1781D01*
X318Y1781D01*
X318Y1785D01*
X316Y1785D01*
X316Y1789D01*
X314Y1789D01*
X314Y1793D01*
X312Y1793D01*
X312Y1797D01*
X310Y1797D01*
X310Y1801D01*
X308Y1801D01*
X308Y1805D01*
X306Y1805D01*
X306Y1809D01*
X304Y1809D01*
X304Y1813D01*
X302Y1813D01*
X302Y1817D01*
X300Y1817D01*
X300Y1821D01*
X298Y1821D01*
X298Y1825D01*
X296Y1825D01*
X296Y1829D01*
X294Y1829D01*
X294Y1833D01*
X292Y1833D01*
X292Y1837D01*
X290Y1837D01*
X290Y1841D01*
X288Y1841D01*
X288Y1845D01*
X286Y1845D01*
X286Y1849D01*
X284Y1849D01*
X284Y1853D01*
X282Y1853D01*
X282Y1857D01*
X280Y1857D01*
X280Y1861D01*
X278Y1861D01*
X278Y1865D01*
X276Y1865D01*
X276Y1871D01*
X274Y1871D01*
X274Y1875D01*
X272Y1875D01*
X272Y1879D01*
X270Y1879D01*
X270Y1883D01*
X268Y1883D01*
X268Y1887D01*
X266Y1887D01*
X266Y1891D01*
X264Y1891D01*
X264Y1895D01*
X262Y1895D01*
X262Y1899D01*
X260Y1899D01*
X260Y1903D01*
X258Y1903D01*
X258Y1907D01*
X256Y1907D01*
X256Y1911D01*
X254Y1911D01*
X254Y1915D01*
X252Y1915D01*
X252Y1919D01*
X250Y1919D01*
X250Y1923D01*
X248Y1923D01*
X248Y1927D01*
X246Y1927D01*
X246Y1931D01*
X244Y1931D01*
X244Y1935D01*
X242Y1935D01*
X242Y1939D01*
X240Y1939D01*
X240Y1949D01*
X238Y1949D01*
X238Y1979D01*
X48Y1979D01*
G37*
D02*
G36*
X440Y1635D02*
X440Y1633D01*
X442Y1633D01*
X442Y1629D01*
X444Y1629D01*
X444Y1625D01*
X1094Y1625D01*
X1094Y1601D01*
X1114Y1601D01*
X1114Y1603D01*
X1150Y1603D01*
X1150Y1605D01*
X1184Y1605D01*
X1184Y1607D01*
X1220Y1607D01*
X1220Y1609D01*
X1254Y1609D01*
X1254Y1611D01*
X1290Y1611D01*
X1290Y1613D01*
X1324Y1613D01*
X1324Y1615D01*
X1360Y1615D01*
X1360Y1617D01*
X1394Y1617D01*
X1394Y1619D01*
X1430Y1619D01*
X1430Y1621D01*
X1464Y1621D01*
X1464Y1623D01*
X1500Y1623D01*
X1500Y1625D01*
X1534Y1625D01*
X1534Y1627D01*
X1570Y1627D01*
X1570Y1629D01*
X1604Y1629D01*
X1604Y1631D01*
X1638Y1631D01*
X1638Y1633D01*
X1674Y1633D01*
X1674Y1635D01*
X440Y1635D01*
G37*
D02*
G36*
X492Y1625D02*
X492Y1623D01*
X494Y1623D01*
X494Y1527D01*
X996Y1527D01*
X996Y1625D01*
X492Y1625D01*
G37*
D02*
G36*
X1640Y1589D02*
X1640Y1587D01*
X1606Y1587D01*
X1606Y1585D01*
X1570Y1585D01*
X1570Y1583D01*
X1536Y1583D01*
X1536Y1581D01*
X1500Y1581D01*
X1500Y1579D01*
X1466Y1579D01*
X1466Y1577D01*
X1430Y1577D01*
X1430Y1575D01*
X1396Y1575D01*
X1396Y1573D01*
X1360Y1573D01*
X1360Y1571D01*
X1326Y1571D01*
X1326Y1569D01*
X1290Y1569D01*
X1290Y1567D01*
X1256Y1567D01*
X1256Y1565D01*
X1222Y1565D01*
X1222Y1563D01*
X1186Y1563D01*
X1186Y1561D01*
X1152Y1561D01*
X1152Y1559D01*
X1116Y1559D01*
X1116Y1557D01*
X1094Y1557D01*
X1094Y1527D01*
X1686Y1527D01*
X1686Y1541D01*
X1684Y1541D01*
X1684Y1569D01*
X1682Y1569D01*
X1682Y1589D01*
X1640Y1589D01*
G37*
D02*
G36*
X46Y1527D02*
X46Y1525D01*
X1686Y1525D01*
X1686Y1527D01*
X46Y1527D01*
G37*
D02*
G36*
X46Y1527D02*
X46Y1525D01*
X1686Y1525D01*
X1686Y1527D01*
X46Y1527D01*
G37*
D02*
G36*
X46Y1527D02*
X46Y1525D01*
X1686Y1525D01*
X1686Y1527D01*
X46Y1527D01*
G37*
D02*
G36*
X46Y1525D02*
X46Y1495D01*
X1518Y1495D01*
X1518Y1493D01*
X1528Y1493D01*
X1528Y1491D01*
X1534Y1491D01*
X1534Y1489D01*
X1538Y1489D01*
X1538Y1487D01*
X1540Y1487D01*
X1540Y1485D01*
X1544Y1485D01*
X1544Y1483D01*
X1546Y1483D01*
X1546Y1481D01*
X1548Y1481D01*
X1548Y1479D01*
X1550Y1479D01*
X1550Y1477D01*
X1552Y1477D01*
X1552Y1475D01*
X1554Y1475D01*
X1554Y1473D01*
X1556Y1473D01*
X1556Y1469D01*
X1558Y1469D01*
X1558Y1465D01*
X1560Y1465D01*
X1560Y1461D01*
X1562Y1461D01*
X1562Y1451D01*
X1564Y1451D01*
X1564Y1437D01*
X1562Y1437D01*
X1562Y1429D01*
X1560Y1429D01*
X1560Y1423D01*
X1558Y1423D01*
X1558Y1419D01*
X1556Y1419D01*
X1556Y1417D01*
X1554Y1417D01*
X1554Y1413D01*
X1552Y1413D01*
X1552Y1411D01*
X1550Y1411D01*
X1550Y1409D01*
X1548Y1409D01*
X1548Y1407D01*
X1546Y1407D01*
X1546Y1405D01*
X1544Y1405D01*
X1544Y1403D01*
X1540Y1403D01*
X1540Y1401D01*
X1536Y1401D01*
X1536Y1399D01*
X1532Y1399D01*
X1532Y1397D01*
X1526Y1397D01*
X1526Y1395D01*
X1664Y1395D01*
X1664Y1495D01*
X1686Y1495D01*
X1686Y1525D01*
X46Y1525D01*
G37*
D02*
G36*
X46Y1495D02*
X46Y1265D01*
X494Y1265D01*
X494Y1169D01*
X492Y1169D01*
X492Y1167D01*
X996Y1167D01*
X996Y1265D01*
X1096Y1265D01*
X1096Y1267D01*
X1102Y1267D01*
X1102Y1269D01*
X1106Y1269D01*
X1106Y1271D01*
X1110Y1271D01*
X1110Y1273D01*
X1114Y1273D01*
X1114Y1275D01*
X1118Y1275D01*
X1118Y1277D01*
X1122Y1277D01*
X1122Y1279D01*
X1126Y1279D01*
X1126Y1281D01*
X1130Y1281D01*
X1130Y1283D01*
X1134Y1283D01*
X1134Y1285D01*
X1138Y1285D01*
X1138Y1287D01*
X1142Y1287D01*
X1142Y1289D01*
X1146Y1289D01*
X1146Y1291D01*
X1150Y1291D01*
X1150Y1293D01*
X1154Y1293D01*
X1154Y1295D01*
X1158Y1295D01*
X1158Y1297D01*
X1162Y1297D01*
X1162Y1299D01*
X1166Y1299D01*
X1166Y1301D01*
X1170Y1301D01*
X1170Y1303D01*
X1176Y1303D01*
X1176Y1305D01*
X1180Y1305D01*
X1180Y1307D01*
X1184Y1307D01*
X1184Y1309D01*
X1188Y1309D01*
X1188Y1311D01*
X1192Y1311D01*
X1192Y1313D01*
X1196Y1313D01*
X1196Y1315D01*
X1200Y1315D01*
X1200Y1317D01*
X1204Y1317D01*
X1204Y1319D01*
X1208Y1319D01*
X1208Y1321D01*
X1212Y1321D01*
X1212Y1323D01*
X1216Y1323D01*
X1216Y1325D01*
X1220Y1325D01*
X1220Y1327D01*
X1224Y1327D01*
X1224Y1329D01*
X1228Y1329D01*
X1228Y1331D01*
X1232Y1331D01*
X1232Y1333D01*
X1236Y1333D01*
X1236Y1335D01*
X1240Y1335D01*
X1240Y1337D01*
X1246Y1337D01*
X1246Y1339D01*
X1250Y1339D01*
X1250Y1341D01*
X1254Y1341D01*
X1254Y1343D01*
X1258Y1343D01*
X1258Y1345D01*
X1262Y1345D01*
X1262Y1347D01*
X1266Y1347D01*
X1266Y1349D01*
X1270Y1349D01*
X1270Y1351D01*
X1274Y1351D01*
X1274Y1353D01*
X1278Y1353D01*
X1278Y1355D01*
X1282Y1355D01*
X1282Y1357D01*
X1286Y1357D01*
X1286Y1359D01*
X1290Y1359D01*
X1290Y1361D01*
X1294Y1361D01*
X1294Y1363D01*
X1298Y1363D01*
X1298Y1365D01*
X1302Y1365D01*
X1302Y1367D01*
X1306Y1367D01*
X1306Y1369D01*
X1310Y1369D01*
X1310Y1371D01*
X1314Y1371D01*
X1314Y1373D01*
X1320Y1373D01*
X1320Y1375D01*
X1324Y1375D01*
X1324Y1377D01*
X1328Y1377D01*
X1328Y1379D01*
X1332Y1379D01*
X1332Y1381D01*
X1336Y1381D01*
X1336Y1383D01*
X1340Y1383D01*
X1340Y1385D01*
X1344Y1385D01*
X1344Y1387D01*
X1348Y1387D01*
X1348Y1389D01*
X1352Y1389D01*
X1352Y1391D01*
X1356Y1391D01*
X1356Y1393D01*
X1360Y1393D01*
X1360Y1395D01*
X1364Y1395D01*
X1364Y1397D01*
X1368Y1397D01*
X1368Y1399D01*
X1372Y1399D01*
X1372Y1401D01*
X1376Y1401D01*
X1376Y1403D01*
X1380Y1403D01*
X1380Y1405D01*
X1384Y1405D01*
X1384Y1407D01*
X1388Y1407D01*
X1388Y1409D01*
X1394Y1409D01*
X1394Y1411D01*
X1398Y1411D01*
X1398Y1413D01*
X1402Y1413D01*
X1402Y1415D01*
X1406Y1415D01*
X1406Y1417D01*
X1410Y1417D01*
X1410Y1419D01*
X1414Y1419D01*
X1414Y1421D01*
X1418Y1421D01*
X1418Y1423D01*
X1422Y1423D01*
X1422Y1425D01*
X1426Y1425D01*
X1426Y1427D01*
X1430Y1427D01*
X1430Y1429D01*
X1434Y1429D01*
X1434Y1431D01*
X1438Y1431D01*
X1438Y1433D01*
X1442Y1433D01*
X1442Y1435D01*
X1446Y1435D01*
X1446Y1437D01*
X1450Y1437D01*
X1450Y1439D01*
X1454Y1439D01*
X1454Y1441D01*
X1458Y1441D01*
X1458Y1443D01*
X1462Y1443D01*
X1462Y1445D01*
X1464Y1445D01*
X1464Y1455D01*
X1466Y1455D01*
X1466Y1461D01*
X1468Y1461D01*
X1468Y1467D01*
X1470Y1467D01*
X1470Y1469D01*
X1472Y1469D01*
X1472Y1473D01*
X1474Y1473D01*
X1474Y1475D01*
X1476Y1475D01*
X1476Y1477D01*
X1478Y1477D01*
X1478Y1481D01*
X1482Y1481D01*
X1482Y1483D01*
X1484Y1483D01*
X1484Y1485D01*
X1486Y1485D01*
X1486Y1487D01*
X1490Y1487D01*
X1490Y1489D01*
X1494Y1489D01*
X1494Y1491D01*
X1500Y1491D01*
X1500Y1493D01*
X1510Y1493D01*
X1510Y1495D01*
X46Y1495D01*
G37*
D02*
G36*
X1468Y1399D02*
X1468Y1397D01*
X1464Y1397D01*
X1464Y1395D01*
X1502Y1395D01*
X1502Y1397D01*
X1494Y1397D01*
X1494Y1399D01*
X1468Y1399D01*
G37*
D02*
G36*
X1460Y1395D02*
X1460Y1393D01*
X2502Y1393D01*
X2502Y1395D01*
X1460Y1395D01*
G37*
D02*
G36*
X1460Y1395D02*
X1460Y1393D01*
X2502Y1393D01*
X2502Y1395D01*
X1460Y1395D01*
G37*
D02*
G36*
X1460Y1395D02*
X1460Y1393D01*
X2502Y1393D01*
X2502Y1395D01*
X1460Y1395D01*
G37*
D02*
G36*
X1456Y1393D02*
X1456Y1391D01*
X1452Y1391D01*
X1452Y1389D01*
X1448Y1389D01*
X1448Y1387D01*
X1444Y1387D01*
X1444Y1385D01*
X1440Y1385D01*
X1440Y1383D01*
X1436Y1383D01*
X1436Y1381D01*
X1432Y1381D01*
X1432Y1379D01*
X1428Y1379D01*
X1428Y1377D01*
X1424Y1377D01*
X1424Y1375D01*
X1420Y1375D01*
X1420Y1373D01*
X1416Y1373D01*
X1416Y1371D01*
X1412Y1371D01*
X1412Y1369D01*
X1408Y1369D01*
X1408Y1367D01*
X1404Y1367D01*
X1404Y1365D01*
X1400Y1365D01*
X1400Y1363D01*
X1394Y1363D01*
X1394Y1361D01*
X1390Y1361D01*
X1390Y1359D01*
X1386Y1359D01*
X1386Y1357D01*
X1382Y1357D01*
X1382Y1355D01*
X1378Y1355D01*
X1378Y1353D01*
X1374Y1353D01*
X1374Y1351D01*
X1370Y1351D01*
X1370Y1349D01*
X1366Y1349D01*
X1366Y1347D01*
X1362Y1347D01*
X1362Y1345D01*
X1358Y1345D01*
X1358Y1343D01*
X1354Y1343D01*
X1354Y1341D01*
X1350Y1341D01*
X1350Y1339D01*
X1346Y1339D01*
X1346Y1337D01*
X1342Y1337D01*
X1342Y1335D01*
X1338Y1335D01*
X1338Y1333D01*
X1334Y1333D01*
X1334Y1331D01*
X1330Y1331D01*
X1330Y1329D01*
X1326Y1329D01*
X1326Y1327D01*
X1320Y1327D01*
X1320Y1325D01*
X1316Y1325D01*
X1316Y1323D01*
X1312Y1323D01*
X1312Y1321D01*
X1308Y1321D01*
X1308Y1319D01*
X1304Y1319D01*
X1304Y1317D01*
X1300Y1317D01*
X1300Y1315D01*
X1296Y1315D01*
X1296Y1313D01*
X1292Y1313D01*
X1292Y1311D01*
X1288Y1311D01*
X1288Y1309D01*
X1284Y1309D01*
X1284Y1307D01*
X1280Y1307D01*
X1280Y1305D01*
X1276Y1305D01*
X1276Y1303D01*
X1272Y1303D01*
X1272Y1301D01*
X1268Y1301D01*
X1268Y1299D01*
X1264Y1299D01*
X1264Y1297D01*
X1260Y1297D01*
X1260Y1295D01*
X1256Y1295D01*
X1256Y1293D01*
X1252Y1293D01*
X1252Y1291D01*
X1246Y1291D01*
X1246Y1289D01*
X1242Y1289D01*
X1242Y1287D01*
X1238Y1287D01*
X1238Y1285D01*
X1234Y1285D01*
X1234Y1283D01*
X1230Y1283D01*
X1230Y1281D01*
X1226Y1281D01*
X1226Y1279D01*
X1222Y1279D01*
X1222Y1277D01*
X1218Y1277D01*
X1218Y1275D01*
X1214Y1275D01*
X1214Y1273D01*
X1210Y1273D01*
X1210Y1271D01*
X1206Y1271D01*
X1206Y1269D01*
X1202Y1269D01*
X1202Y1267D01*
X1198Y1267D01*
X1198Y1265D01*
X1194Y1265D01*
X1194Y1263D01*
X1190Y1263D01*
X1190Y1261D01*
X1186Y1261D01*
X1186Y1259D01*
X1182Y1259D01*
X1182Y1257D01*
X1178Y1257D01*
X1178Y1255D01*
X1172Y1255D01*
X1172Y1253D01*
X1168Y1253D01*
X1168Y1251D01*
X1164Y1251D01*
X1164Y1249D01*
X1160Y1249D01*
X1160Y1247D01*
X1156Y1247D01*
X1156Y1245D01*
X1152Y1245D01*
X1152Y1243D01*
X1148Y1243D01*
X1148Y1241D01*
X1144Y1241D01*
X1144Y1239D01*
X1140Y1239D01*
X1140Y1237D01*
X1136Y1237D01*
X1136Y1235D01*
X1132Y1235D01*
X1132Y1233D01*
X1128Y1233D01*
X1128Y1231D01*
X1124Y1231D01*
X1124Y1229D01*
X1120Y1229D01*
X1120Y1227D01*
X1116Y1227D01*
X1116Y1225D01*
X1112Y1225D01*
X1112Y1223D01*
X1108Y1223D01*
X1108Y1221D01*
X1102Y1221D01*
X1102Y1219D01*
X1098Y1219D01*
X1098Y1217D01*
X1094Y1217D01*
X1094Y1167D01*
X2502Y1167D01*
X2502Y1393D01*
X1456Y1393D01*
G37*
D02*
G36*
X46Y1265D02*
X46Y1167D01*
X396Y1167D01*
X396Y1265D01*
X46Y1265D01*
G37*
D02*
G36*
X46Y1167D02*
X46Y1165D01*
X2502Y1165D01*
X2502Y1167D01*
X46Y1167D01*
G37*
D02*
G36*
X46Y1167D02*
X46Y1165D01*
X2502Y1165D01*
X2502Y1167D01*
X46Y1167D01*
G37*
D02*
G36*
X46Y1167D02*
X46Y1165D01*
X2502Y1165D01*
X2502Y1167D01*
X46Y1167D01*
G37*
D02*
G36*
X46Y1165D02*
X46Y285D01*
X48Y285D01*
X48Y235D01*
X188Y235D01*
X188Y233D01*
X2470Y233D01*
X2470Y231D01*
X2480Y231D01*
X2480Y229D01*
X2500Y229D01*
X2500Y495D01*
X2502Y495D01*
X2502Y1165D01*
X46Y1165D01*
G37*
D02*
G36*
X48Y235D02*
X48Y221D01*
X70Y221D01*
X70Y223D01*
X72Y223D01*
X72Y225D01*
X74Y225D01*
X74Y227D01*
X78Y227D01*
X78Y229D01*
X82Y229D01*
X82Y231D01*
X86Y231D01*
X86Y233D01*
X96Y233D01*
X96Y235D01*
X48Y235D01*
G37*
D02*
G36*
X196Y233D02*
X196Y231D01*
X202Y231D01*
X202Y229D01*
X206Y229D01*
X206Y227D01*
X208Y227D01*
X208Y225D01*
X212Y225D01*
X212Y223D01*
X214Y223D01*
X214Y221D01*
X216Y221D01*
X216Y219D01*
X218Y219D01*
X218Y217D01*
X220Y217D01*
X220Y215D01*
X222Y215D01*
X222Y213D01*
X224Y213D01*
X224Y209D01*
X226Y209D01*
X226Y205D01*
X228Y205D01*
X228Y201D01*
X230Y201D01*
X230Y193D01*
X232Y193D01*
X232Y95D01*
X230Y95D01*
X230Y89D01*
X228Y89D01*
X228Y83D01*
X226Y83D01*
X226Y79D01*
X224Y79D01*
X224Y77D01*
X222Y77D01*
X222Y73D01*
X220Y73D01*
X220Y71D01*
X218Y71D01*
X218Y51D01*
X262Y51D01*
X262Y49D01*
X2354Y49D01*
X2354Y69D01*
X2352Y69D01*
X2352Y71D01*
X2350Y71D01*
X2350Y73D01*
X2348Y73D01*
X2348Y75D01*
X2346Y75D01*
X2346Y77D01*
X2344Y77D01*
X2344Y81D01*
X2342Y81D01*
X2342Y85D01*
X2340Y85D01*
X2340Y91D01*
X2338Y91D01*
X2338Y99D01*
X2336Y99D01*
X2336Y189D01*
X2338Y189D01*
X2338Y199D01*
X2340Y199D01*
X2340Y203D01*
X2342Y203D01*
X2342Y207D01*
X2344Y207D01*
X2344Y211D01*
X2346Y211D01*
X2346Y213D01*
X2348Y213D01*
X2348Y215D01*
X2350Y215D01*
X2350Y217D01*
X2352Y217D01*
X2352Y219D01*
X2354Y219D01*
X2354Y221D01*
X2356Y221D01*
X2356Y223D01*
X2358Y223D01*
X2358Y225D01*
X2362Y225D01*
X2362Y227D01*
X2366Y227D01*
X2366Y229D01*
X2370Y229D01*
X2370Y231D01*
X2380Y231D01*
X2380Y233D01*
X196Y233D01*
G37*
D02*
G04 End of Copper0*
M02*