; NON-PLATED HOLES START AT T1
; THROUGH (PLATED) HOLES START AT T100
M48
INCH
T100C0.040000
T101C0.038000
T102C0.027559
%
T100
X017137Y014443
X015137Y014443
T101
X004443Y015760
X010443Y012160
X010443Y015760
X004443Y012160
T102
X013347Y020388
X018347Y020388
X003347Y021388
X021347Y021388
X011347Y020388
X022347Y021388
X008347Y021388
X012347Y020388
X017347Y021388
X006347Y020388
X004347Y020388
X020347Y021388
X009347Y021388
X010347Y020388
X005347Y021388
X016347Y021388
X014347Y021388
X007347Y020388
X019347Y020388
X015347Y020388
X005347Y020388
X009347Y020388
X010347Y021388
X020347Y020388
X004347Y021388
X006347Y021388
X017347Y020388
X015347Y021388
X019347Y021388
X007347Y021388
X014347Y020388
X016347Y020388
X018347Y021388
X013347Y021388
X012347Y021388
X008347Y020388
X022347Y020388
X011347Y021388
X021347Y020388
X003347Y020388
T00
M30
