G04 MADE WITH FRITZING*
G04 WWW.FRITZING.ORG*
G04 DOUBLE SIDED*
G04 HOLES PLATED*
G04 CONTOUR ON CENTER OF CONTOUR VECTOR*
%ASAXBY*%
%FSLAX23Y23*%
%MOIN*%
%OFA0B0*%
%SFA1.0B1.0*%
%ADD10C,0.075000*%
%ADD11C,0.078000*%
%ADD12C,0.080000*%
%ADD13C,0.067559*%
%ADD14R,0.077630X0.077806*%
%ADD15R,0.080000X0.080000*%
%ADD16C,0.024000*%
%ADD17C,0.000100*%
%LNCOPPER1*%
G90*
G70*
G54D10*
X695Y1906D03*
G54D11*
X1044Y1216D03*
X1044Y1576D03*
X444Y1576D03*
X444Y1216D03*
G54D12*
X1714Y1444D03*
X1514Y1444D03*
G54D13*
X335Y2039D03*
X435Y2039D03*
X535Y2039D03*
X635Y2039D03*
X735Y2039D03*
X835Y2039D03*
X935Y2039D03*
X1035Y2039D03*
X1135Y2039D03*
X1235Y2039D03*
X1335Y2039D03*
X1435Y2039D03*
X1535Y2039D03*
X1635Y2039D03*
X1735Y2039D03*
X1835Y2039D03*
X1935Y2039D03*
X2035Y2039D03*
X2135Y2039D03*
X2235Y2039D03*
X335Y2039D03*
X435Y2039D03*
X535Y2039D03*
X635Y2039D03*
X735Y2039D03*
X835Y2039D03*
X935Y2039D03*
X1035Y2039D03*
X1135Y2039D03*
X1235Y2039D03*
X1335Y2039D03*
X1435Y2039D03*
X1535Y2039D03*
X1635Y2039D03*
X1735Y2039D03*
X1835Y2039D03*
X1935Y2039D03*
X2035Y2039D03*
X2135Y2039D03*
X2235Y2039D03*
X2235Y2139D03*
X2135Y2139D03*
X2035Y2139D03*
X1935Y2139D03*
X1835Y2139D03*
X1735Y2139D03*
X1635Y2139D03*
X1535Y2139D03*
X1435Y2139D03*
X1335Y2139D03*
X1235Y2139D03*
X1135Y2139D03*
X1035Y2139D03*
X935Y2139D03*
X835Y2139D03*
X735Y2139D03*
X635Y2139D03*
X535Y2139D03*
X435Y2139D03*
X335Y2139D03*
G54D14*
X444Y1576D03*
X444Y1217D03*
X1045Y1216D03*
X1044Y1576D03*
G54D15*
X1714Y1444D03*
G54D16*
X590Y1977D02*
X640Y1834D01*
D02*
X581Y2089D02*
X590Y1977D01*
D02*
X640Y1834D02*
X650Y1464D01*
D02*
X650Y1464D02*
X456Y1231D01*
D02*
X544Y2129D02*
X581Y2089D01*
G54D17*
G36*
X374Y2121D02*
X374Y2117D01*
X372Y2117D01*
X372Y2115D01*
X370Y2115D01*
X370Y2111D01*
X368Y2111D01*
X368Y2109D01*
X366Y2109D01*
X366Y2107D01*
X364Y2107D01*
X364Y2105D01*
X362Y2105D01*
X362Y2103D01*
X358Y2103D01*
X358Y2101D01*
X354Y2101D01*
X354Y2099D01*
X350Y2099D01*
X350Y2079D01*
X354Y2079D01*
X354Y2077D01*
X358Y2077D01*
X358Y2075D01*
X360Y2075D01*
X360Y2073D01*
X362Y2073D01*
X362Y2071D01*
X366Y2071D01*
X366Y2069D01*
X368Y2069D01*
X368Y2065D01*
X370Y2065D01*
X370Y2063D01*
X372Y2063D01*
X372Y2059D01*
X374Y2059D01*
X374Y2055D01*
X394Y2055D01*
X394Y2057D01*
X396Y2057D01*
X396Y2061D01*
X398Y2061D01*
X398Y2063D01*
X400Y2063D01*
X400Y2067D01*
X402Y2067D01*
X402Y2069D01*
X404Y2069D01*
X404Y2071D01*
X406Y2071D01*
X406Y2073D01*
X410Y2073D01*
X410Y2075D01*
X412Y2075D01*
X412Y2077D01*
X416Y2077D01*
X416Y2079D01*
X418Y2079D01*
X418Y2099D01*
X414Y2099D01*
X414Y2101D01*
X412Y2101D01*
X412Y2103D01*
X408Y2103D01*
X408Y2105D01*
X406Y2105D01*
X406Y2107D01*
X404Y2107D01*
X404Y2109D01*
X402Y2109D01*
X402Y2111D01*
X400Y2111D01*
X400Y2113D01*
X398Y2113D01*
X398Y2117D01*
X396Y2117D01*
X396Y2121D01*
X374Y2121D01*
G37*
D02*
G36*
X474Y2121D02*
X474Y2117D01*
X472Y2117D01*
X472Y2115D01*
X470Y2115D01*
X470Y2111D01*
X468Y2111D01*
X468Y2109D01*
X466Y2109D01*
X466Y2107D01*
X464Y2107D01*
X464Y2105D01*
X462Y2105D01*
X462Y2103D01*
X458Y2103D01*
X458Y2101D01*
X454Y2101D01*
X454Y2099D01*
X450Y2099D01*
X450Y2079D01*
X454Y2079D01*
X454Y2077D01*
X458Y2077D01*
X458Y2075D01*
X460Y2075D01*
X460Y2073D01*
X462Y2073D01*
X462Y2071D01*
X466Y2071D01*
X466Y2069D01*
X468Y2069D01*
X468Y2065D01*
X470Y2065D01*
X470Y2063D01*
X472Y2063D01*
X472Y2059D01*
X474Y2059D01*
X474Y2055D01*
X494Y2055D01*
X494Y2057D01*
X496Y2057D01*
X496Y2061D01*
X498Y2061D01*
X498Y2063D01*
X500Y2063D01*
X500Y2067D01*
X502Y2067D01*
X502Y2069D01*
X504Y2069D01*
X504Y2071D01*
X506Y2071D01*
X506Y2073D01*
X510Y2073D01*
X510Y2075D01*
X512Y2075D01*
X512Y2077D01*
X516Y2077D01*
X516Y2079D01*
X518Y2079D01*
X518Y2099D01*
X514Y2099D01*
X514Y2101D01*
X512Y2101D01*
X512Y2103D01*
X508Y2103D01*
X508Y2105D01*
X506Y2105D01*
X506Y2107D01*
X504Y2107D01*
X504Y2109D01*
X502Y2109D01*
X502Y2111D01*
X500Y2111D01*
X500Y2113D01*
X498Y2113D01*
X498Y2117D01*
X496Y2117D01*
X496Y2121D01*
X474Y2121D01*
G37*
D02*
G36*
X674Y2121D02*
X674Y2117D01*
X672Y2117D01*
X672Y2115D01*
X670Y2115D01*
X670Y2111D01*
X668Y2111D01*
X668Y2109D01*
X666Y2109D01*
X666Y2107D01*
X664Y2107D01*
X664Y2105D01*
X662Y2105D01*
X662Y2103D01*
X658Y2103D01*
X658Y2101D01*
X654Y2101D01*
X654Y2099D01*
X650Y2099D01*
X650Y2079D01*
X654Y2079D01*
X654Y2077D01*
X658Y2077D01*
X658Y2075D01*
X660Y2075D01*
X660Y2073D01*
X662Y2073D01*
X662Y2071D01*
X666Y2071D01*
X666Y2069D01*
X668Y2069D01*
X668Y2065D01*
X670Y2065D01*
X670Y2063D01*
X672Y2063D01*
X672Y2059D01*
X674Y2059D01*
X674Y2055D01*
X694Y2055D01*
X694Y2057D01*
X696Y2057D01*
X696Y2061D01*
X698Y2061D01*
X698Y2063D01*
X700Y2063D01*
X700Y2067D01*
X702Y2067D01*
X702Y2069D01*
X704Y2069D01*
X704Y2071D01*
X706Y2071D01*
X706Y2073D01*
X710Y2073D01*
X710Y2075D01*
X712Y2075D01*
X712Y2077D01*
X716Y2077D01*
X716Y2079D01*
X718Y2079D01*
X718Y2099D01*
X714Y2099D01*
X714Y2101D01*
X712Y2101D01*
X712Y2103D01*
X708Y2103D01*
X708Y2105D01*
X706Y2105D01*
X706Y2107D01*
X704Y2107D01*
X704Y2109D01*
X702Y2109D01*
X702Y2111D01*
X700Y2111D01*
X700Y2113D01*
X698Y2113D01*
X698Y2117D01*
X696Y2117D01*
X696Y2121D01*
X674Y2121D01*
G37*
D02*
G36*
X774Y2121D02*
X774Y2117D01*
X772Y2117D01*
X772Y2115D01*
X770Y2115D01*
X770Y2111D01*
X768Y2111D01*
X768Y2109D01*
X766Y2109D01*
X766Y2107D01*
X764Y2107D01*
X764Y2105D01*
X762Y2105D01*
X762Y2103D01*
X758Y2103D01*
X758Y2101D01*
X754Y2101D01*
X754Y2099D01*
X750Y2099D01*
X750Y2079D01*
X754Y2079D01*
X754Y2077D01*
X758Y2077D01*
X758Y2075D01*
X760Y2075D01*
X760Y2073D01*
X762Y2073D01*
X762Y2071D01*
X766Y2071D01*
X766Y2069D01*
X768Y2069D01*
X768Y2065D01*
X770Y2065D01*
X770Y2063D01*
X772Y2063D01*
X772Y2059D01*
X774Y2059D01*
X774Y2055D01*
X794Y2055D01*
X794Y2057D01*
X796Y2057D01*
X796Y2061D01*
X798Y2061D01*
X798Y2063D01*
X800Y2063D01*
X800Y2067D01*
X802Y2067D01*
X802Y2069D01*
X804Y2069D01*
X804Y2071D01*
X806Y2071D01*
X806Y2073D01*
X810Y2073D01*
X810Y2075D01*
X812Y2075D01*
X812Y2077D01*
X816Y2077D01*
X816Y2079D01*
X818Y2079D01*
X818Y2099D01*
X814Y2099D01*
X814Y2101D01*
X812Y2101D01*
X812Y2103D01*
X808Y2103D01*
X808Y2105D01*
X806Y2105D01*
X806Y2107D01*
X804Y2107D01*
X804Y2109D01*
X802Y2109D01*
X802Y2111D01*
X800Y2111D01*
X800Y2113D01*
X798Y2113D01*
X798Y2117D01*
X796Y2117D01*
X796Y2121D01*
X774Y2121D01*
G37*
D02*
G36*
X874Y2121D02*
X874Y2117D01*
X872Y2117D01*
X872Y2115D01*
X870Y2115D01*
X870Y2111D01*
X868Y2111D01*
X868Y2109D01*
X866Y2109D01*
X866Y2107D01*
X864Y2107D01*
X864Y2105D01*
X862Y2105D01*
X862Y2103D01*
X858Y2103D01*
X858Y2101D01*
X854Y2101D01*
X854Y2099D01*
X850Y2099D01*
X850Y2079D01*
X854Y2079D01*
X854Y2077D01*
X858Y2077D01*
X858Y2075D01*
X860Y2075D01*
X860Y2073D01*
X862Y2073D01*
X862Y2071D01*
X866Y2071D01*
X866Y2069D01*
X868Y2069D01*
X868Y2065D01*
X870Y2065D01*
X870Y2063D01*
X872Y2063D01*
X872Y2059D01*
X874Y2059D01*
X874Y2055D01*
X894Y2055D01*
X894Y2057D01*
X896Y2057D01*
X896Y2061D01*
X898Y2061D01*
X898Y2063D01*
X900Y2063D01*
X900Y2067D01*
X902Y2067D01*
X902Y2069D01*
X904Y2069D01*
X904Y2071D01*
X906Y2071D01*
X906Y2073D01*
X910Y2073D01*
X910Y2075D01*
X912Y2075D01*
X912Y2077D01*
X916Y2077D01*
X916Y2079D01*
X918Y2079D01*
X918Y2099D01*
X914Y2099D01*
X914Y2101D01*
X912Y2101D01*
X912Y2103D01*
X908Y2103D01*
X908Y2105D01*
X906Y2105D01*
X906Y2107D01*
X904Y2107D01*
X904Y2109D01*
X902Y2109D01*
X902Y2111D01*
X900Y2111D01*
X900Y2113D01*
X898Y2113D01*
X898Y2117D01*
X896Y2117D01*
X896Y2121D01*
X874Y2121D01*
G37*
D02*
G36*
X974Y2121D02*
X974Y2117D01*
X972Y2117D01*
X972Y2115D01*
X970Y2115D01*
X970Y2111D01*
X968Y2111D01*
X968Y2109D01*
X966Y2109D01*
X966Y2107D01*
X964Y2107D01*
X964Y2105D01*
X962Y2105D01*
X962Y2103D01*
X958Y2103D01*
X958Y2101D01*
X954Y2101D01*
X954Y2099D01*
X950Y2099D01*
X950Y2079D01*
X954Y2079D01*
X954Y2077D01*
X958Y2077D01*
X958Y2075D01*
X960Y2075D01*
X960Y2073D01*
X962Y2073D01*
X962Y2071D01*
X966Y2071D01*
X966Y2069D01*
X968Y2069D01*
X968Y2065D01*
X970Y2065D01*
X970Y2063D01*
X972Y2063D01*
X972Y2059D01*
X974Y2059D01*
X974Y2055D01*
X994Y2055D01*
X994Y2057D01*
X996Y2057D01*
X996Y2061D01*
X998Y2061D01*
X998Y2063D01*
X1000Y2063D01*
X1000Y2067D01*
X1002Y2067D01*
X1002Y2069D01*
X1004Y2069D01*
X1004Y2071D01*
X1006Y2071D01*
X1006Y2073D01*
X1010Y2073D01*
X1010Y2075D01*
X1012Y2075D01*
X1012Y2077D01*
X1016Y2077D01*
X1016Y2079D01*
X1018Y2079D01*
X1018Y2099D01*
X1014Y2099D01*
X1014Y2101D01*
X1012Y2101D01*
X1012Y2103D01*
X1008Y2103D01*
X1008Y2105D01*
X1006Y2105D01*
X1006Y2107D01*
X1004Y2107D01*
X1004Y2109D01*
X1002Y2109D01*
X1002Y2111D01*
X1000Y2111D01*
X1000Y2113D01*
X998Y2113D01*
X998Y2117D01*
X996Y2117D01*
X996Y2121D01*
X974Y2121D01*
G37*
D02*
G36*
X1074Y2121D02*
X1074Y2117D01*
X1072Y2117D01*
X1072Y2115D01*
X1070Y2115D01*
X1070Y2111D01*
X1068Y2111D01*
X1068Y2109D01*
X1066Y2109D01*
X1066Y2107D01*
X1064Y2107D01*
X1064Y2105D01*
X1062Y2105D01*
X1062Y2103D01*
X1058Y2103D01*
X1058Y2101D01*
X1054Y2101D01*
X1054Y2099D01*
X1050Y2099D01*
X1050Y2079D01*
X1054Y2079D01*
X1054Y2077D01*
X1058Y2077D01*
X1058Y2075D01*
X1060Y2075D01*
X1060Y2073D01*
X1062Y2073D01*
X1062Y2071D01*
X1066Y2071D01*
X1066Y2069D01*
X1068Y2069D01*
X1068Y2065D01*
X1070Y2065D01*
X1070Y2063D01*
X1072Y2063D01*
X1072Y2059D01*
X1074Y2059D01*
X1074Y2055D01*
X1094Y2055D01*
X1094Y2057D01*
X1096Y2057D01*
X1096Y2061D01*
X1098Y2061D01*
X1098Y2063D01*
X1100Y2063D01*
X1100Y2067D01*
X1102Y2067D01*
X1102Y2069D01*
X1104Y2069D01*
X1104Y2071D01*
X1106Y2071D01*
X1106Y2073D01*
X1110Y2073D01*
X1110Y2075D01*
X1112Y2075D01*
X1112Y2077D01*
X1116Y2077D01*
X1116Y2079D01*
X1118Y2079D01*
X1118Y2099D01*
X1114Y2099D01*
X1114Y2101D01*
X1112Y2101D01*
X1112Y2103D01*
X1108Y2103D01*
X1108Y2105D01*
X1106Y2105D01*
X1106Y2107D01*
X1104Y2107D01*
X1104Y2109D01*
X1102Y2109D01*
X1102Y2111D01*
X1100Y2111D01*
X1100Y2113D01*
X1098Y2113D01*
X1098Y2117D01*
X1096Y2117D01*
X1096Y2121D01*
X1074Y2121D01*
G37*
D02*
G36*
X1174Y2121D02*
X1174Y2117D01*
X1172Y2117D01*
X1172Y2115D01*
X1170Y2115D01*
X1170Y2111D01*
X1168Y2111D01*
X1168Y2109D01*
X1166Y2109D01*
X1166Y2107D01*
X1164Y2107D01*
X1164Y2105D01*
X1162Y2105D01*
X1162Y2103D01*
X1158Y2103D01*
X1158Y2101D01*
X1154Y2101D01*
X1154Y2099D01*
X1150Y2099D01*
X1150Y2079D01*
X1154Y2079D01*
X1154Y2077D01*
X1158Y2077D01*
X1158Y2075D01*
X1160Y2075D01*
X1160Y2073D01*
X1162Y2073D01*
X1162Y2071D01*
X1166Y2071D01*
X1166Y2069D01*
X1168Y2069D01*
X1168Y2065D01*
X1170Y2065D01*
X1170Y2063D01*
X1172Y2063D01*
X1172Y2059D01*
X1174Y2059D01*
X1174Y2055D01*
X1194Y2055D01*
X1194Y2057D01*
X1196Y2057D01*
X1196Y2061D01*
X1198Y2061D01*
X1198Y2063D01*
X1200Y2063D01*
X1200Y2067D01*
X1202Y2067D01*
X1202Y2069D01*
X1204Y2069D01*
X1204Y2071D01*
X1206Y2071D01*
X1206Y2073D01*
X1210Y2073D01*
X1210Y2075D01*
X1212Y2075D01*
X1212Y2077D01*
X1216Y2077D01*
X1216Y2079D01*
X1218Y2079D01*
X1218Y2099D01*
X1214Y2099D01*
X1214Y2101D01*
X1212Y2101D01*
X1212Y2103D01*
X1208Y2103D01*
X1208Y2105D01*
X1206Y2105D01*
X1206Y2107D01*
X1204Y2107D01*
X1204Y2109D01*
X1202Y2109D01*
X1202Y2111D01*
X1200Y2111D01*
X1200Y2113D01*
X1198Y2113D01*
X1198Y2117D01*
X1196Y2117D01*
X1196Y2121D01*
X1174Y2121D01*
G37*
D02*
G36*
X1274Y2121D02*
X1274Y2117D01*
X1272Y2117D01*
X1272Y2115D01*
X1270Y2115D01*
X1270Y2111D01*
X1268Y2111D01*
X1268Y2109D01*
X1266Y2109D01*
X1266Y2107D01*
X1264Y2107D01*
X1264Y2105D01*
X1262Y2105D01*
X1262Y2103D01*
X1258Y2103D01*
X1258Y2101D01*
X1254Y2101D01*
X1254Y2099D01*
X1250Y2099D01*
X1250Y2079D01*
X1254Y2079D01*
X1254Y2077D01*
X1258Y2077D01*
X1258Y2075D01*
X1260Y2075D01*
X1260Y2073D01*
X1262Y2073D01*
X1262Y2071D01*
X1266Y2071D01*
X1266Y2069D01*
X1268Y2069D01*
X1268Y2065D01*
X1270Y2065D01*
X1270Y2063D01*
X1272Y2063D01*
X1272Y2059D01*
X1274Y2059D01*
X1274Y2055D01*
X1294Y2055D01*
X1294Y2057D01*
X1296Y2057D01*
X1296Y2061D01*
X1298Y2061D01*
X1298Y2063D01*
X1300Y2063D01*
X1300Y2067D01*
X1302Y2067D01*
X1302Y2069D01*
X1304Y2069D01*
X1304Y2071D01*
X1306Y2071D01*
X1306Y2073D01*
X1310Y2073D01*
X1310Y2075D01*
X1312Y2075D01*
X1312Y2077D01*
X1316Y2077D01*
X1316Y2079D01*
X1318Y2079D01*
X1318Y2099D01*
X1314Y2099D01*
X1314Y2101D01*
X1312Y2101D01*
X1312Y2103D01*
X1308Y2103D01*
X1308Y2105D01*
X1306Y2105D01*
X1306Y2107D01*
X1304Y2107D01*
X1304Y2109D01*
X1302Y2109D01*
X1302Y2111D01*
X1300Y2111D01*
X1300Y2113D01*
X1298Y2113D01*
X1298Y2117D01*
X1296Y2117D01*
X1296Y2121D01*
X1274Y2121D01*
G37*
D02*
G36*
X1374Y2121D02*
X1374Y2117D01*
X1372Y2117D01*
X1372Y2115D01*
X1370Y2115D01*
X1370Y2111D01*
X1368Y2111D01*
X1368Y2109D01*
X1366Y2109D01*
X1366Y2107D01*
X1364Y2107D01*
X1364Y2105D01*
X1362Y2105D01*
X1362Y2103D01*
X1358Y2103D01*
X1358Y2101D01*
X1354Y2101D01*
X1354Y2099D01*
X1350Y2099D01*
X1350Y2079D01*
X1354Y2079D01*
X1354Y2077D01*
X1358Y2077D01*
X1358Y2075D01*
X1360Y2075D01*
X1360Y2073D01*
X1362Y2073D01*
X1362Y2071D01*
X1366Y2071D01*
X1366Y2069D01*
X1368Y2069D01*
X1368Y2065D01*
X1370Y2065D01*
X1370Y2063D01*
X1372Y2063D01*
X1372Y2059D01*
X1374Y2059D01*
X1374Y2055D01*
X1394Y2055D01*
X1394Y2057D01*
X1396Y2057D01*
X1396Y2061D01*
X1398Y2061D01*
X1398Y2063D01*
X1400Y2063D01*
X1400Y2067D01*
X1402Y2067D01*
X1402Y2069D01*
X1404Y2069D01*
X1404Y2071D01*
X1406Y2071D01*
X1406Y2073D01*
X1410Y2073D01*
X1410Y2075D01*
X1412Y2075D01*
X1412Y2077D01*
X1416Y2077D01*
X1416Y2079D01*
X1418Y2079D01*
X1418Y2099D01*
X1414Y2099D01*
X1414Y2101D01*
X1412Y2101D01*
X1412Y2103D01*
X1408Y2103D01*
X1408Y2105D01*
X1406Y2105D01*
X1406Y2107D01*
X1404Y2107D01*
X1404Y2109D01*
X1402Y2109D01*
X1402Y2111D01*
X1400Y2111D01*
X1400Y2113D01*
X1398Y2113D01*
X1398Y2117D01*
X1396Y2117D01*
X1396Y2121D01*
X1374Y2121D01*
G37*
D02*
G36*
X1474Y2121D02*
X1474Y2117D01*
X1472Y2117D01*
X1472Y2115D01*
X1470Y2115D01*
X1470Y2111D01*
X1468Y2111D01*
X1468Y2109D01*
X1466Y2109D01*
X1466Y2107D01*
X1464Y2107D01*
X1464Y2105D01*
X1462Y2105D01*
X1462Y2103D01*
X1458Y2103D01*
X1458Y2101D01*
X1454Y2101D01*
X1454Y2099D01*
X1450Y2099D01*
X1450Y2079D01*
X1454Y2079D01*
X1454Y2077D01*
X1458Y2077D01*
X1458Y2075D01*
X1460Y2075D01*
X1460Y2073D01*
X1462Y2073D01*
X1462Y2071D01*
X1466Y2071D01*
X1466Y2069D01*
X1468Y2069D01*
X1468Y2065D01*
X1470Y2065D01*
X1470Y2063D01*
X1472Y2063D01*
X1472Y2059D01*
X1474Y2059D01*
X1474Y2055D01*
X1494Y2055D01*
X1494Y2057D01*
X1496Y2057D01*
X1496Y2061D01*
X1498Y2061D01*
X1498Y2063D01*
X1500Y2063D01*
X1500Y2067D01*
X1502Y2067D01*
X1502Y2069D01*
X1504Y2069D01*
X1504Y2071D01*
X1506Y2071D01*
X1506Y2073D01*
X1510Y2073D01*
X1510Y2075D01*
X1512Y2075D01*
X1512Y2077D01*
X1516Y2077D01*
X1516Y2079D01*
X1518Y2079D01*
X1518Y2099D01*
X1514Y2099D01*
X1514Y2101D01*
X1512Y2101D01*
X1512Y2103D01*
X1508Y2103D01*
X1508Y2105D01*
X1506Y2105D01*
X1506Y2107D01*
X1504Y2107D01*
X1504Y2109D01*
X1502Y2109D01*
X1502Y2111D01*
X1500Y2111D01*
X1500Y2113D01*
X1498Y2113D01*
X1498Y2117D01*
X1496Y2117D01*
X1496Y2121D01*
X1474Y2121D01*
G37*
D02*
G36*
X1574Y2121D02*
X1574Y2117D01*
X1572Y2117D01*
X1572Y2115D01*
X1570Y2115D01*
X1570Y2111D01*
X1568Y2111D01*
X1568Y2109D01*
X1566Y2109D01*
X1566Y2107D01*
X1564Y2107D01*
X1564Y2105D01*
X1562Y2105D01*
X1562Y2103D01*
X1558Y2103D01*
X1558Y2101D01*
X1554Y2101D01*
X1554Y2099D01*
X1550Y2099D01*
X1550Y2079D01*
X1554Y2079D01*
X1554Y2077D01*
X1558Y2077D01*
X1558Y2075D01*
X1560Y2075D01*
X1560Y2073D01*
X1562Y2073D01*
X1562Y2071D01*
X1566Y2071D01*
X1566Y2069D01*
X1568Y2069D01*
X1568Y2065D01*
X1570Y2065D01*
X1570Y2063D01*
X1572Y2063D01*
X1572Y2059D01*
X1574Y2059D01*
X1574Y2055D01*
X1594Y2055D01*
X1594Y2057D01*
X1596Y2057D01*
X1596Y2061D01*
X1598Y2061D01*
X1598Y2063D01*
X1600Y2063D01*
X1600Y2067D01*
X1602Y2067D01*
X1602Y2069D01*
X1604Y2069D01*
X1604Y2071D01*
X1606Y2071D01*
X1606Y2073D01*
X1610Y2073D01*
X1610Y2075D01*
X1612Y2075D01*
X1612Y2077D01*
X1616Y2077D01*
X1616Y2079D01*
X1618Y2079D01*
X1618Y2099D01*
X1614Y2099D01*
X1614Y2101D01*
X1612Y2101D01*
X1612Y2103D01*
X1608Y2103D01*
X1608Y2105D01*
X1606Y2105D01*
X1606Y2107D01*
X1604Y2107D01*
X1604Y2109D01*
X1602Y2109D01*
X1602Y2111D01*
X1600Y2111D01*
X1600Y2113D01*
X1598Y2113D01*
X1598Y2117D01*
X1596Y2117D01*
X1596Y2121D01*
X1574Y2121D01*
G37*
D02*
G36*
X1674Y2121D02*
X1674Y2117D01*
X1672Y2117D01*
X1672Y2115D01*
X1670Y2115D01*
X1670Y2111D01*
X1668Y2111D01*
X1668Y2109D01*
X1666Y2109D01*
X1666Y2107D01*
X1664Y2107D01*
X1664Y2105D01*
X1662Y2105D01*
X1662Y2103D01*
X1658Y2103D01*
X1658Y2101D01*
X1654Y2101D01*
X1654Y2099D01*
X1650Y2099D01*
X1650Y2079D01*
X1654Y2079D01*
X1654Y2077D01*
X1658Y2077D01*
X1658Y2075D01*
X1660Y2075D01*
X1660Y2073D01*
X1662Y2073D01*
X1662Y2071D01*
X1666Y2071D01*
X1666Y2069D01*
X1668Y2069D01*
X1668Y2065D01*
X1670Y2065D01*
X1670Y2063D01*
X1672Y2063D01*
X1672Y2059D01*
X1674Y2059D01*
X1674Y2055D01*
X1694Y2055D01*
X1694Y2057D01*
X1696Y2057D01*
X1696Y2061D01*
X1698Y2061D01*
X1698Y2063D01*
X1700Y2063D01*
X1700Y2067D01*
X1702Y2067D01*
X1702Y2069D01*
X1704Y2069D01*
X1704Y2071D01*
X1706Y2071D01*
X1706Y2073D01*
X1710Y2073D01*
X1710Y2075D01*
X1712Y2075D01*
X1712Y2077D01*
X1716Y2077D01*
X1716Y2079D01*
X1718Y2079D01*
X1718Y2099D01*
X1714Y2099D01*
X1714Y2101D01*
X1712Y2101D01*
X1712Y2103D01*
X1708Y2103D01*
X1708Y2105D01*
X1706Y2105D01*
X1706Y2107D01*
X1704Y2107D01*
X1704Y2109D01*
X1702Y2109D01*
X1702Y2111D01*
X1700Y2111D01*
X1700Y2113D01*
X1698Y2113D01*
X1698Y2117D01*
X1696Y2117D01*
X1696Y2121D01*
X1674Y2121D01*
G37*
D02*
G36*
X1774Y2121D02*
X1774Y2117D01*
X1772Y2117D01*
X1772Y2115D01*
X1770Y2115D01*
X1770Y2111D01*
X1768Y2111D01*
X1768Y2109D01*
X1766Y2109D01*
X1766Y2107D01*
X1764Y2107D01*
X1764Y2105D01*
X1762Y2105D01*
X1762Y2103D01*
X1758Y2103D01*
X1758Y2101D01*
X1754Y2101D01*
X1754Y2099D01*
X1750Y2099D01*
X1750Y2079D01*
X1754Y2079D01*
X1754Y2077D01*
X1758Y2077D01*
X1758Y2075D01*
X1760Y2075D01*
X1760Y2073D01*
X1762Y2073D01*
X1762Y2071D01*
X1766Y2071D01*
X1766Y2069D01*
X1768Y2069D01*
X1768Y2065D01*
X1770Y2065D01*
X1770Y2063D01*
X1772Y2063D01*
X1772Y2059D01*
X1774Y2059D01*
X1774Y2055D01*
X1794Y2055D01*
X1794Y2057D01*
X1796Y2057D01*
X1796Y2061D01*
X1798Y2061D01*
X1798Y2063D01*
X1800Y2063D01*
X1800Y2067D01*
X1802Y2067D01*
X1802Y2069D01*
X1804Y2069D01*
X1804Y2071D01*
X1806Y2071D01*
X1806Y2073D01*
X1810Y2073D01*
X1810Y2075D01*
X1812Y2075D01*
X1812Y2077D01*
X1816Y2077D01*
X1816Y2079D01*
X1818Y2079D01*
X1818Y2099D01*
X1814Y2099D01*
X1814Y2101D01*
X1812Y2101D01*
X1812Y2103D01*
X1808Y2103D01*
X1808Y2105D01*
X1806Y2105D01*
X1806Y2107D01*
X1804Y2107D01*
X1804Y2109D01*
X1802Y2109D01*
X1802Y2111D01*
X1800Y2111D01*
X1800Y2113D01*
X1798Y2113D01*
X1798Y2117D01*
X1796Y2117D01*
X1796Y2121D01*
X1774Y2121D01*
G37*
D02*
G36*
X1874Y2121D02*
X1874Y2117D01*
X1872Y2117D01*
X1872Y2115D01*
X1870Y2115D01*
X1870Y2111D01*
X1868Y2111D01*
X1868Y2109D01*
X1866Y2109D01*
X1866Y2107D01*
X1864Y2107D01*
X1864Y2105D01*
X1862Y2105D01*
X1862Y2103D01*
X1858Y2103D01*
X1858Y2101D01*
X1854Y2101D01*
X1854Y2099D01*
X1850Y2099D01*
X1850Y2079D01*
X1854Y2079D01*
X1854Y2077D01*
X1858Y2077D01*
X1858Y2075D01*
X1860Y2075D01*
X1860Y2073D01*
X1862Y2073D01*
X1862Y2071D01*
X1866Y2071D01*
X1866Y2069D01*
X1868Y2069D01*
X1868Y2065D01*
X1870Y2065D01*
X1870Y2063D01*
X1872Y2063D01*
X1872Y2059D01*
X1874Y2059D01*
X1874Y2055D01*
X1894Y2055D01*
X1894Y2057D01*
X1896Y2057D01*
X1896Y2061D01*
X1898Y2061D01*
X1898Y2063D01*
X1900Y2063D01*
X1900Y2067D01*
X1902Y2067D01*
X1902Y2069D01*
X1904Y2069D01*
X1904Y2071D01*
X1906Y2071D01*
X1906Y2073D01*
X1910Y2073D01*
X1910Y2075D01*
X1912Y2075D01*
X1912Y2077D01*
X1916Y2077D01*
X1916Y2079D01*
X1918Y2079D01*
X1918Y2099D01*
X1914Y2099D01*
X1914Y2101D01*
X1912Y2101D01*
X1912Y2103D01*
X1908Y2103D01*
X1908Y2105D01*
X1906Y2105D01*
X1906Y2107D01*
X1904Y2107D01*
X1904Y2109D01*
X1902Y2109D01*
X1902Y2111D01*
X1900Y2111D01*
X1900Y2113D01*
X1898Y2113D01*
X1898Y2117D01*
X1896Y2117D01*
X1896Y2121D01*
X1874Y2121D01*
G37*
D02*
G36*
X1974Y2121D02*
X1974Y2117D01*
X1972Y2117D01*
X1972Y2115D01*
X1970Y2115D01*
X1970Y2111D01*
X1968Y2111D01*
X1968Y2109D01*
X1966Y2109D01*
X1966Y2107D01*
X1964Y2107D01*
X1964Y2105D01*
X1962Y2105D01*
X1962Y2103D01*
X1958Y2103D01*
X1958Y2101D01*
X1954Y2101D01*
X1954Y2099D01*
X1950Y2099D01*
X1950Y2079D01*
X1954Y2079D01*
X1954Y2077D01*
X1958Y2077D01*
X1958Y2075D01*
X1960Y2075D01*
X1960Y2073D01*
X1962Y2073D01*
X1962Y2071D01*
X1966Y2071D01*
X1966Y2069D01*
X1968Y2069D01*
X1968Y2065D01*
X1970Y2065D01*
X1970Y2063D01*
X1972Y2063D01*
X1972Y2059D01*
X1974Y2059D01*
X1974Y2055D01*
X1994Y2055D01*
X1994Y2057D01*
X1996Y2057D01*
X1996Y2061D01*
X1998Y2061D01*
X1998Y2063D01*
X2000Y2063D01*
X2000Y2067D01*
X2002Y2067D01*
X2002Y2069D01*
X2004Y2069D01*
X2004Y2071D01*
X2006Y2071D01*
X2006Y2073D01*
X2010Y2073D01*
X2010Y2075D01*
X2012Y2075D01*
X2012Y2077D01*
X2016Y2077D01*
X2016Y2079D01*
X2018Y2079D01*
X2018Y2099D01*
X2014Y2099D01*
X2014Y2101D01*
X2012Y2101D01*
X2012Y2103D01*
X2008Y2103D01*
X2008Y2105D01*
X2006Y2105D01*
X2006Y2107D01*
X2004Y2107D01*
X2004Y2109D01*
X2002Y2109D01*
X2002Y2111D01*
X2000Y2111D01*
X2000Y2113D01*
X1998Y2113D01*
X1998Y2117D01*
X1996Y2117D01*
X1996Y2121D01*
X1974Y2121D01*
G37*
D02*
G36*
X2074Y2121D02*
X2074Y2117D01*
X2072Y2117D01*
X2072Y2115D01*
X2070Y2115D01*
X2070Y2111D01*
X2068Y2111D01*
X2068Y2109D01*
X2066Y2109D01*
X2066Y2107D01*
X2064Y2107D01*
X2064Y2105D01*
X2062Y2105D01*
X2062Y2103D01*
X2058Y2103D01*
X2058Y2101D01*
X2054Y2101D01*
X2054Y2099D01*
X2050Y2099D01*
X2050Y2079D01*
X2054Y2079D01*
X2054Y2077D01*
X2058Y2077D01*
X2058Y2075D01*
X2060Y2075D01*
X2060Y2073D01*
X2062Y2073D01*
X2062Y2071D01*
X2066Y2071D01*
X2066Y2069D01*
X2068Y2069D01*
X2068Y2065D01*
X2070Y2065D01*
X2070Y2063D01*
X2072Y2063D01*
X2072Y2059D01*
X2074Y2059D01*
X2074Y2055D01*
X2094Y2055D01*
X2094Y2057D01*
X2096Y2057D01*
X2096Y2061D01*
X2098Y2061D01*
X2098Y2063D01*
X2100Y2063D01*
X2100Y2067D01*
X2102Y2067D01*
X2102Y2069D01*
X2104Y2069D01*
X2104Y2071D01*
X2106Y2071D01*
X2106Y2073D01*
X2110Y2073D01*
X2110Y2075D01*
X2112Y2075D01*
X2112Y2077D01*
X2116Y2077D01*
X2116Y2079D01*
X2118Y2079D01*
X2118Y2099D01*
X2114Y2099D01*
X2114Y2101D01*
X2112Y2101D01*
X2112Y2103D01*
X2108Y2103D01*
X2108Y2105D01*
X2106Y2105D01*
X2106Y2107D01*
X2104Y2107D01*
X2104Y2109D01*
X2102Y2109D01*
X2102Y2111D01*
X2100Y2111D01*
X2100Y2113D01*
X2098Y2113D01*
X2098Y2117D01*
X2096Y2117D01*
X2096Y2121D01*
X2074Y2121D01*
G37*
D02*
G36*
X2174Y2121D02*
X2174Y2117D01*
X2172Y2117D01*
X2172Y2115D01*
X2170Y2115D01*
X2170Y2111D01*
X2168Y2111D01*
X2168Y2109D01*
X2166Y2109D01*
X2166Y2107D01*
X2164Y2107D01*
X2164Y2105D01*
X2162Y2105D01*
X2162Y2103D01*
X2158Y2103D01*
X2158Y2101D01*
X2154Y2101D01*
X2154Y2099D01*
X2150Y2099D01*
X2150Y2079D01*
X2154Y2079D01*
X2154Y2077D01*
X2158Y2077D01*
X2158Y2075D01*
X2160Y2075D01*
X2160Y2073D01*
X2162Y2073D01*
X2162Y2071D01*
X2166Y2071D01*
X2166Y2069D01*
X2168Y2069D01*
X2168Y2065D01*
X2170Y2065D01*
X2170Y2063D01*
X2172Y2063D01*
X2172Y2059D01*
X2174Y2059D01*
X2174Y2055D01*
X2194Y2055D01*
X2194Y2057D01*
X2196Y2057D01*
X2196Y2061D01*
X2198Y2061D01*
X2198Y2063D01*
X2200Y2063D01*
X2200Y2067D01*
X2202Y2067D01*
X2202Y2069D01*
X2204Y2069D01*
X2204Y2071D01*
X2206Y2071D01*
X2206Y2073D01*
X2210Y2073D01*
X2210Y2075D01*
X2212Y2075D01*
X2212Y2077D01*
X2216Y2077D01*
X2216Y2079D01*
X2218Y2079D01*
X2218Y2099D01*
X2214Y2099D01*
X2214Y2101D01*
X2212Y2101D01*
X2212Y2103D01*
X2208Y2103D01*
X2208Y2105D01*
X2206Y2105D01*
X2206Y2107D01*
X2204Y2107D01*
X2204Y2109D01*
X2202Y2109D01*
X2202Y2111D01*
X2200Y2111D01*
X2200Y2113D01*
X2198Y2113D01*
X2198Y2117D01*
X2196Y2117D01*
X2196Y2121D01*
X2174Y2121D01*
G37*
D02*
G36*
X220Y2167D02*
X220Y2147D01*
X222Y2147D01*
X222Y2145D01*
X224Y2145D01*
X224Y2143D01*
X226Y2143D01*
X226Y2139D01*
X228Y2139D01*
X228Y2135D01*
X230Y2135D01*
X230Y2131D01*
X232Y2131D01*
X232Y2125D01*
X234Y2125D01*
X234Y2021D01*
X232Y2021D01*
X232Y2015D01*
X230Y2015D01*
X230Y2011D01*
X228Y2011D01*
X228Y2007D01*
X226Y2007D01*
X226Y2003D01*
X224Y2003D01*
X224Y2001D01*
X222Y2001D01*
X222Y1999D01*
X220Y1999D01*
X220Y1997D01*
X218Y1997D01*
X218Y1995D01*
X326Y1995D01*
X326Y1997D01*
X318Y1997D01*
X318Y1999D01*
X314Y1999D01*
X314Y2001D01*
X312Y2001D01*
X312Y2003D01*
X308Y2003D01*
X308Y2005D01*
X306Y2005D01*
X306Y2007D01*
X304Y2007D01*
X304Y2009D01*
X302Y2009D01*
X302Y2011D01*
X300Y2011D01*
X300Y2013D01*
X298Y2013D01*
X298Y2017D01*
X296Y2017D01*
X296Y2021D01*
X294Y2021D01*
X294Y2027D01*
X292Y2027D01*
X292Y2051D01*
X294Y2051D01*
X294Y2057D01*
X296Y2057D01*
X296Y2061D01*
X298Y2061D01*
X298Y2063D01*
X300Y2063D01*
X300Y2067D01*
X302Y2067D01*
X302Y2069D01*
X304Y2069D01*
X304Y2071D01*
X306Y2071D01*
X306Y2073D01*
X310Y2073D01*
X310Y2075D01*
X312Y2075D01*
X312Y2077D01*
X316Y2077D01*
X316Y2079D01*
X318Y2079D01*
X318Y2099D01*
X314Y2099D01*
X314Y2101D01*
X312Y2101D01*
X312Y2103D01*
X308Y2103D01*
X308Y2105D01*
X306Y2105D01*
X306Y2107D01*
X304Y2107D01*
X304Y2109D01*
X302Y2109D01*
X302Y2111D01*
X300Y2111D01*
X300Y2113D01*
X298Y2113D01*
X298Y2117D01*
X296Y2117D01*
X296Y2121D01*
X294Y2121D01*
X294Y2127D01*
X292Y2127D01*
X292Y2167D01*
X220Y2167D01*
G37*
D02*
G36*
X2278Y2167D02*
X2278Y2129D01*
X2276Y2129D01*
X2276Y2121D01*
X2274Y2121D01*
X2274Y2117D01*
X2272Y2117D01*
X2272Y2115D01*
X2270Y2115D01*
X2270Y2111D01*
X2268Y2111D01*
X2268Y2109D01*
X2266Y2109D01*
X2266Y2107D01*
X2264Y2107D01*
X2264Y2105D01*
X2262Y2105D01*
X2262Y2103D01*
X2258Y2103D01*
X2258Y2101D01*
X2254Y2101D01*
X2254Y2099D01*
X2250Y2099D01*
X2250Y2079D01*
X2254Y2079D01*
X2254Y2077D01*
X2258Y2077D01*
X2258Y2075D01*
X2260Y2075D01*
X2260Y2073D01*
X2262Y2073D01*
X2262Y2071D01*
X2266Y2071D01*
X2266Y2069D01*
X2268Y2069D01*
X2268Y2065D01*
X2270Y2065D01*
X2270Y2063D01*
X2272Y2063D01*
X2272Y2059D01*
X2274Y2059D01*
X2274Y2055D01*
X2276Y2055D01*
X2276Y2049D01*
X2278Y2049D01*
X2278Y2029D01*
X2276Y2029D01*
X2276Y2021D01*
X2274Y2021D01*
X2274Y2017D01*
X2272Y2017D01*
X2272Y2015D01*
X2270Y2015D01*
X2270Y2011D01*
X2268Y2011D01*
X2268Y2009D01*
X2266Y2009D01*
X2266Y2007D01*
X2264Y2007D01*
X2264Y2005D01*
X2262Y2005D01*
X2262Y2003D01*
X2258Y2003D01*
X2258Y2001D01*
X2254Y2001D01*
X2254Y1999D01*
X2250Y1999D01*
X2250Y1997D01*
X2244Y1997D01*
X2244Y1995D01*
X2356Y1995D01*
X2356Y1997D01*
X2352Y1997D01*
X2352Y1999D01*
X2350Y1999D01*
X2350Y2001D01*
X2348Y2001D01*
X2348Y2005D01*
X2346Y2005D01*
X2346Y2007D01*
X2344Y2007D01*
X2344Y2011D01*
X2342Y2011D01*
X2342Y2015D01*
X2340Y2015D01*
X2340Y2019D01*
X2338Y2019D01*
X2338Y2029D01*
X2336Y2029D01*
X2336Y2117D01*
X2338Y2117D01*
X2338Y2127D01*
X2340Y2127D01*
X2340Y2133D01*
X2342Y2133D01*
X2342Y2137D01*
X2344Y2137D01*
X2344Y2139D01*
X2346Y2139D01*
X2346Y2143D01*
X2348Y2143D01*
X2348Y2145D01*
X2350Y2145D01*
X2350Y2147D01*
X2352Y2147D01*
X2352Y2167D01*
X2278Y2167D01*
G37*
D02*
G36*
X374Y2021D02*
X374Y2017D01*
X372Y2017D01*
X372Y2015D01*
X370Y2015D01*
X370Y2011D01*
X368Y2011D01*
X368Y2009D01*
X366Y2009D01*
X366Y2007D01*
X364Y2007D01*
X364Y2005D01*
X362Y2005D01*
X362Y2003D01*
X358Y2003D01*
X358Y2001D01*
X354Y2001D01*
X354Y1999D01*
X350Y1999D01*
X350Y1997D01*
X344Y1997D01*
X344Y1995D01*
X426Y1995D01*
X426Y1997D01*
X418Y1997D01*
X418Y1999D01*
X414Y1999D01*
X414Y2001D01*
X412Y2001D01*
X412Y2003D01*
X408Y2003D01*
X408Y2005D01*
X406Y2005D01*
X406Y2007D01*
X404Y2007D01*
X404Y2009D01*
X402Y2009D01*
X402Y2011D01*
X400Y2011D01*
X400Y2013D01*
X398Y2013D01*
X398Y2017D01*
X396Y2017D01*
X396Y2021D01*
X374Y2021D01*
G37*
D02*
G36*
X474Y2021D02*
X474Y2017D01*
X472Y2017D01*
X472Y2015D01*
X470Y2015D01*
X470Y2011D01*
X468Y2011D01*
X468Y2009D01*
X466Y2009D01*
X466Y2007D01*
X464Y2007D01*
X464Y2005D01*
X462Y2005D01*
X462Y2003D01*
X458Y2003D01*
X458Y2001D01*
X454Y2001D01*
X454Y1999D01*
X450Y1999D01*
X450Y1997D01*
X444Y1997D01*
X444Y1995D01*
X526Y1995D01*
X526Y1997D01*
X518Y1997D01*
X518Y1999D01*
X514Y1999D01*
X514Y2001D01*
X512Y2001D01*
X512Y2003D01*
X508Y2003D01*
X508Y2005D01*
X506Y2005D01*
X506Y2007D01*
X504Y2007D01*
X504Y2009D01*
X502Y2009D01*
X502Y2011D01*
X500Y2011D01*
X500Y2013D01*
X498Y2013D01*
X498Y2017D01*
X496Y2017D01*
X496Y2021D01*
X474Y2021D01*
G37*
D02*
G36*
X674Y2021D02*
X674Y2017D01*
X672Y2017D01*
X672Y2015D01*
X670Y2015D01*
X670Y2011D01*
X668Y2011D01*
X668Y2009D01*
X666Y2009D01*
X666Y2007D01*
X664Y2007D01*
X664Y2005D01*
X662Y2005D01*
X662Y2003D01*
X658Y2003D01*
X658Y2001D01*
X654Y2001D01*
X654Y1999D01*
X650Y1999D01*
X650Y1997D01*
X644Y1997D01*
X644Y1995D01*
X726Y1995D01*
X726Y1997D01*
X718Y1997D01*
X718Y1999D01*
X714Y1999D01*
X714Y2001D01*
X712Y2001D01*
X712Y2003D01*
X708Y2003D01*
X708Y2005D01*
X706Y2005D01*
X706Y2007D01*
X704Y2007D01*
X704Y2009D01*
X702Y2009D01*
X702Y2011D01*
X700Y2011D01*
X700Y2013D01*
X698Y2013D01*
X698Y2017D01*
X696Y2017D01*
X696Y2021D01*
X674Y2021D01*
G37*
D02*
G36*
X774Y2021D02*
X774Y2017D01*
X772Y2017D01*
X772Y2015D01*
X770Y2015D01*
X770Y2011D01*
X768Y2011D01*
X768Y2009D01*
X766Y2009D01*
X766Y2007D01*
X764Y2007D01*
X764Y2005D01*
X762Y2005D01*
X762Y2003D01*
X758Y2003D01*
X758Y2001D01*
X754Y2001D01*
X754Y1999D01*
X750Y1999D01*
X750Y1997D01*
X744Y1997D01*
X744Y1995D01*
X826Y1995D01*
X826Y1997D01*
X818Y1997D01*
X818Y1999D01*
X814Y1999D01*
X814Y2001D01*
X812Y2001D01*
X812Y2003D01*
X808Y2003D01*
X808Y2005D01*
X806Y2005D01*
X806Y2007D01*
X804Y2007D01*
X804Y2009D01*
X802Y2009D01*
X802Y2011D01*
X800Y2011D01*
X800Y2013D01*
X798Y2013D01*
X798Y2017D01*
X796Y2017D01*
X796Y2021D01*
X774Y2021D01*
G37*
D02*
G36*
X874Y2021D02*
X874Y2017D01*
X872Y2017D01*
X872Y2015D01*
X870Y2015D01*
X870Y2011D01*
X868Y2011D01*
X868Y2009D01*
X866Y2009D01*
X866Y2007D01*
X864Y2007D01*
X864Y2005D01*
X862Y2005D01*
X862Y2003D01*
X858Y2003D01*
X858Y2001D01*
X854Y2001D01*
X854Y1999D01*
X850Y1999D01*
X850Y1997D01*
X844Y1997D01*
X844Y1995D01*
X926Y1995D01*
X926Y1997D01*
X918Y1997D01*
X918Y1999D01*
X914Y1999D01*
X914Y2001D01*
X912Y2001D01*
X912Y2003D01*
X908Y2003D01*
X908Y2005D01*
X906Y2005D01*
X906Y2007D01*
X904Y2007D01*
X904Y2009D01*
X902Y2009D01*
X902Y2011D01*
X900Y2011D01*
X900Y2013D01*
X898Y2013D01*
X898Y2017D01*
X896Y2017D01*
X896Y2021D01*
X874Y2021D01*
G37*
D02*
G36*
X974Y2021D02*
X974Y2017D01*
X972Y2017D01*
X972Y2015D01*
X970Y2015D01*
X970Y2011D01*
X968Y2011D01*
X968Y2009D01*
X966Y2009D01*
X966Y2007D01*
X964Y2007D01*
X964Y2005D01*
X962Y2005D01*
X962Y2003D01*
X958Y2003D01*
X958Y2001D01*
X954Y2001D01*
X954Y1999D01*
X950Y1999D01*
X950Y1997D01*
X944Y1997D01*
X944Y1995D01*
X1026Y1995D01*
X1026Y1997D01*
X1018Y1997D01*
X1018Y1999D01*
X1014Y1999D01*
X1014Y2001D01*
X1012Y2001D01*
X1012Y2003D01*
X1008Y2003D01*
X1008Y2005D01*
X1006Y2005D01*
X1006Y2007D01*
X1004Y2007D01*
X1004Y2009D01*
X1002Y2009D01*
X1002Y2011D01*
X1000Y2011D01*
X1000Y2013D01*
X998Y2013D01*
X998Y2017D01*
X996Y2017D01*
X996Y2021D01*
X974Y2021D01*
G37*
D02*
G36*
X1074Y2021D02*
X1074Y2017D01*
X1072Y2017D01*
X1072Y2015D01*
X1070Y2015D01*
X1070Y2011D01*
X1068Y2011D01*
X1068Y2009D01*
X1066Y2009D01*
X1066Y2007D01*
X1064Y2007D01*
X1064Y2005D01*
X1062Y2005D01*
X1062Y2003D01*
X1058Y2003D01*
X1058Y2001D01*
X1054Y2001D01*
X1054Y1999D01*
X1050Y1999D01*
X1050Y1997D01*
X1044Y1997D01*
X1044Y1995D01*
X1126Y1995D01*
X1126Y1997D01*
X1118Y1997D01*
X1118Y1999D01*
X1114Y1999D01*
X1114Y2001D01*
X1112Y2001D01*
X1112Y2003D01*
X1108Y2003D01*
X1108Y2005D01*
X1106Y2005D01*
X1106Y2007D01*
X1104Y2007D01*
X1104Y2009D01*
X1102Y2009D01*
X1102Y2011D01*
X1100Y2011D01*
X1100Y2013D01*
X1098Y2013D01*
X1098Y2017D01*
X1096Y2017D01*
X1096Y2021D01*
X1074Y2021D01*
G37*
D02*
G36*
X1174Y2021D02*
X1174Y2017D01*
X1172Y2017D01*
X1172Y2015D01*
X1170Y2015D01*
X1170Y2011D01*
X1168Y2011D01*
X1168Y2009D01*
X1166Y2009D01*
X1166Y2007D01*
X1164Y2007D01*
X1164Y2005D01*
X1162Y2005D01*
X1162Y2003D01*
X1158Y2003D01*
X1158Y2001D01*
X1154Y2001D01*
X1154Y1999D01*
X1150Y1999D01*
X1150Y1997D01*
X1144Y1997D01*
X1144Y1995D01*
X1226Y1995D01*
X1226Y1997D01*
X1218Y1997D01*
X1218Y1999D01*
X1214Y1999D01*
X1214Y2001D01*
X1212Y2001D01*
X1212Y2003D01*
X1208Y2003D01*
X1208Y2005D01*
X1206Y2005D01*
X1206Y2007D01*
X1204Y2007D01*
X1204Y2009D01*
X1202Y2009D01*
X1202Y2011D01*
X1200Y2011D01*
X1200Y2013D01*
X1198Y2013D01*
X1198Y2017D01*
X1196Y2017D01*
X1196Y2021D01*
X1174Y2021D01*
G37*
D02*
G36*
X1274Y2021D02*
X1274Y2017D01*
X1272Y2017D01*
X1272Y2015D01*
X1270Y2015D01*
X1270Y2011D01*
X1268Y2011D01*
X1268Y2009D01*
X1266Y2009D01*
X1266Y2007D01*
X1264Y2007D01*
X1264Y2005D01*
X1262Y2005D01*
X1262Y2003D01*
X1258Y2003D01*
X1258Y2001D01*
X1254Y2001D01*
X1254Y1999D01*
X1250Y1999D01*
X1250Y1997D01*
X1244Y1997D01*
X1244Y1995D01*
X1326Y1995D01*
X1326Y1997D01*
X1318Y1997D01*
X1318Y1999D01*
X1314Y1999D01*
X1314Y2001D01*
X1312Y2001D01*
X1312Y2003D01*
X1308Y2003D01*
X1308Y2005D01*
X1306Y2005D01*
X1306Y2007D01*
X1304Y2007D01*
X1304Y2009D01*
X1302Y2009D01*
X1302Y2011D01*
X1300Y2011D01*
X1300Y2013D01*
X1298Y2013D01*
X1298Y2017D01*
X1296Y2017D01*
X1296Y2021D01*
X1274Y2021D01*
G37*
D02*
G36*
X1374Y2021D02*
X1374Y2017D01*
X1372Y2017D01*
X1372Y2015D01*
X1370Y2015D01*
X1370Y2011D01*
X1368Y2011D01*
X1368Y2009D01*
X1366Y2009D01*
X1366Y2007D01*
X1364Y2007D01*
X1364Y2005D01*
X1362Y2005D01*
X1362Y2003D01*
X1358Y2003D01*
X1358Y2001D01*
X1354Y2001D01*
X1354Y1999D01*
X1350Y1999D01*
X1350Y1997D01*
X1344Y1997D01*
X1344Y1995D01*
X1426Y1995D01*
X1426Y1997D01*
X1418Y1997D01*
X1418Y1999D01*
X1414Y1999D01*
X1414Y2001D01*
X1412Y2001D01*
X1412Y2003D01*
X1408Y2003D01*
X1408Y2005D01*
X1406Y2005D01*
X1406Y2007D01*
X1404Y2007D01*
X1404Y2009D01*
X1402Y2009D01*
X1402Y2011D01*
X1400Y2011D01*
X1400Y2013D01*
X1398Y2013D01*
X1398Y2017D01*
X1396Y2017D01*
X1396Y2021D01*
X1374Y2021D01*
G37*
D02*
G36*
X1474Y2021D02*
X1474Y2017D01*
X1472Y2017D01*
X1472Y2015D01*
X1470Y2015D01*
X1470Y2011D01*
X1468Y2011D01*
X1468Y2009D01*
X1466Y2009D01*
X1466Y2007D01*
X1464Y2007D01*
X1464Y2005D01*
X1462Y2005D01*
X1462Y2003D01*
X1458Y2003D01*
X1458Y2001D01*
X1454Y2001D01*
X1454Y1999D01*
X1450Y1999D01*
X1450Y1997D01*
X1444Y1997D01*
X1444Y1995D01*
X1526Y1995D01*
X1526Y1997D01*
X1518Y1997D01*
X1518Y1999D01*
X1514Y1999D01*
X1514Y2001D01*
X1512Y2001D01*
X1512Y2003D01*
X1508Y2003D01*
X1508Y2005D01*
X1506Y2005D01*
X1506Y2007D01*
X1504Y2007D01*
X1504Y2009D01*
X1502Y2009D01*
X1502Y2011D01*
X1500Y2011D01*
X1500Y2013D01*
X1498Y2013D01*
X1498Y2017D01*
X1496Y2017D01*
X1496Y2021D01*
X1474Y2021D01*
G37*
D02*
G36*
X1574Y2021D02*
X1574Y2017D01*
X1572Y2017D01*
X1572Y2015D01*
X1570Y2015D01*
X1570Y2011D01*
X1568Y2011D01*
X1568Y2009D01*
X1566Y2009D01*
X1566Y2007D01*
X1564Y2007D01*
X1564Y2005D01*
X1562Y2005D01*
X1562Y2003D01*
X1558Y2003D01*
X1558Y2001D01*
X1554Y2001D01*
X1554Y1999D01*
X1550Y1999D01*
X1550Y1997D01*
X1544Y1997D01*
X1544Y1995D01*
X1626Y1995D01*
X1626Y1997D01*
X1618Y1997D01*
X1618Y1999D01*
X1614Y1999D01*
X1614Y2001D01*
X1612Y2001D01*
X1612Y2003D01*
X1608Y2003D01*
X1608Y2005D01*
X1606Y2005D01*
X1606Y2007D01*
X1604Y2007D01*
X1604Y2009D01*
X1602Y2009D01*
X1602Y2011D01*
X1600Y2011D01*
X1600Y2013D01*
X1598Y2013D01*
X1598Y2017D01*
X1596Y2017D01*
X1596Y2021D01*
X1574Y2021D01*
G37*
D02*
G36*
X1674Y2021D02*
X1674Y2017D01*
X1672Y2017D01*
X1672Y2015D01*
X1670Y2015D01*
X1670Y2011D01*
X1668Y2011D01*
X1668Y2009D01*
X1666Y2009D01*
X1666Y2007D01*
X1664Y2007D01*
X1664Y2005D01*
X1662Y2005D01*
X1662Y2003D01*
X1658Y2003D01*
X1658Y2001D01*
X1654Y2001D01*
X1654Y1999D01*
X1650Y1999D01*
X1650Y1997D01*
X1644Y1997D01*
X1644Y1995D01*
X1726Y1995D01*
X1726Y1997D01*
X1718Y1997D01*
X1718Y1999D01*
X1714Y1999D01*
X1714Y2001D01*
X1712Y2001D01*
X1712Y2003D01*
X1708Y2003D01*
X1708Y2005D01*
X1706Y2005D01*
X1706Y2007D01*
X1704Y2007D01*
X1704Y2009D01*
X1702Y2009D01*
X1702Y2011D01*
X1700Y2011D01*
X1700Y2013D01*
X1698Y2013D01*
X1698Y2017D01*
X1696Y2017D01*
X1696Y2021D01*
X1674Y2021D01*
G37*
D02*
G36*
X1774Y2021D02*
X1774Y2017D01*
X1772Y2017D01*
X1772Y2015D01*
X1770Y2015D01*
X1770Y2011D01*
X1768Y2011D01*
X1768Y2009D01*
X1766Y2009D01*
X1766Y2007D01*
X1764Y2007D01*
X1764Y2005D01*
X1762Y2005D01*
X1762Y2003D01*
X1758Y2003D01*
X1758Y2001D01*
X1754Y2001D01*
X1754Y1999D01*
X1750Y1999D01*
X1750Y1997D01*
X1744Y1997D01*
X1744Y1995D01*
X1826Y1995D01*
X1826Y1997D01*
X1818Y1997D01*
X1818Y1999D01*
X1814Y1999D01*
X1814Y2001D01*
X1812Y2001D01*
X1812Y2003D01*
X1808Y2003D01*
X1808Y2005D01*
X1806Y2005D01*
X1806Y2007D01*
X1804Y2007D01*
X1804Y2009D01*
X1802Y2009D01*
X1802Y2011D01*
X1800Y2011D01*
X1800Y2013D01*
X1798Y2013D01*
X1798Y2017D01*
X1796Y2017D01*
X1796Y2021D01*
X1774Y2021D01*
G37*
D02*
G36*
X1874Y2021D02*
X1874Y2017D01*
X1872Y2017D01*
X1872Y2015D01*
X1870Y2015D01*
X1870Y2011D01*
X1868Y2011D01*
X1868Y2009D01*
X1866Y2009D01*
X1866Y2007D01*
X1864Y2007D01*
X1864Y2005D01*
X1862Y2005D01*
X1862Y2003D01*
X1858Y2003D01*
X1858Y2001D01*
X1854Y2001D01*
X1854Y1999D01*
X1850Y1999D01*
X1850Y1997D01*
X1844Y1997D01*
X1844Y1995D01*
X1926Y1995D01*
X1926Y1997D01*
X1918Y1997D01*
X1918Y1999D01*
X1914Y1999D01*
X1914Y2001D01*
X1912Y2001D01*
X1912Y2003D01*
X1908Y2003D01*
X1908Y2005D01*
X1906Y2005D01*
X1906Y2007D01*
X1904Y2007D01*
X1904Y2009D01*
X1902Y2009D01*
X1902Y2011D01*
X1900Y2011D01*
X1900Y2013D01*
X1898Y2013D01*
X1898Y2017D01*
X1896Y2017D01*
X1896Y2021D01*
X1874Y2021D01*
G37*
D02*
G36*
X1974Y2021D02*
X1974Y2017D01*
X1972Y2017D01*
X1972Y2015D01*
X1970Y2015D01*
X1970Y2011D01*
X1968Y2011D01*
X1968Y2009D01*
X1966Y2009D01*
X1966Y2007D01*
X1964Y2007D01*
X1964Y2005D01*
X1962Y2005D01*
X1962Y2003D01*
X1958Y2003D01*
X1958Y2001D01*
X1954Y2001D01*
X1954Y1999D01*
X1950Y1999D01*
X1950Y1997D01*
X1944Y1997D01*
X1944Y1995D01*
X2026Y1995D01*
X2026Y1997D01*
X2018Y1997D01*
X2018Y1999D01*
X2014Y1999D01*
X2014Y2001D01*
X2012Y2001D01*
X2012Y2003D01*
X2008Y2003D01*
X2008Y2005D01*
X2006Y2005D01*
X2006Y2007D01*
X2004Y2007D01*
X2004Y2009D01*
X2002Y2009D01*
X2002Y2011D01*
X2000Y2011D01*
X2000Y2013D01*
X1998Y2013D01*
X1998Y2017D01*
X1996Y2017D01*
X1996Y2021D01*
X1974Y2021D01*
G37*
D02*
G36*
X2074Y2021D02*
X2074Y2017D01*
X2072Y2017D01*
X2072Y2015D01*
X2070Y2015D01*
X2070Y2011D01*
X2068Y2011D01*
X2068Y2009D01*
X2066Y2009D01*
X2066Y2007D01*
X2064Y2007D01*
X2064Y2005D01*
X2062Y2005D01*
X2062Y2003D01*
X2058Y2003D01*
X2058Y2001D01*
X2054Y2001D01*
X2054Y1999D01*
X2050Y1999D01*
X2050Y1997D01*
X2044Y1997D01*
X2044Y1995D01*
X2126Y1995D01*
X2126Y1997D01*
X2118Y1997D01*
X2118Y1999D01*
X2114Y1999D01*
X2114Y2001D01*
X2112Y2001D01*
X2112Y2003D01*
X2108Y2003D01*
X2108Y2005D01*
X2106Y2005D01*
X2106Y2007D01*
X2104Y2007D01*
X2104Y2009D01*
X2102Y2009D01*
X2102Y2011D01*
X2100Y2011D01*
X2100Y2013D01*
X2098Y2013D01*
X2098Y2017D01*
X2096Y2017D01*
X2096Y2021D01*
X2074Y2021D01*
G37*
D02*
G36*
X2174Y2021D02*
X2174Y2017D01*
X2172Y2017D01*
X2172Y2015D01*
X2170Y2015D01*
X2170Y2011D01*
X2168Y2011D01*
X2168Y2009D01*
X2166Y2009D01*
X2166Y2007D01*
X2164Y2007D01*
X2164Y2005D01*
X2162Y2005D01*
X2162Y2003D01*
X2158Y2003D01*
X2158Y2001D01*
X2154Y2001D01*
X2154Y1999D01*
X2150Y1999D01*
X2150Y1997D01*
X2144Y1997D01*
X2144Y1995D01*
X2226Y1995D01*
X2226Y1997D01*
X2218Y1997D01*
X2218Y1999D01*
X2214Y1999D01*
X2214Y2001D01*
X2212Y2001D01*
X2212Y2003D01*
X2208Y2003D01*
X2208Y2005D01*
X2206Y2005D01*
X2206Y2007D01*
X2204Y2007D01*
X2204Y2009D01*
X2202Y2009D01*
X2202Y2011D01*
X2200Y2011D01*
X2200Y2013D01*
X2198Y2013D01*
X2198Y2017D01*
X2196Y2017D01*
X2196Y2021D01*
X2174Y2021D01*
G37*
D02*
G36*
X544Y1997D02*
X544Y1995D01*
X566Y1995D01*
X566Y1997D01*
X544Y1997D01*
G37*
D02*
G36*
X216Y1995D02*
X216Y1993D01*
X566Y1993D01*
X566Y1995D01*
X216Y1995D01*
G37*
D02*
G36*
X216Y1995D02*
X216Y1993D01*
X566Y1993D01*
X566Y1995D01*
X216Y1995D01*
G37*
D02*
G36*
X216Y1995D02*
X216Y1993D01*
X566Y1993D01*
X566Y1995D01*
X216Y1995D01*
G37*
D02*
G36*
X216Y1995D02*
X216Y1993D01*
X566Y1993D01*
X566Y1995D01*
X216Y1995D01*
G37*
D02*
G36*
X612Y1995D02*
X612Y1993D01*
X2358Y1993D01*
X2358Y1995D01*
X612Y1995D01*
G37*
D02*
G36*
X612Y1995D02*
X612Y1993D01*
X2358Y1993D01*
X2358Y1995D01*
X612Y1995D01*
G37*
D02*
G36*
X612Y1995D02*
X612Y1993D01*
X2358Y1993D01*
X2358Y1995D01*
X612Y1995D01*
G37*
D02*
G36*
X612Y1995D02*
X612Y1993D01*
X2358Y1993D01*
X2358Y1995D01*
X612Y1995D01*
G37*
D02*
G36*
X612Y1995D02*
X612Y1993D01*
X2358Y1993D01*
X2358Y1995D01*
X612Y1995D01*
G37*
D02*
G36*
X612Y1995D02*
X612Y1993D01*
X2358Y1993D01*
X2358Y1995D01*
X612Y1995D01*
G37*
D02*
G36*
X612Y1995D02*
X612Y1993D01*
X2358Y1993D01*
X2358Y1995D01*
X612Y1995D01*
G37*
D02*
G36*
X612Y1995D02*
X612Y1993D01*
X2358Y1993D01*
X2358Y1995D01*
X612Y1995D01*
G37*
D02*
G36*
X612Y1995D02*
X612Y1993D01*
X2358Y1993D01*
X2358Y1995D01*
X612Y1995D01*
G37*
D02*
G36*
X612Y1995D02*
X612Y1993D01*
X2358Y1993D01*
X2358Y1995D01*
X612Y1995D01*
G37*
D02*
G36*
X612Y1995D02*
X612Y1993D01*
X2358Y1993D01*
X2358Y1995D01*
X612Y1995D01*
G37*
D02*
G36*
X612Y1995D02*
X612Y1993D01*
X2358Y1993D01*
X2358Y1995D01*
X612Y1995D01*
G37*
D02*
G36*
X612Y1995D02*
X612Y1993D01*
X2358Y1993D01*
X2358Y1995D01*
X612Y1995D01*
G37*
D02*
G36*
X612Y1995D02*
X612Y1993D01*
X2358Y1993D01*
X2358Y1995D01*
X612Y1995D01*
G37*
D02*
G36*
X612Y1995D02*
X612Y1993D01*
X2358Y1993D01*
X2358Y1995D01*
X612Y1995D01*
G37*
D02*
G36*
X612Y1995D02*
X612Y1993D01*
X2358Y1993D01*
X2358Y1995D01*
X612Y1995D01*
G37*
D02*
G36*
X612Y1995D02*
X612Y1993D01*
X2358Y1993D01*
X2358Y1995D01*
X612Y1995D01*
G37*
D02*
G36*
X48Y1993D02*
X48Y1981D01*
X90Y1981D01*
X90Y1983D01*
X82Y1983D01*
X82Y1985D01*
X78Y1985D01*
X78Y1987D01*
X74Y1987D01*
X74Y1989D01*
X72Y1989D01*
X72Y1991D01*
X70Y1991D01*
X70Y1993D01*
X48Y1993D01*
G37*
D02*
G36*
X214Y1993D02*
X214Y1991D01*
X212Y1991D01*
X212Y1989D01*
X208Y1989D01*
X208Y1987D01*
X204Y1987D01*
X204Y1985D01*
X200Y1985D01*
X200Y1983D01*
X194Y1983D01*
X194Y1981D01*
X568Y1981D01*
X568Y1987D01*
X566Y1987D01*
X566Y1993D01*
X214Y1993D01*
G37*
D02*
G36*
X612Y1993D02*
X612Y1985D01*
X2376Y1985D01*
X2376Y1987D01*
X2370Y1987D01*
X2370Y1989D01*
X2364Y1989D01*
X2364Y1991D01*
X2360Y1991D01*
X2360Y1993D01*
X612Y1993D01*
G37*
D02*
G36*
X2480Y1989D02*
X2480Y1987D01*
X2474Y1987D01*
X2474Y1985D01*
X2502Y1985D01*
X2502Y1989D01*
X2480Y1989D01*
G37*
D02*
G36*
X612Y1985D02*
X612Y1983D01*
X2502Y1983D01*
X2502Y1985D01*
X612Y1985D01*
G37*
D02*
G36*
X612Y1985D02*
X612Y1983D01*
X2502Y1983D01*
X2502Y1985D01*
X612Y1985D01*
G37*
D02*
G36*
X612Y1983D02*
X612Y1977D01*
X614Y1977D01*
X614Y1973D01*
X616Y1973D01*
X616Y1967D01*
X618Y1967D01*
X618Y1961D01*
X620Y1961D01*
X620Y1955D01*
X622Y1955D01*
X622Y1949D01*
X624Y1949D01*
X624Y1943D01*
X626Y1943D01*
X626Y1937D01*
X628Y1937D01*
X628Y1933D01*
X630Y1933D01*
X630Y1927D01*
X632Y1927D01*
X632Y1921D01*
X634Y1921D01*
X634Y1915D01*
X636Y1915D01*
X636Y1909D01*
X638Y1909D01*
X638Y1903D01*
X640Y1903D01*
X640Y1897D01*
X642Y1897D01*
X642Y1893D01*
X644Y1893D01*
X644Y1887D01*
X646Y1887D01*
X646Y1881D01*
X648Y1881D01*
X648Y1875D01*
X650Y1875D01*
X650Y1869D01*
X652Y1869D01*
X652Y1863D01*
X654Y1863D01*
X654Y1857D01*
X656Y1857D01*
X656Y1853D01*
X658Y1853D01*
X658Y1847D01*
X660Y1847D01*
X660Y1841D01*
X662Y1841D01*
X662Y1801D01*
X664Y1801D01*
X664Y1721D01*
X666Y1721D01*
X666Y1643D01*
X668Y1643D01*
X668Y1625D01*
X1094Y1625D01*
X1094Y1527D01*
X2502Y1527D01*
X2502Y1983D01*
X612Y1983D01*
G37*
D02*
G36*
X48Y1981D02*
X48Y1979D01*
X568Y1979D01*
X568Y1981D01*
X48Y1981D01*
G37*
D02*
G36*
X48Y1981D02*
X48Y1979D01*
X568Y1979D01*
X568Y1981D01*
X48Y1981D01*
G37*
D02*
G36*
X48Y1979D02*
X48Y1935D01*
X46Y1935D01*
X46Y1625D01*
X492Y1625D01*
X492Y1623D01*
X494Y1623D01*
X494Y1527D01*
X626Y1527D01*
X626Y1563D01*
X624Y1563D01*
X624Y1641D01*
X622Y1641D01*
X622Y1719D01*
X620Y1719D01*
X620Y1799D01*
X618Y1799D01*
X618Y1833D01*
X616Y1833D01*
X616Y1839D01*
X614Y1839D01*
X614Y1845D01*
X612Y1845D01*
X612Y1851D01*
X610Y1851D01*
X610Y1857D01*
X608Y1857D01*
X608Y1861D01*
X606Y1861D01*
X606Y1867D01*
X604Y1867D01*
X604Y1873D01*
X602Y1873D01*
X602Y1879D01*
X600Y1879D01*
X600Y1885D01*
X598Y1885D01*
X598Y1891D01*
X596Y1891D01*
X596Y1897D01*
X594Y1897D01*
X594Y1901D01*
X592Y1901D01*
X592Y1907D01*
X590Y1907D01*
X590Y1913D01*
X588Y1913D01*
X588Y1919D01*
X586Y1919D01*
X586Y1925D01*
X584Y1925D01*
X584Y1931D01*
X582Y1931D01*
X582Y1935D01*
X580Y1935D01*
X580Y1941D01*
X578Y1941D01*
X578Y1947D01*
X576Y1947D01*
X576Y1953D01*
X574Y1953D01*
X574Y1959D01*
X572Y1959D01*
X572Y1965D01*
X570Y1965D01*
X570Y1971D01*
X568Y1971D01*
X568Y1979D01*
X48Y1979D01*
G37*
D02*
G36*
X46Y1625D02*
X46Y1527D01*
X396Y1527D01*
X396Y1625D01*
X46Y1625D01*
G37*
D02*
G36*
X668Y1625D02*
X668Y1563D01*
X670Y1563D01*
X670Y1527D01*
X996Y1527D01*
X996Y1625D01*
X668Y1625D01*
G37*
D02*
G36*
X46Y1527D02*
X46Y1525D01*
X626Y1525D01*
X626Y1527D01*
X46Y1527D01*
G37*
D02*
G36*
X46Y1527D02*
X46Y1525D01*
X626Y1525D01*
X626Y1527D01*
X46Y1527D01*
G37*
D02*
G36*
X670Y1527D02*
X670Y1525D01*
X2502Y1525D01*
X2502Y1527D01*
X670Y1527D01*
G37*
D02*
G36*
X670Y1527D02*
X670Y1525D01*
X2502Y1525D01*
X2502Y1527D01*
X670Y1527D01*
G37*
D02*
G36*
X46Y1525D02*
X46Y1167D01*
X396Y1167D01*
X396Y1265D01*
X458Y1265D01*
X458Y1269D01*
X460Y1269D01*
X460Y1271D01*
X462Y1271D01*
X462Y1273D01*
X464Y1273D01*
X464Y1275D01*
X466Y1275D01*
X466Y1277D01*
X468Y1277D01*
X468Y1281D01*
X470Y1281D01*
X470Y1283D01*
X472Y1283D01*
X472Y1285D01*
X474Y1285D01*
X474Y1287D01*
X476Y1287D01*
X476Y1289D01*
X478Y1289D01*
X478Y1293D01*
X480Y1293D01*
X480Y1295D01*
X482Y1295D01*
X482Y1297D01*
X484Y1297D01*
X484Y1299D01*
X486Y1299D01*
X486Y1301D01*
X488Y1301D01*
X488Y1305D01*
X490Y1305D01*
X490Y1307D01*
X492Y1307D01*
X492Y1309D01*
X494Y1309D01*
X494Y1311D01*
X496Y1311D01*
X496Y1315D01*
X498Y1315D01*
X498Y1317D01*
X500Y1317D01*
X500Y1319D01*
X502Y1319D01*
X502Y1321D01*
X504Y1321D01*
X504Y1323D01*
X506Y1323D01*
X506Y1327D01*
X508Y1327D01*
X508Y1329D01*
X510Y1329D01*
X510Y1331D01*
X512Y1331D01*
X512Y1333D01*
X514Y1333D01*
X514Y1335D01*
X516Y1335D01*
X516Y1339D01*
X518Y1339D01*
X518Y1341D01*
X520Y1341D01*
X520Y1343D01*
X522Y1343D01*
X522Y1345D01*
X524Y1345D01*
X524Y1347D01*
X526Y1347D01*
X526Y1351D01*
X528Y1351D01*
X528Y1353D01*
X530Y1353D01*
X530Y1355D01*
X532Y1355D01*
X532Y1357D01*
X534Y1357D01*
X534Y1359D01*
X536Y1359D01*
X536Y1363D01*
X538Y1363D01*
X538Y1365D01*
X540Y1365D01*
X540Y1367D01*
X542Y1367D01*
X542Y1369D01*
X544Y1369D01*
X544Y1371D01*
X546Y1371D01*
X546Y1375D01*
X548Y1375D01*
X548Y1377D01*
X550Y1377D01*
X550Y1379D01*
X552Y1379D01*
X552Y1381D01*
X554Y1381D01*
X554Y1385D01*
X556Y1385D01*
X556Y1387D01*
X558Y1387D01*
X558Y1389D01*
X560Y1389D01*
X560Y1391D01*
X562Y1391D01*
X562Y1393D01*
X564Y1393D01*
X564Y1397D01*
X566Y1397D01*
X566Y1399D01*
X568Y1399D01*
X568Y1401D01*
X570Y1401D01*
X570Y1403D01*
X572Y1403D01*
X572Y1405D01*
X574Y1405D01*
X574Y1409D01*
X576Y1409D01*
X576Y1411D01*
X578Y1411D01*
X578Y1413D01*
X580Y1413D01*
X580Y1415D01*
X582Y1415D01*
X582Y1417D01*
X584Y1417D01*
X584Y1421D01*
X586Y1421D01*
X586Y1423D01*
X588Y1423D01*
X588Y1425D01*
X590Y1425D01*
X590Y1427D01*
X592Y1427D01*
X592Y1429D01*
X594Y1429D01*
X594Y1433D01*
X596Y1433D01*
X596Y1435D01*
X598Y1435D01*
X598Y1437D01*
X600Y1437D01*
X600Y1439D01*
X602Y1439D01*
X602Y1443D01*
X604Y1443D01*
X604Y1445D01*
X606Y1445D01*
X606Y1447D01*
X608Y1447D01*
X608Y1449D01*
X610Y1449D01*
X610Y1451D01*
X612Y1451D01*
X612Y1455D01*
X614Y1455D01*
X614Y1457D01*
X616Y1457D01*
X616Y1459D01*
X618Y1459D01*
X618Y1461D01*
X620Y1461D01*
X620Y1463D01*
X622Y1463D01*
X622Y1467D01*
X624Y1467D01*
X624Y1469D01*
X626Y1469D01*
X626Y1525D01*
X46Y1525D01*
G37*
D02*
G36*
X670Y1525D02*
X670Y1495D01*
X1764Y1495D01*
X1764Y1395D01*
X2502Y1395D01*
X2502Y1525D01*
X670Y1525D01*
G37*
D02*
G36*
X670Y1495D02*
X670Y1485D01*
X672Y1485D01*
X672Y1459D01*
X670Y1459D01*
X670Y1453D01*
X668Y1453D01*
X668Y1451D01*
X666Y1451D01*
X666Y1447D01*
X664Y1447D01*
X664Y1445D01*
X662Y1445D01*
X662Y1443D01*
X660Y1443D01*
X660Y1441D01*
X658Y1441D01*
X658Y1439D01*
X656Y1439D01*
X656Y1435D01*
X654Y1435D01*
X654Y1433D01*
X652Y1433D01*
X652Y1431D01*
X650Y1431D01*
X650Y1429D01*
X648Y1429D01*
X648Y1427D01*
X646Y1427D01*
X646Y1423D01*
X644Y1423D01*
X644Y1421D01*
X642Y1421D01*
X642Y1419D01*
X640Y1419D01*
X640Y1417D01*
X638Y1417D01*
X638Y1415D01*
X636Y1415D01*
X636Y1411D01*
X634Y1411D01*
X634Y1409D01*
X632Y1409D01*
X632Y1407D01*
X630Y1407D01*
X630Y1405D01*
X628Y1405D01*
X628Y1403D01*
X626Y1403D01*
X626Y1399D01*
X624Y1399D01*
X624Y1397D01*
X622Y1397D01*
X622Y1395D01*
X1502Y1395D01*
X1502Y1397D01*
X1494Y1397D01*
X1494Y1399D01*
X1492Y1399D01*
X1492Y1401D01*
X1488Y1401D01*
X1488Y1403D01*
X1484Y1403D01*
X1484Y1405D01*
X1482Y1405D01*
X1482Y1407D01*
X1480Y1407D01*
X1480Y1409D01*
X1478Y1409D01*
X1478Y1411D01*
X1476Y1411D01*
X1476Y1413D01*
X1474Y1413D01*
X1474Y1415D01*
X1472Y1415D01*
X1472Y1419D01*
X1470Y1419D01*
X1470Y1423D01*
X1468Y1423D01*
X1468Y1427D01*
X1466Y1427D01*
X1466Y1433D01*
X1464Y1433D01*
X1464Y1455D01*
X1466Y1455D01*
X1466Y1461D01*
X1468Y1461D01*
X1468Y1467D01*
X1470Y1467D01*
X1470Y1469D01*
X1472Y1469D01*
X1472Y1473D01*
X1474Y1473D01*
X1474Y1475D01*
X1476Y1475D01*
X1476Y1477D01*
X1478Y1477D01*
X1478Y1481D01*
X1482Y1481D01*
X1482Y1483D01*
X1484Y1483D01*
X1484Y1485D01*
X1486Y1485D01*
X1486Y1487D01*
X1490Y1487D01*
X1490Y1489D01*
X1494Y1489D01*
X1494Y1491D01*
X1500Y1491D01*
X1500Y1493D01*
X1510Y1493D01*
X1510Y1495D01*
X670Y1495D01*
G37*
D02*
G36*
X1518Y1495D02*
X1518Y1493D01*
X1528Y1493D01*
X1528Y1491D01*
X1534Y1491D01*
X1534Y1489D01*
X1538Y1489D01*
X1538Y1487D01*
X1540Y1487D01*
X1540Y1485D01*
X1544Y1485D01*
X1544Y1483D01*
X1546Y1483D01*
X1546Y1481D01*
X1548Y1481D01*
X1548Y1479D01*
X1550Y1479D01*
X1550Y1477D01*
X1552Y1477D01*
X1552Y1475D01*
X1554Y1475D01*
X1554Y1473D01*
X1556Y1473D01*
X1556Y1469D01*
X1558Y1469D01*
X1558Y1465D01*
X1560Y1465D01*
X1560Y1461D01*
X1562Y1461D01*
X1562Y1451D01*
X1564Y1451D01*
X1564Y1437D01*
X1562Y1437D01*
X1562Y1429D01*
X1560Y1429D01*
X1560Y1423D01*
X1558Y1423D01*
X1558Y1419D01*
X1556Y1419D01*
X1556Y1417D01*
X1554Y1417D01*
X1554Y1413D01*
X1552Y1413D01*
X1552Y1411D01*
X1550Y1411D01*
X1550Y1409D01*
X1548Y1409D01*
X1548Y1407D01*
X1546Y1407D01*
X1546Y1405D01*
X1544Y1405D01*
X1544Y1403D01*
X1540Y1403D01*
X1540Y1401D01*
X1536Y1401D01*
X1536Y1399D01*
X1532Y1399D01*
X1532Y1397D01*
X1526Y1397D01*
X1526Y1395D01*
X1664Y1395D01*
X1664Y1495D01*
X1518Y1495D01*
G37*
D02*
G36*
X620Y1395D02*
X620Y1393D01*
X2502Y1393D01*
X2502Y1395D01*
X620Y1395D01*
G37*
D02*
G36*
X620Y1395D02*
X620Y1393D01*
X2502Y1393D01*
X2502Y1395D01*
X620Y1395D01*
G37*
D02*
G36*
X620Y1395D02*
X620Y1393D01*
X2502Y1393D01*
X2502Y1395D01*
X620Y1395D01*
G37*
D02*
G36*
X618Y1393D02*
X618Y1389D01*
X616Y1389D01*
X616Y1387D01*
X614Y1387D01*
X614Y1385D01*
X612Y1385D01*
X612Y1383D01*
X610Y1383D01*
X610Y1381D01*
X608Y1381D01*
X608Y1377D01*
X606Y1377D01*
X606Y1375D01*
X604Y1375D01*
X604Y1373D01*
X602Y1373D01*
X602Y1371D01*
X600Y1371D01*
X600Y1369D01*
X598Y1369D01*
X598Y1365D01*
X596Y1365D01*
X596Y1363D01*
X594Y1363D01*
X594Y1361D01*
X592Y1361D01*
X592Y1359D01*
X590Y1359D01*
X590Y1357D01*
X588Y1357D01*
X588Y1353D01*
X586Y1353D01*
X586Y1351D01*
X584Y1351D01*
X584Y1349D01*
X582Y1349D01*
X582Y1347D01*
X580Y1347D01*
X580Y1345D01*
X578Y1345D01*
X578Y1341D01*
X576Y1341D01*
X576Y1339D01*
X574Y1339D01*
X574Y1337D01*
X572Y1337D01*
X572Y1335D01*
X570Y1335D01*
X570Y1331D01*
X568Y1331D01*
X568Y1329D01*
X566Y1329D01*
X566Y1327D01*
X564Y1327D01*
X564Y1325D01*
X562Y1325D01*
X562Y1323D01*
X560Y1323D01*
X560Y1319D01*
X558Y1319D01*
X558Y1317D01*
X556Y1317D01*
X556Y1315D01*
X554Y1315D01*
X554Y1313D01*
X552Y1313D01*
X552Y1311D01*
X550Y1311D01*
X550Y1307D01*
X548Y1307D01*
X548Y1305D01*
X546Y1305D01*
X546Y1303D01*
X544Y1303D01*
X544Y1301D01*
X542Y1301D01*
X542Y1299D01*
X540Y1299D01*
X540Y1295D01*
X538Y1295D01*
X538Y1293D01*
X536Y1293D01*
X536Y1291D01*
X534Y1291D01*
X534Y1289D01*
X532Y1289D01*
X532Y1287D01*
X530Y1287D01*
X530Y1283D01*
X528Y1283D01*
X528Y1281D01*
X526Y1281D01*
X526Y1279D01*
X524Y1279D01*
X524Y1277D01*
X522Y1277D01*
X522Y1275D01*
X520Y1275D01*
X520Y1271D01*
X518Y1271D01*
X518Y1269D01*
X516Y1269D01*
X516Y1267D01*
X514Y1267D01*
X514Y1265D01*
X1094Y1265D01*
X1094Y1167D01*
X2502Y1167D01*
X2502Y1393D01*
X618Y1393D01*
G37*
D02*
G36*
X512Y1265D02*
X512Y1261D01*
X510Y1261D01*
X510Y1259D01*
X508Y1259D01*
X508Y1257D01*
X506Y1257D01*
X506Y1255D01*
X504Y1255D01*
X504Y1253D01*
X502Y1253D01*
X502Y1249D01*
X500Y1249D01*
X500Y1247D01*
X498Y1247D01*
X498Y1245D01*
X496Y1245D01*
X496Y1243D01*
X494Y1243D01*
X494Y1169D01*
X492Y1169D01*
X492Y1167D01*
X996Y1167D01*
X996Y1265D01*
X512Y1265D01*
G37*
D02*
G36*
X46Y1167D02*
X46Y1165D01*
X2502Y1165D01*
X2502Y1167D01*
X46Y1167D01*
G37*
D02*
G36*
X46Y1167D02*
X46Y1165D01*
X2502Y1165D01*
X2502Y1167D01*
X46Y1167D01*
G37*
D02*
G36*
X46Y1167D02*
X46Y1165D01*
X2502Y1165D01*
X2502Y1167D01*
X46Y1167D01*
G37*
D02*
G36*
X46Y1165D02*
X46Y285D01*
X48Y285D01*
X48Y235D01*
X188Y235D01*
X188Y233D01*
X2470Y233D01*
X2470Y231D01*
X2480Y231D01*
X2480Y229D01*
X2500Y229D01*
X2500Y495D01*
X2502Y495D01*
X2502Y1165D01*
X46Y1165D01*
G37*
D02*
G36*
X48Y235D02*
X48Y221D01*
X70Y221D01*
X70Y223D01*
X72Y223D01*
X72Y225D01*
X74Y225D01*
X74Y227D01*
X78Y227D01*
X78Y229D01*
X82Y229D01*
X82Y231D01*
X86Y231D01*
X86Y233D01*
X96Y233D01*
X96Y235D01*
X48Y235D01*
G37*
D02*
G36*
X196Y233D02*
X196Y231D01*
X202Y231D01*
X202Y229D01*
X206Y229D01*
X206Y227D01*
X208Y227D01*
X208Y225D01*
X212Y225D01*
X212Y223D01*
X214Y223D01*
X214Y221D01*
X216Y221D01*
X216Y219D01*
X218Y219D01*
X218Y217D01*
X220Y217D01*
X220Y215D01*
X222Y215D01*
X222Y213D01*
X224Y213D01*
X224Y209D01*
X226Y209D01*
X226Y205D01*
X228Y205D01*
X228Y201D01*
X230Y201D01*
X230Y193D01*
X232Y193D01*
X232Y95D01*
X230Y95D01*
X230Y89D01*
X228Y89D01*
X228Y83D01*
X226Y83D01*
X226Y79D01*
X224Y79D01*
X224Y77D01*
X222Y77D01*
X222Y73D01*
X220Y73D01*
X220Y71D01*
X218Y71D01*
X218Y51D01*
X262Y51D01*
X262Y49D01*
X2354Y49D01*
X2354Y69D01*
X2352Y69D01*
X2352Y71D01*
X2350Y71D01*
X2350Y73D01*
X2348Y73D01*
X2348Y75D01*
X2346Y75D01*
X2346Y77D01*
X2344Y77D01*
X2344Y81D01*
X2342Y81D01*
X2342Y85D01*
X2340Y85D01*
X2340Y91D01*
X2338Y91D01*
X2338Y99D01*
X2336Y99D01*
X2336Y189D01*
X2338Y189D01*
X2338Y199D01*
X2340Y199D01*
X2340Y203D01*
X2342Y203D01*
X2342Y207D01*
X2344Y207D01*
X2344Y211D01*
X2346Y211D01*
X2346Y213D01*
X2348Y213D01*
X2348Y215D01*
X2350Y215D01*
X2350Y217D01*
X2352Y217D01*
X2352Y219D01*
X2354Y219D01*
X2354Y221D01*
X2356Y221D01*
X2356Y223D01*
X2358Y223D01*
X2358Y225D01*
X2362Y225D01*
X2362Y227D01*
X2366Y227D01*
X2366Y229D01*
X2370Y229D01*
X2370Y231D01*
X2380Y231D01*
X2380Y233D01*
X196Y233D01*
G37*
D02*
G04 End of Copper1*
M02*