G04 MADE WITH FRITZING*
G04 WWW.FRITZING.ORG*
G04 DOUBLE SIDED*
G04 HOLES PLATED*
G04 CONTOUR ON CENTER OF CONTOUR VECTOR*
%ASAXBY*%
%FSLAX23Y23*%
%MOIN*%
%OFA0B0*%
%SFA1.0B1.0*%
%ADD10C,0.088000*%
%ADD11C,0.090000*%
%ADD12C,0.077559*%
%ADD13R,0.087630X0.087806*%
%ADD14R,0.090000X0.090000*%
%LNMASK1*%
G90*
G70*
G54D10*
X1044Y1216D03*
X1044Y1576D03*
X444Y1576D03*
X444Y1216D03*
G54D11*
X1714Y1444D03*
X1514Y1444D03*
G54D12*
X335Y2039D03*
X435Y2039D03*
X535Y2039D03*
X635Y2039D03*
X735Y2039D03*
X835Y2039D03*
X935Y2039D03*
X1035Y2039D03*
X1135Y2039D03*
X1235Y2039D03*
X1335Y2039D03*
X1435Y2039D03*
X1535Y2039D03*
X1635Y2039D03*
X1735Y2039D03*
X1835Y2039D03*
X1935Y2039D03*
X2035Y2039D03*
X2135Y2039D03*
X2235Y2039D03*
X335Y2039D03*
X435Y2039D03*
X535Y2039D03*
X635Y2039D03*
X735Y2039D03*
X835Y2039D03*
X935Y2039D03*
X1035Y2039D03*
X1135Y2039D03*
X1235Y2039D03*
X1335Y2039D03*
X1435Y2039D03*
X1535Y2039D03*
X1635Y2039D03*
X1735Y2039D03*
X1835Y2039D03*
X1935Y2039D03*
X2035Y2039D03*
X2135Y2039D03*
X2235Y2039D03*
X2235Y2139D03*
X2135Y2139D03*
X2035Y2139D03*
X1935Y2139D03*
X1835Y2139D03*
X1735Y2139D03*
X1635Y2139D03*
X1535Y2139D03*
X1435Y2139D03*
X1335Y2139D03*
X1235Y2139D03*
X1135Y2139D03*
X1035Y2139D03*
X935Y2139D03*
X835Y2139D03*
X735Y2139D03*
X635Y2139D03*
X535Y2139D03*
X435Y2139D03*
X335Y2139D03*
G54D13*
X444Y1576D03*
X444Y1217D03*
X1045Y1216D03*
X1044Y1576D03*
G54D14*
X1714Y1444D03*
G04 End of Mask1*
M02*